<?xml version="1.0" encoding="utf-8" standalone="no"?>
<!DOCTYPE svg PUBLIC "-//W3C//DTD SVG 1.1//EN"
  "http://www.w3.org/Graphics/SVG/1.1/DTD/svg11.dtd">
<svg xmlns:xlink="http://www.w3.org/1999/xlink" width="594.408669pt" height="302.470141pt" viewBox="0 0 594.408669 302.470141" xmlns="http://www.w3.org/2000/svg" version="1.1">
 <metadata>
  <rdf:RDF xmlns:dc="http://purl.org/dc/elements/1.1/" xmlns:cc="http://creativecommons.org/ns#" xmlns:rdf="http://www.w3.org/1999/02/22-rdf-syntax-ns#">
   <cc:Work>
    <dc:type rdf:resource="http://purl.org/dc/dcmitype/StillImage"/>
    <dc:date>2026-06-03T20:34:12.435110</dc:date>
    <dc:format>image/svg+xml</dc:format>
    <dc:creator>
     <cc:Agent>
      <dc:title>Matplotlib v3.10.8, https://matplotlib.org/</dc:title>
     </cc:Agent>
    </dc:creator>
   </cc:Work>
  </rdf:RDF>
 </metadata>
 <defs>
  <style type="text/css">*{stroke-linejoin: round; stroke-linecap: butt}</style>
 </defs>
 <g id="figure_1">
  <g id="patch_1">
   <path d="M 0 302.470141 
L 594.408669 302.470141 
L 594.408669 0 
L 0 0 
z
" style="fill: #ffffff"/>
  </g>
  <g id="axes_1">
   <g id="patch_2">
    <path d="M 84.96 240.408 
L 321.846792 240.408 
L 321.846792 86.904 
L 84.96 86.904 
z
" style="fill: #ffffff"/>
   </g>
   <g id="line2d_1">
    <path d="M 84.96 136.983318 
L 321.846792 136.983318 
" clip-path="url(#pd24ebb316f)" style="fill: none; stroke-dasharray: 4,3; stroke-dashoffset: 0; stroke: #c0392b"/>
   </g>
   <g id="matplotlib.axis_1">
    <g id="xtick_1">
     <g id="line2d_2">
      <defs>
       <path id="m36819ce674" d="M 0 0 
L 0 3 
" style="stroke: #222222; stroke-width: 0.8"/>
      </defs>
      <g>
       <use xlink:href="#m36819ce674" x="95.727581" y="240.408" style="fill: #222222; stroke: #222222; stroke-width: 0.8"/>
      </g>
     </g>
     <g id="text_1">
      <!-- 2021 -->
      <g style="fill: #222222" transform="translate(84.911331 253.366672) scale(0.085 -0.085)">
       <defs>
        <path id="DejaVuSans-32" d="M 1228 531 
L 3431 531 
L 3431 0 
L 469 0 
L 469 531 
Q 828 903 1448 1529 
Q 2069 2156 2228 2338 
Q 2531 2678 2651 2914 
Q 2772 3150 2772 3378 
Q 2772 3750 2511 3984 
Q 2250 4219 1831 4219 
Q 1534 4219 1204 4116 
Q 875 4013 500 3803 
L 500 4441 
Q 881 4594 1212 4672 
Q 1544 4750 1819 4750 
Q 2544 4750 2975 4387 
Q 3406 4025 3406 3419 
Q 3406 3131 3298 2873 
Q 3191 2616 2906 2266 
Q 2828 2175 2409 1742 
Q 1991 1309 1228 531 
z
" transform="scale(0.015625)"/>
        <path id="DejaVuSans-30" d="M 2034 4250 
Q 1547 4250 1301 3770 
Q 1056 3291 1056 2328 
Q 1056 1369 1301 889 
Q 1547 409 2034 409 
Q 2525 409 2770 889 
Q 3016 1369 3016 2328 
Q 3016 3291 2770 3770 
Q 2525 4250 2034 4250 
z
M 2034 4750 
Q 2819 4750 3233 4129 
Q 3647 3509 3647 2328 
Q 3647 1150 3233 529 
Q 2819 -91 2034 -91 
Q 1250 -91 836 529 
Q 422 1150 422 2328 
Q 422 3509 836 4129 
Q 1250 4750 2034 4750 
z
" transform="scale(0.015625)"/>
        <path id="DejaVuSans-31" d="M 794 531 
L 1825 531 
L 1825 4091 
L 703 3866 
L 703 4441 
L 1819 4666 
L 2450 4666 
L 2450 531 
L 3481 531 
L 3481 0 
L 794 0 
L 794 531 
z
" transform="scale(0.015625)"/>
       </defs>
       <use xlink:href="#DejaVuSans-32"/>
       <use xlink:href="#DejaVuSans-30" transform="translate(63.623047 0)"/>
       <use xlink:href="#DejaVuSans-32" transform="translate(127.246094 0)"/>
       <use xlink:href="#DejaVuSans-31" transform="translate(190.869141 0)"/>
      </g>
     </g>
    </g>
    <g id="xtick_2">
     <g id="line2d_3">
      <g>
       <use xlink:href="#m36819ce674" x="149.565489" y="240.408" style="fill: #222222; stroke: #222222; stroke-width: 0.8"/>
      </g>
     </g>
     <g id="text_2">
      <!-- 2022 -->
      <g style="fill: #222222" transform="translate(138.749239 253.366672) scale(0.085 -0.085)">
       <use xlink:href="#DejaVuSans-32"/>
       <use xlink:href="#DejaVuSans-30" transform="translate(63.623047 0)"/>
       <use xlink:href="#DejaVuSans-32" transform="translate(127.246094 0)"/>
       <use xlink:href="#DejaVuSans-32" transform="translate(190.869141 0)"/>
      </g>
     </g>
    </g>
    <g id="xtick_3">
     <g id="line2d_4">
      <g>
       <use xlink:href="#m36819ce674" x="203.403396" y="240.408" style="fill: #222222; stroke: #222222; stroke-width: 0.8"/>
      </g>
     </g>
     <g id="text_3">
      <!-- 2023 -->
      <g style="fill: #222222" transform="translate(192.587146 253.366672) scale(0.085 -0.085)">
       <defs>
        <path id="DejaVuSans-33" d="M 2597 2516 
Q 3050 2419 3304 2112 
Q 3559 1806 3559 1356 
Q 3559 666 3084 287 
Q 2609 -91 1734 -91 
Q 1441 -91 1130 -33 
Q 819 25 488 141 
L 488 750 
Q 750 597 1062 519 
Q 1375 441 1716 441 
Q 2309 441 2620 675 
Q 2931 909 2931 1356 
Q 2931 1769 2642 2001 
Q 2353 2234 1838 2234 
L 1294 2234 
L 1294 2753 
L 1863 2753 
Q 2328 2753 2575 2939 
Q 2822 3125 2822 3475 
Q 2822 3834 2567 4026 
Q 2313 4219 1838 4219 
Q 1578 4219 1281 4162 
Q 984 4106 628 3988 
L 628 4550 
Q 988 4650 1302 4700 
Q 1616 4750 1894 4750 
Q 2613 4750 3031 4423 
Q 3450 4097 3450 3541 
Q 3450 3153 3228 2886 
Q 3006 2619 2597 2516 
z
" transform="scale(0.015625)"/>
       </defs>
       <use xlink:href="#DejaVuSans-32"/>
       <use xlink:href="#DejaVuSans-30" transform="translate(63.623047 0)"/>
       <use xlink:href="#DejaVuSans-32" transform="translate(127.246094 0)"/>
       <use xlink:href="#DejaVuSans-33" transform="translate(190.869141 0)"/>
      </g>
     </g>
    </g>
    <g id="xtick_4">
     <g id="line2d_5">
      <g>
       <use xlink:href="#m36819ce674" x="257.241304" y="240.408" style="fill: #222222; stroke: #222222; stroke-width: 0.8"/>
      </g>
     </g>
     <g id="text_4">
      <!-- 2024 -->
      <g style="fill: #222222" transform="translate(246.425054 253.366672) scale(0.085 -0.085)">
       <defs>
        <path id="DejaVuSans-34" d="M 2419 4116 
L 825 1625 
L 2419 1625 
L 2419 4116 
z
M 2253 4666 
L 3047 4666 
L 3047 1625 
L 3713 1625 
L 3713 1100 
L 3047 1100 
L 3047 0 
L 2419 0 
L 2419 1100 
L 313 1100 
L 313 1709 
L 2253 4666 
z
" transform="scale(0.015625)"/>
       </defs>
       <use xlink:href="#DejaVuSans-32"/>
       <use xlink:href="#DejaVuSans-30" transform="translate(63.623047 0)"/>
       <use xlink:href="#DejaVuSans-32" transform="translate(127.246094 0)"/>
       <use xlink:href="#DejaVuSans-34" transform="translate(190.869141 0)"/>
      </g>
     </g>
    </g>
    <g id="xtick_5">
     <g id="line2d_6">
      <g>
       <use xlink:href="#m36819ce674" x="311.079211" y="240.408" style="fill: #222222; stroke: #222222; stroke-width: 0.8"/>
      </g>
     </g>
     <g id="text_5">
      <!-- 2025 -->
      <g style="fill: #222222" transform="translate(300.262961 253.366672) scale(0.085 -0.085)">
       <defs>
        <path id="DejaVuSans-35" d="M 691 4666 
L 3169 4666 
L 3169 4134 
L 1269 4134 
L 1269 2991 
Q 1406 3038 1543 3061 
Q 1681 3084 1819 3084 
Q 2600 3084 3056 2656 
Q 3513 2228 3513 1497 
Q 3513 744 3044 326 
Q 2575 -91 1722 -91 
Q 1428 -91 1123 -41 
Q 819 9 494 109 
L 494 744 
Q 775 591 1075 516 
Q 1375 441 1709 441 
Q 2250 441 2565 725 
Q 2881 1009 2881 1497 
Q 2881 1984 2565 2268 
Q 2250 2553 1709 2553 
Q 1456 2553 1204 2497 
Q 953 2441 691 2322 
L 691 4666 
z
" transform="scale(0.015625)"/>
       </defs>
       <use xlink:href="#DejaVuSans-32"/>
       <use xlink:href="#DejaVuSans-30" transform="translate(63.623047 0)"/>
       <use xlink:href="#DejaVuSans-32" transform="translate(127.246094 0)"/>
       <use xlink:href="#DejaVuSans-35" transform="translate(190.869141 0)"/>
      </g>
     </g>
    </g>
   </g>
   <g id="matplotlib.axis_2">
    <g id="ytick_1">
     <g id="line2d_7">
      <defs>
       <path id="m37da4db0a3" d="M 0 0 
L -3 0 
" style="stroke: #222222; stroke-width: 0.8"/>
      </defs>
      <g>
       <use xlink:href="#m37da4db0a3" x="84.96" y="233.508944" style="fill: #222222; stroke: #222222; stroke-width: 0.8"/>
      </g>
     </g>
     <g id="text_6">
      <!-- 0.0 -->
      <g style="fill: #222222" transform="translate(62.556875 237.308163) scale(0.1 -0.1)">
       <defs>
        <path id="DejaVuSans-2e" d="M 684 794 
L 1344 794 
L 1344 0 
L 684 0 
L 684 794 
z
" transform="scale(0.015625)"/>
       </defs>
       <use xlink:href="#DejaVuSans-30"/>
       <use xlink:href="#DejaVuSans-2e" transform="translate(63.623047 0)"/>
       <use xlink:href="#DejaVuSans-30" transform="translate(95.410156 0)"/>
      </g>
     </g>
    </g>
    <g id="ytick_2">
     <g id="line2d_8">
      <g>
       <use xlink:href="#m37da4db0a3" x="84.96" y="199.013663" style="fill: #222222; stroke: #222222; stroke-width: 0.8"/>
      </g>
     </g>
     <g id="text_7">
      <!-- 0.2 -->
      <g style="fill: #222222" transform="translate(62.556875 202.812882) scale(0.1 -0.1)">
       <use xlink:href="#DejaVuSans-30"/>
       <use xlink:href="#DejaVuSans-2e" transform="translate(63.623047 0)"/>
       <use xlink:href="#DejaVuSans-32" transform="translate(95.410156 0)"/>
      </g>
     </g>
    </g>
    <g id="ytick_3">
     <g id="line2d_9">
      <g>
       <use xlink:href="#m37da4db0a3" x="84.96" y="164.518382" style="fill: #222222; stroke: #222222; stroke-width: 0.8"/>
      </g>
     </g>
     <g id="text_8">
      <!-- 0.4 -->
      <g style="fill: #222222" transform="translate(62.556875 168.317601) scale(0.1 -0.1)">
       <use xlink:href="#DejaVuSans-30"/>
       <use xlink:href="#DejaVuSans-2e" transform="translate(63.623047 0)"/>
       <use xlink:href="#DejaVuSans-34" transform="translate(95.410156 0)"/>
      </g>
     </g>
    </g>
    <g id="ytick_4">
     <g id="line2d_10">
      <g>
       <use xlink:href="#m37da4db0a3" x="84.96" y="130.023101" style="fill: #222222; stroke: #222222; stroke-width: 0.8"/>
      </g>
     </g>
     <g id="text_9">
      <!-- 0.6 -->
      <g style="fill: #222222" transform="translate(62.556875 133.82232) scale(0.1 -0.1)">
       <defs>
        <path id="DejaVuSans-36" d="M 2113 2584 
Q 1688 2584 1439 2293 
Q 1191 2003 1191 1497 
Q 1191 994 1439 701 
Q 1688 409 2113 409 
Q 2538 409 2786 701 
Q 3034 994 3034 1497 
Q 3034 2003 2786 2293 
Q 2538 2584 2113 2584 
z
M 3366 4563 
L 3366 3988 
Q 3128 4100 2886 4159 
Q 2644 4219 2406 4219 
Q 1781 4219 1451 3797 
Q 1122 3375 1075 2522 
Q 1259 2794 1537 2939 
Q 1816 3084 2150 3084 
Q 2853 3084 3261 2657 
Q 3669 2231 3669 1497 
Q 3669 778 3244 343 
Q 2819 -91 2113 -91 
Q 1303 -91 875 529 
Q 447 1150 447 2328 
Q 447 3434 972 4092 
Q 1497 4750 2381 4750 
Q 2619 4750 2861 4703 
Q 3103 4656 3366 4563 
z
" transform="scale(0.015625)"/>
       </defs>
       <use xlink:href="#DejaVuSans-30"/>
       <use xlink:href="#DejaVuSans-2e" transform="translate(63.623047 0)"/>
       <use xlink:href="#DejaVuSans-36" transform="translate(95.410156 0)"/>
      </g>
     </g>
    </g>
    <g id="ytick_5">
     <g id="line2d_11">
      <g>
       <use xlink:href="#m37da4db0a3" x="84.96" y="95.52782" style="fill: #222222; stroke: #222222; stroke-width: 0.8"/>
      </g>
     </g>
     <g id="text_10">
      <!-- 0.8 -->
      <g style="fill: #222222" transform="translate(62.556875 99.327039) scale(0.1 -0.1)">
       <defs>
        <path id="DejaVuSans-38" d="M 2034 2216 
Q 1584 2216 1326 1975 
Q 1069 1734 1069 1313 
Q 1069 891 1326 650 
Q 1584 409 2034 409 
Q 2484 409 2743 651 
Q 3003 894 3003 1313 
Q 3003 1734 2745 1975 
Q 2488 2216 2034 2216 
z
M 1403 2484 
Q 997 2584 770 2862 
Q 544 3141 544 3541 
Q 544 4100 942 4425 
Q 1341 4750 2034 4750 
Q 2731 4750 3128 4425 
Q 3525 4100 3525 3541 
Q 3525 3141 3298 2862 
Q 3072 2584 2669 2484 
Q 3125 2378 3379 2068 
Q 3634 1759 3634 1313 
Q 3634 634 3220 271 
Q 2806 -91 2034 -91 
Q 1263 -91 848 271 
Q 434 634 434 1313 
Q 434 1759 690 2068 
Q 947 2378 1403 2484 
z
M 1172 3481 
Q 1172 3119 1398 2916 
Q 1625 2713 2034 2713 
Q 2441 2713 2670 2916 
Q 2900 3119 2900 3481 
Q 2900 3844 2670 4047 
Q 2441 4250 2034 4250 
Q 1625 4250 1398 4047 
Q 1172 3844 1172 3481 
z
" transform="scale(0.015625)"/>
       </defs>
       <use xlink:href="#DejaVuSans-30"/>
       <use xlink:href="#DejaVuSans-2e" transform="translate(63.623047 0)"/>
       <use xlink:href="#DejaVuSans-38" transform="translate(95.410156 0)"/>
      </g>
     </g>
    </g>
    <g id="text_11">
     <!-- detected on … % of winter checklists -->
     <g style="fill: #222222" transform="translate(56.477187 256.56225) rotate(-90) scale(0.1 -0.1)">
      <defs>
       <path id="DejaVuSans-64" d="M 2906 2969 
L 2906 4863 
L 3481 4863 
L 3481 0 
L 2906 0 
L 2906 525 
Q 2725 213 2448 61 
Q 2172 -91 1784 -91 
Q 1150 -91 751 415 
Q 353 922 353 1747 
Q 353 2572 751 3078 
Q 1150 3584 1784 3584 
Q 2172 3584 2448 3432 
Q 2725 3281 2906 2969 
z
M 947 1747 
Q 947 1113 1208 752 
Q 1469 391 1925 391 
Q 2381 391 2643 752 
Q 2906 1113 2906 1747 
Q 2906 2381 2643 2742 
Q 2381 3103 1925 3103 
Q 1469 3103 1208 2742 
Q 947 2381 947 1747 
z
" transform="scale(0.015625)"/>
       <path id="DejaVuSans-65" d="M 3597 1894 
L 3597 1613 
L 953 1613 
Q 991 1019 1311 708 
Q 1631 397 2203 397 
Q 2534 397 2845 478 
Q 3156 559 3463 722 
L 3463 178 
Q 3153 47 2828 -22 
Q 2503 -91 2169 -91 
Q 1331 -91 842 396 
Q 353 884 353 1716 
Q 353 2575 817 3079 
Q 1281 3584 2069 3584 
Q 2775 3584 3186 3129 
Q 3597 2675 3597 1894 
z
M 3022 2063 
Q 3016 2534 2758 2815 
Q 2500 3097 2075 3097 
Q 1594 3097 1305 2825 
Q 1016 2553 972 2059 
L 3022 2063 
z
" transform="scale(0.015625)"/>
       <path id="DejaVuSans-74" d="M 1172 4494 
L 1172 3500 
L 2356 3500 
L 2356 3053 
L 1172 3053 
L 1172 1153 
Q 1172 725 1289 603 
Q 1406 481 1766 481 
L 2356 481 
L 2356 0 
L 1766 0 
Q 1100 0 847 248 
Q 594 497 594 1153 
L 594 3053 
L 172 3053 
L 172 3500 
L 594 3500 
L 594 4494 
L 1172 4494 
z
" transform="scale(0.015625)"/>
       <path id="DejaVuSans-63" d="M 3122 3366 
L 3122 2828 
Q 2878 2963 2633 3030 
Q 2388 3097 2138 3097 
Q 1578 3097 1268 2742 
Q 959 2388 959 1747 
Q 959 1106 1268 751 
Q 1578 397 2138 397 
Q 2388 397 2633 464 
Q 2878 531 3122 666 
L 3122 134 
Q 2881 22 2623 -34 
Q 2366 -91 2075 -91 
Q 1284 -91 818 406 
Q 353 903 353 1747 
Q 353 2603 823 3093 
Q 1294 3584 2113 3584 
Q 2378 3584 2631 3529 
Q 2884 3475 3122 3366 
z
" transform="scale(0.015625)"/>
       <path id="DejaVuSans-20" transform="scale(0.015625)"/>
       <path id="DejaVuSans-6f" d="M 1959 3097 
Q 1497 3097 1228 2736 
Q 959 2375 959 1747 
Q 959 1119 1226 758 
Q 1494 397 1959 397 
Q 2419 397 2687 759 
Q 2956 1122 2956 1747 
Q 2956 2369 2687 2733 
Q 2419 3097 1959 3097 
z
M 1959 3584 
Q 2709 3584 3137 3096 
Q 3566 2609 3566 1747 
Q 3566 888 3137 398 
Q 2709 -91 1959 -91 
Q 1206 -91 779 398 
Q 353 888 353 1747 
Q 353 2609 779 3096 
Q 1206 3584 1959 3584 
z
" transform="scale(0.015625)"/>
       <path id="DejaVuSans-6e" d="M 3513 2113 
L 3513 0 
L 2938 0 
L 2938 2094 
Q 2938 2591 2744 2837 
Q 2550 3084 2163 3084 
Q 1697 3084 1428 2787 
Q 1159 2491 1159 1978 
L 1159 0 
L 581 0 
L 581 3500 
L 1159 3500 
L 1159 2956 
Q 1366 3272 1645 3428 
Q 1925 3584 2291 3584 
Q 2894 3584 3203 3211 
Q 3513 2838 3513 2113 
z
" transform="scale(0.015625)"/>
       <path id="DejaVuSans-2026" d="M 2869 794 
L 3531 794 
L 3531 0 
L 2869 0 
L 2869 794 
z
M 4997 794 
L 5663 794 
L 5663 0 
L 4997 0 
L 4997 794 
z
M 738 794 
L 1403 794 
L 1403 0 
L 738 0 
L 738 794 
z
" transform="scale(0.015625)"/>
       <path id="DejaVuSans-25" d="M 4653 2053 
Q 4381 2053 4226 1822 
Q 4072 1591 4072 1178 
Q 4072 772 4226 539 
Q 4381 306 4653 306 
Q 4919 306 5073 539 
Q 5228 772 5228 1178 
Q 5228 1588 5073 1820 
Q 4919 2053 4653 2053 
z
M 4653 2450 
Q 5147 2450 5437 2106 
Q 5728 1763 5728 1178 
Q 5728 594 5436 251 
Q 5144 -91 4653 -91 
Q 4153 -91 3862 251 
Q 3572 594 3572 1178 
Q 3572 1766 3864 2108 
Q 4156 2450 4653 2450 
z
M 1428 4353 
Q 1159 4353 1004 4120 
Q 850 3888 850 3481 
Q 850 3069 1003 2837 
Q 1156 2606 1428 2606 
Q 1700 2606 1854 2837 
Q 2009 3069 2009 3481 
Q 2009 3884 1853 4118 
Q 1697 4353 1428 4353 
z
M 4250 4750 
L 4750 4750 
L 1831 -91 
L 1331 -91 
L 4250 4750 
z
M 1428 4750 
Q 1922 4750 2215 4408 
Q 2509 4066 2509 3481 
Q 2509 2891 2217 2550 
Q 1925 2209 1428 2209 
Q 931 2209 642 2551 
Q 353 2894 353 3481 
Q 353 4063 643 4406 
Q 934 4750 1428 4750 
z
" transform="scale(0.015625)"/>
       <path id="DejaVuSans-66" d="M 2375 4863 
L 2375 4384 
L 1825 4384 
Q 1516 4384 1395 4259 
Q 1275 4134 1275 3809 
L 1275 3500 
L 2222 3500 
L 2222 3053 
L 1275 3053 
L 1275 0 
L 697 0 
L 697 3053 
L 147 3053 
L 147 3500 
L 697 3500 
L 697 3744 
Q 697 4328 969 4595 
Q 1241 4863 1831 4863 
L 2375 4863 
z
" transform="scale(0.015625)"/>
       <path id="DejaVuSans-77" d="M 269 3500 
L 844 3500 
L 1563 769 
L 2278 3500 
L 2956 3500 
L 3675 769 
L 4391 3500 
L 4966 3500 
L 4050 0 
L 3372 0 
L 2619 2869 
L 1863 0 
L 1184 0 
L 269 3500 
z
" transform="scale(0.015625)"/>
       <path id="DejaVuSans-69" d="M 603 3500 
L 1178 3500 
L 1178 0 
L 603 0 
L 603 3500 
z
M 603 4863 
L 1178 4863 
L 1178 4134 
L 603 4134 
L 603 4863 
z
" transform="scale(0.015625)"/>
       <path id="DejaVuSans-72" d="M 2631 2963 
Q 2534 3019 2420 3045 
Q 2306 3072 2169 3072 
Q 1681 3072 1420 2755 
Q 1159 2438 1159 1844 
L 1159 0 
L 581 0 
L 581 3500 
L 1159 3500 
L 1159 2956 
Q 1341 3275 1631 3429 
Q 1922 3584 2338 3584 
Q 2397 3584 2469 3576 
Q 2541 3569 2628 3553 
L 2631 2963 
z
" transform="scale(0.015625)"/>
       <path id="DejaVuSans-68" d="M 3513 2113 
L 3513 0 
L 2938 0 
L 2938 2094 
Q 2938 2591 2744 2837 
Q 2550 3084 2163 3084 
Q 1697 3084 1428 2787 
Q 1159 2491 1159 1978 
L 1159 0 
L 581 0 
L 581 4863 
L 1159 4863 
L 1159 2956 
Q 1366 3272 1645 3428 
Q 1925 3584 2291 3584 
Q 2894 3584 3203 3211 
Q 3513 2838 3513 2113 
z
" transform="scale(0.015625)"/>
       <path id="DejaVuSans-6b" d="M 581 4863 
L 1159 4863 
L 1159 1991 
L 2875 3500 
L 3609 3500 
L 1753 1863 
L 3688 0 
L 2938 0 
L 1159 1709 
L 1159 0 
L 581 0 
L 581 4863 
z
" transform="scale(0.015625)"/>
       <path id="DejaVuSans-6c" d="M 603 4863 
L 1178 4863 
L 1178 0 
L 603 0 
L 603 4863 
z
" transform="scale(0.015625)"/>
       <path id="DejaVuSans-73" d="M 2834 3397 
L 2834 2853 
Q 2591 2978 2328 3040 
Q 2066 3103 1784 3103 
Q 1356 3103 1142 2972 
Q 928 2841 928 2578 
Q 928 2378 1081 2264 
Q 1234 2150 1697 2047 
L 1894 2003 
Q 2506 1872 2764 1633 
Q 3022 1394 3022 966 
Q 3022 478 2636 193 
Q 2250 -91 1575 -91 
Q 1294 -91 989 -36 
Q 684 19 347 128 
L 347 722 
Q 666 556 975 473 
Q 1284 391 1588 391 
Q 1994 391 2212 530 
Q 2431 669 2431 922 
Q 2431 1156 2273 1281 
Q 2116 1406 1581 1522 
L 1381 1569 
Q 847 1681 609 1914 
Q 372 2147 372 2553 
Q 372 3047 722 3315 
Q 1072 3584 1716 3584 
Q 2034 3584 2315 3537 
Q 2597 3491 2834 3397 
z
" transform="scale(0.015625)"/>
      </defs>
      <use xlink:href="#DejaVuSans-64"/>
      <use xlink:href="#DejaVuSans-65" transform="translate(63.476562 0)"/>
      <use xlink:href="#DejaVuSans-74" transform="translate(125 0)"/>
      <use xlink:href="#DejaVuSans-65" transform="translate(164.208984 0)"/>
      <use xlink:href="#DejaVuSans-63" transform="translate(225.732422 0)"/>
      <use xlink:href="#DejaVuSans-74" transform="translate(280.712891 0)"/>
      <use xlink:href="#DejaVuSans-65" transform="translate(319.921875 0)"/>
      <use xlink:href="#DejaVuSans-64" transform="translate(381.445312 0)"/>
      <use xlink:href="#DejaVuSans-20" transform="translate(444.921875 0)"/>
      <use xlink:href="#DejaVuSans-6f" transform="translate(476.708984 0)"/>
      <use xlink:href="#DejaVuSans-6e" transform="translate(537.890625 0)"/>
      <use xlink:href="#DejaVuSans-20" transform="translate(601.269531 0)"/>
      <use xlink:href="#DejaVuSans-2026" transform="translate(633.056641 0)"/>
      <use xlink:href="#DejaVuSans-20" transform="translate(733.056641 0)"/>
      <use xlink:href="#DejaVuSans-25" transform="translate(764.84375 0)"/>
      <use xlink:href="#DejaVuSans-20" transform="translate(859.863281 0)"/>
      <use xlink:href="#DejaVuSans-6f" transform="translate(891.650391 0)"/>
      <use xlink:href="#DejaVuSans-66" transform="translate(952.832031 0)"/>
      <use xlink:href="#DejaVuSans-20" transform="translate(988.037109 0)"/>
      <use xlink:href="#DejaVuSans-77" transform="translate(1019.824219 0)"/>
      <use xlink:href="#DejaVuSans-69" transform="translate(1101.611328 0)"/>
      <use xlink:href="#DejaVuSans-6e" transform="translate(1129.394531 0)"/>
      <use xlink:href="#DejaVuSans-74" transform="translate(1192.773438 0)"/>
      <use xlink:href="#DejaVuSans-65" transform="translate(1231.982422 0)"/>
      <use xlink:href="#DejaVuSans-72" transform="translate(1293.505859 0)"/>
      <use xlink:href="#DejaVuSans-20" transform="translate(1334.619141 0)"/>
      <use xlink:href="#DejaVuSans-63" transform="translate(1366.40625 0)"/>
      <use xlink:href="#DejaVuSans-68" transform="translate(1421.386719 0)"/>
      <use xlink:href="#DejaVuSans-65" transform="translate(1484.765625 0)"/>
      <use xlink:href="#DejaVuSans-63" transform="translate(1546.289062 0)"/>
      <use xlink:href="#DejaVuSans-6b" transform="translate(1601.269531 0)"/>
      <use xlink:href="#DejaVuSans-6c" transform="translate(1659.179688 0)"/>
      <use xlink:href="#DejaVuSans-69" transform="translate(1686.962891 0)"/>
      <use xlink:href="#DejaVuSans-73" transform="translate(1714.746094 0)"/>
      <use xlink:href="#DejaVuSans-74" transform="translate(1766.845703 0)"/>
      <use xlink:href="#DejaVuSans-73" transform="translate(1806.054688 0)"/>
     </g>
    </g>
   </g>
   <g id="patch_3">
    <path d="M 84.96 233.508944 
L 84.96 95.52782 
" style="fill: none; stroke: #222222; stroke-width: 0.8; stroke-linejoin: miter; stroke-linecap: square"/>
   </g>
   <g id="patch_4">
    <path d="M 95.727581 240.408 
L 311.079211 240.408 
" style="fill: none; stroke: #222222; stroke-width: 0.8; stroke-linejoin: miter; stroke-linecap: square"/>
   </g>
   <g id="line2d_12">
    <defs>
     <path id="m625891f656" d="M 0 3.5 
C 0.928211 3.5 1.81853 3.131218 2.474874 2.474874 
C 3.131218 1.81853 3.5 0.928211 3.5 0 
C 3.5 -0.928211 3.131218 -1.81853 2.474874 -2.474874 
C 1.81853 -3.131218 0.928211 -3.5 0 -3.5 
C -0.928211 -3.5 -1.81853 -3.131218 -2.474874 -2.474874 
C -3.131218 -1.81853 -3.5 -0.928211 -3.5 0 
C -3.5 0.928211 -3.131218 1.81853 -2.474874 2.474874 
C -1.81853 3.131218 -0.928211 3.5 0 3.5 
z
" style="stroke: #222222"/>
    </defs>
    <g clip-path="url(#pd24ebb316f)">
     <use xlink:href="#m625891f656" x="95.727581" y="142.731889" style="fill: #222222; stroke: #222222"/>
     <use xlink:href="#m625891f656" x="149.565489" y="135.671451" style="fill: #222222; stroke: #222222"/>
     <use xlink:href="#m625891f656" x="203.403396" y="131.636915" style="fill: #222222; stroke: #222222"/>
     <use xlink:href="#m625891f656" x="257.241304" y="138.893316" style="fill: #222222; stroke: #222222"/>
     <use xlink:href="#m625891f656" x="311.079211" y="135.983019" style="fill: #222222; stroke: #222222"/>
    </g>
   </g>
   <g id="text_12">
    <!-- 53% -->
    <g style="fill: #222222" transform="translate(86.281292 134.731889) scale(0.085 -0.085)">
     <use xlink:href="#DejaVuSans-35"/>
     <use xlink:href="#DejaVuSans-33" transform="translate(63.623047 0)"/>
     <use xlink:href="#DejaVuSans-25" transform="translate(127.246094 0)"/>
    </g>
   </g>
   <g id="text_13">
    <!-- 57% -->
    <g style="fill: #222222" transform="translate(140.1192 127.671451) scale(0.085 -0.085)">
     <defs>
      <path id="DejaVuSans-37" d="M 525 4666 
L 3525 4666 
L 3525 4397 
L 1831 0 
L 1172 0 
L 2766 4134 
L 525 4134 
L 525 4666 
z
" transform="scale(0.015625)"/>
     </defs>
     <use xlink:href="#DejaVuSans-35"/>
     <use xlink:href="#DejaVuSans-37" transform="translate(63.623047 0)"/>
     <use xlink:href="#DejaVuSans-25" transform="translate(127.246094 0)"/>
    </g>
   </g>
   <g id="text_14">
    <!-- 59% -->
    <g style="fill: #222222" transform="translate(193.957107 123.636915) scale(0.085 -0.085)">
     <defs>
      <path id="DejaVuSans-39" d="M 703 97 
L 703 672 
Q 941 559 1184 500 
Q 1428 441 1663 441 
Q 2288 441 2617 861 
Q 2947 1281 2994 2138 
Q 2813 1869 2534 1725 
Q 2256 1581 1919 1581 
Q 1219 1581 811 2004 
Q 403 2428 403 3163 
Q 403 3881 828 4315 
Q 1253 4750 1959 4750 
Q 2769 4750 3195 4129 
Q 3622 3509 3622 2328 
Q 3622 1225 3098 567 
Q 2575 -91 1691 -91 
Q 1453 -91 1209 -44 
Q 966 3 703 97 
z
M 1959 2075 
Q 2384 2075 2632 2365 
Q 2881 2656 2881 3163 
Q 2881 3666 2632 3958 
Q 2384 4250 1959 4250 
Q 1534 4250 1286 3958 
Q 1038 3666 1038 3163 
Q 1038 2656 1286 2365 
Q 1534 2075 1959 2075 
z
" transform="scale(0.015625)"/>
     </defs>
     <use xlink:href="#DejaVuSans-35"/>
     <use xlink:href="#DejaVuSans-39" transform="translate(63.623047 0)"/>
     <use xlink:href="#DejaVuSans-25" transform="translate(127.246094 0)"/>
    </g>
   </g>
   <g id="text_15">
    <!-- 55% -->
    <g style="fill: #222222" transform="translate(247.795015 130.893316) scale(0.085 -0.085)">
     <use xlink:href="#DejaVuSans-35"/>
     <use xlink:href="#DejaVuSans-35" transform="translate(63.623047 0)"/>
     <use xlink:href="#DejaVuSans-25" transform="translate(127.246094 0)"/>
    </g>
   </g>
   <g id="text_16">
    <!-- 57% -->
    <g style="fill: #222222" transform="translate(301.632922 127.983019) scale(0.085 -0.085)">
     <use xlink:href="#DejaVuSans-35"/>
     <use xlink:href="#DejaVuSans-37" transform="translate(63.623047 0)"/>
     <use xlink:href="#DejaVuSans-25" transform="translate(127.246094 0)"/>
    </g>
   </g>
   <g id="text_17">
    <!-- Northern Cardinal -->
    <g style="fill: #222222" transform="translate(84.96 65.706187) scale(0.1 -0.1)">
     <defs>
      <path id="DejaVuSans-4e" d="M 628 4666 
L 1478 4666 
L 3547 763 
L 3547 4666 
L 4159 4666 
L 4159 0 
L 3309 0 
L 1241 3903 
L 1241 0 
L 628 0 
L 628 4666 
z
" transform="scale(0.015625)"/>
      <path id="DejaVuSans-43" d="M 4122 4306 
L 4122 3641 
Q 3803 3938 3442 4084 
Q 3081 4231 2675 4231 
Q 1875 4231 1450 3742 
Q 1025 3253 1025 2328 
Q 1025 1406 1450 917 
Q 1875 428 2675 428 
Q 3081 428 3442 575 
Q 3803 722 4122 1019 
L 4122 359 
Q 3791 134 3420 21 
Q 3050 -91 2638 -91 
Q 1578 -91 968 557 
Q 359 1206 359 2328 
Q 359 3453 968 4101 
Q 1578 4750 2638 4750 
Q 3056 4750 3426 4639 
Q 3797 4528 4122 4306 
z
" transform="scale(0.015625)"/>
      <path id="DejaVuSans-61" d="M 2194 1759 
Q 1497 1759 1228 1600 
Q 959 1441 959 1056 
Q 959 750 1161 570 
Q 1363 391 1709 391 
Q 2188 391 2477 730 
Q 2766 1069 2766 1631 
L 2766 1759 
L 2194 1759 
z
M 3341 1997 
L 3341 0 
L 2766 0 
L 2766 531 
Q 2569 213 2275 61 
Q 1981 -91 1556 -91 
Q 1019 -91 701 211 
Q 384 513 384 1019 
Q 384 1609 779 1909 
Q 1175 2209 1959 2209 
L 2766 2209 
L 2766 2266 
Q 2766 2663 2505 2880 
Q 2244 3097 1772 3097 
Q 1472 3097 1187 3025 
Q 903 2953 641 2809 
L 641 3341 
Q 956 3463 1253 3523 
Q 1550 3584 1831 3584 
Q 2591 3584 2966 3190 
Q 3341 2797 3341 1997 
z
" transform="scale(0.015625)"/>
     </defs>
     <use xlink:href="#DejaVuSans-4e"/>
     <use xlink:href="#DejaVuSans-6f" transform="translate(74.804688 0)"/>
     <use xlink:href="#DejaVuSans-72" transform="translate(135.986328 0)"/>
     <use xlink:href="#DejaVuSans-74" transform="translate(177.099609 0)"/>
     <use xlink:href="#DejaVuSans-68" transform="translate(216.308594 0)"/>
     <use xlink:href="#DejaVuSans-65" transform="translate(279.6875 0)"/>
     <use xlink:href="#DejaVuSans-72" transform="translate(341.210938 0)"/>
     <use xlink:href="#DejaVuSans-6e" transform="translate(380.574219 0)"/>
     <use xlink:href="#DejaVuSans-20" transform="translate(443.953125 0)"/>
     <use xlink:href="#DejaVuSans-43" transform="translate(475.740234 0)"/>
     <use xlink:href="#DejaVuSans-61" transform="translate(545.564453 0)"/>
     <use xlink:href="#DejaVuSans-72" transform="translate(606.84375 0)"/>
     <use xlink:href="#DejaVuSans-64" transform="translate(646.207031 0)"/>
     <use xlink:href="#DejaVuSans-69" transform="translate(709.683594 0)"/>
     <use xlink:href="#DejaVuSans-6e" transform="translate(737.466797 0)"/>
     <use xlink:href="#DejaVuSans-61" transform="translate(800.845703 0)"/>
     <use xlink:href="#DejaVuSans-6c" transform="translate(862.125 0)"/>
    </g>
    <!-- present every winter -->
    <g style="fill: #222222" transform="translate(84.96 76.904) scale(0.1 -0.1)">
     <defs>
      <path id="DejaVuSans-70" d="M 1159 525 
L 1159 -1331 
L 581 -1331 
L 581 3500 
L 1159 3500 
L 1159 2969 
Q 1341 3281 1617 3432 
Q 1894 3584 2278 3584 
Q 2916 3584 3314 3078 
Q 3713 2572 3713 1747 
Q 3713 922 3314 415 
Q 2916 -91 2278 -91 
Q 1894 -91 1617 61 
Q 1341 213 1159 525 
z
M 3116 1747 
Q 3116 2381 2855 2742 
Q 2594 3103 2138 3103 
Q 1681 3103 1420 2742 
Q 1159 2381 1159 1747 
Q 1159 1113 1420 752 
Q 1681 391 2138 391 
Q 2594 391 2855 752 
Q 3116 1113 3116 1747 
z
" transform="scale(0.015625)"/>
      <path id="DejaVuSans-76" d="M 191 3500 
L 800 3500 
L 1894 563 
L 2988 3500 
L 3597 3500 
L 2284 0 
L 1503 0 
L 191 3500 
z
" transform="scale(0.015625)"/>
      <path id="DejaVuSans-79" d="M 2059 -325 
Q 1816 -950 1584 -1140 
Q 1353 -1331 966 -1331 
L 506 -1331 
L 506 -850 
L 844 -850 
Q 1081 -850 1212 -737 
Q 1344 -625 1503 -206 
L 1606 56 
L 191 3500 
L 800 3500 
L 1894 763 
L 2988 3500 
L 3597 3500 
L 2059 -325 
z
" transform="scale(0.015625)"/>
     </defs>
     <use xlink:href="#DejaVuSans-70"/>
     <use xlink:href="#DejaVuSans-72" transform="translate(63.476562 0)"/>
     <use xlink:href="#DejaVuSans-65" transform="translate(102.339844 0)"/>
     <use xlink:href="#DejaVuSans-73" transform="translate(163.863281 0)"/>
     <use xlink:href="#DejaVuSans-65" transform="translate(215.962891 0)"/>
     <use xlink:href="#DejaVuSans-6e" transform="translate(277.486328 0)"/>
     <use xlink:href="#DejaVuSans-74" transform="translate(340.865234 0)"/>
     <use xlink:href="#DejaVuSans-20" transform="translate(380.074219 0)"/>
     <use xlink:href="#DejaVuSans-65" transform="translate(411.861328 0)"/>
     <use xlink:href="#DejaVuSans-76" transform="translate(473.384766 0)"/>
     <use xlink:href="#DejaVuSans-65" transform="translate(532.564453 0)"/>
     <use xlink:href="#DejaVuSans-72" transform="translate(594.087891 0)"/>
     <use xlink:href="#DejaVuSans-79" transform="translate(635.201172 0)"/>
     <use xlink:href="#DejaVuSans-20" transform="translate(694.380859 0)"/>
     <use xlink:href="#DejaVuSans-77" transform="translate(726.167969 0)"/>
     <use xlink:href="#DejaVuSans-69" transform="translate(807.955078 0)"/>
     <use xlink:href="#DejaVuSans-6e" transform="translate(835.738281 0)"/>
     <use xlink:href="#DejaVuSans-74" transform="translate(899.117188 0)"/>
     <use xlink:href="#DejaVuSans-65" transform="translate(938.326172 0)"/>
     <use xlink:href="#DejaVuSans-72" transform="translate(999.849609 0)"/>
    </g>
   </g>
  </g>
  <g id="axes_2">
   <g id="patch_5">
    <path d="M 350.273208 240.408 
L 587.16 240.408 
L 587.16 86.904 
L 350.273208 86.904 
z
" style="fill: #ffffff"/>
   </g>
   <g id="line2d_13">
    <path d="M 350.273208 209.301729 
L 587.16 209.301729 
" clip-path="url(#p7c38970641)" style="fill: none; stroke-dasharray: 4,3; stroke-dashoffset: 0; stroke: #c0392b"/>
   </g>
   <g id="matplotlib.axis_3">
    <g id="xtick_6">
     <g id="line2d_14">
      <g>
       <use xlink:href="#m36819ce674" x="361.040789" y="240.408" style="fill: #222222; stroke: #222222; stroke-width: 0.8"/>
      </g>
     </g>
     <g id="text_18">
      <!-- 2021 -->
      <g style="fill: #222222" transform="translate(350.224539 253.366672) scale(0.085 -0.085)">
       <use xlink:href="#DejaVuSans-32"/>
       <use xlink:href="#DejaVuSans-30" transform="translate(63.623047 0)"/>
       <use xlink:href="#DejaVuSans-32" transform="translate(127.246094 0)"/>
       <use xlink:href="#DejaVuSans-31" transform="translate(190.869141 0)"/>
      </g>
     </g>
    </g>
    <g id="xtick_7">
     <g id="line2d_15">
      <g>
       <use xlink:href="#m36819ce674" x="414.878696" y="240.408" style="fill: #222222; stroke: #222222; stroke-width: 0.8"/>
      </g>
     </g>
     <g id="text_19">
      <!-- 2022 -->
      <g style="fill: #222222" transform="translate(404.062446 253.366672) scale(0.085 -0.085)">
       <use xlink:href="#DejaVuSans-32"/>
       <use xlink:href="#DejaVuSans-30" transform="translate(63.623047 0)"/>
       <use xlink:href="#DejaVuSans-32" transform="translate(127.246094 0)"/>
       <use xlink:href="#DejaVuSans-32" transform="translate(190.869141 0)"/>
      </g>
     </g>
    </g>
    <g id="xtick_8">
     <g id="line2d_16">
      <g>
       <use xlink:href="#m36819ce674" x="468.716604" y="240.408" style="fill: #222222; stroke: #222222; stroke-width: 0.8"/>
      </g>
     </g>
     <g id="text_20">
      <!-- 2023 -->
      <g style="fill: #222222" transform="translate(457.900354 253.366672) scale(0.085 -0.085)">
       <use xlink:href="#DejaVuSans-32"/>
       <use xlink:href="#DejaVuSans-30" transform="translate(63.623047 0)"/>
       <use xlink:href="#DejaVuSans-32" transform="translate(127.246094 0)"/>
       <use xlink:href="#DejaVuSans-33" transform="translate(190.869141 0)"/>
      </g>
     </g>
    </g>
    <g id="xtick_9">
     <g id="line2d_17">
      <g>
       <use xlink:href="#m36819ce674" x="522.554511" y="240.408" style="fill: #222222; stroke: #222222; stroke-width: 0.8"/>
      </g>
     </g>
     <g id="text_21">
      <!-- 2024 -->
      <g style="fill: #222222" transform="translate(511.738261 253.366672) scale(0.085 -0.085)">
       <use xlink:href="#DejaVuSans-32"/>
       <use xlink:href="#DejaVuSans-30" transform="translate(63.623047 0)"/>
       <use xlink:href="#DejaVuSans-32" transform="translate(127.246094 0)"/>
       <use xlink:href="#DejaVuSans-34" transform="translate(190.869141 0)"/>
      </g>
     </g>
    </g>
    <g id="xtick_10">
     <g id="line2d_18">
      <g>
       <use xlink:href="#m36819ce674" x="576.392419" y="240.408" style="fill: #222222; stroke: #222222; stroke-width: 0.8"/>
      </g>
     </g>
     <g id="text_22">
      <!-- 2025 -->
      <g style="fill: #222222" transform="translate(565.576169 253.366672) scale(0.085 -0.085)">
       <use xlink:href="#DejaVuSans-32"/>
       <use xlink:href="#DejaVuSans-30" transform="translate(63.623047 0)"/>
       <use xlink:href="#DejaVuSans-32" transform="translate(127.246094 0)"/>
       <use xlink:href="#DejaVuSans-35" transform="translate(190.869141 0)"/>
      </g>
     </g>
    </g>
   </g>
   <g id="matplotlib.axis_4">
    <g id="ytick_6">
     <g id="line2d_19">
      <g>
       <use xlink:href="#m37da4db0a3" x="350.273208" y="233.508944" style="fill: #222222; stroke: #222222; stroke-width: 0.8"/>
      </g>
     </g>
    </g>
    <g id="ytick_7">
     <g id="line2d_20">
      <g>
       <use xlink:href="#m37da4db0a3" x="350.273208" y="199.013663" style="fill: #222222; stroke: #222222; stroke-width: 0.8"/>
      </g>
     </g>
    </g>
    <g id="ytick_8">
     <g id="line2d_21">
      <g>
       <use xlink:href="#m37da4db0a3" x="350.273208" y="164.518382" style="fill: #222222; stroke: #222222; stroke-width: 0.8"/>
      </g>
     </g>
    </g>
    <g id="ytick_9">
     <g id="line2d_22">
      <g>
       <use xlink:href="#m37da4db0a3" x="350.273208" y="130.023101" style="fill: #222222; stroke: #222222; stroke-width: 0.8"/>
      </g>
     </g>
    </g>
    <g id="ytick_10">
     <g id="line2d_23">
      <g>
       <use xlink:href="#m37da4db0a3" x="350.273208" y="95.52782" style="fill: #222222; stroke: #222222; stroke-width: 0.8"/>
      </g>
     </g>
    </g>
   </g>
   <g id="patch_6">
    <path d="M 350.273208 233.508944 
L 350.273208 95.52782 
" style="fill: none; stroke: #222222; stroke-width: 0.8; stroke-linejoin: miter; stroke-linecap: square"/>
   </g>
   <g id="patch_7">
    <path d="M 361.040789 240.408 
L 576.392419 240.408 
" style="fill: none; stroke: #222222; stroke-width: 0.8; stroke-linejoin: miter; stroke-linecap: square"/>
   </g>
   <g id="line2d_24">
    <g clip-path="url(#p7c38970641)">
     <use xlink:href="#m625891f656" x="361.040789" y="233.508944" style="fill: #222222; stroke: #222222"/>
     <use xlink:href="#m625891f656" x="414.878696" y="112.47287" style="fill: #222222; stroke: #222222"/>
     <use xlink:href="#m625891f656" x="468.716604" y="233.508944" style="fill: #222222; stroke: #222222"/>
     <use xlink:href="#m625891f656" x="522.554511" y="233.508944" style="fill: #222222; stroke: #222222"/>
     <use xlink:href="#m625891f656" x="576.392419" y="233.508944" style="fill: #222222; stroke: #222222"/>
    </g>
   </g>
   <g id="text_23">
    <!-- 70% -->
    <g style="fill: #222222" transform="translate(405.432407 104.47287) scale(0.085 -0.085)">
     <use xlink:href="#DejaVuSans-37"/>
     <use xlink:href="#DejaVuSans-30" transform="translate(63.623047 0)"/>
     <use xlink:href="#DejaVuSans-25" transform="translate(127.246094 0)"/>
    </g>
   </g>
   <g id="patch_8">
    <path d="M 478.191241 165.852787 
Q 526.376288 187.172179 574.561336 208.49157 
" style="fill: none; stroke: #c0392b; stroke-width: 0.8; stroke-linecap: round"/>
   </g>
   <g id="text_24">
    <!-- pooled frequency -->
    <g style="fill: #c0392b" transform="translate(398.727324 151.756196) scale(0.085 -0.085)">
     <defs>
      <path id="DejaVuSans-71" d="M 947 1747 
Q 947 1113 1208 752 
Q 1469 391 1925 391 
Q 2381 391 2643 752 
Q 2906 1113 2906 1747 
Q 2906 2381 2643 2742 
Q 2381 3103 1925 3103 
Q 1469 3103 1208 2742 
Q 947 2381 947 1747 
z
M 2906 525 
Q 2725 213 2448 61 
Q 2172 -91 1784 -91 
Q 1150 -91 751 415 
Q 353 922 353 1747 
Q 353 2572 751 3078 
Q 1150 3584 1784 3584 
Q 2172 3584 2448 3432 
Q 2725 3281 2906 2969 
L 2906 3500 
L 3481 3500 
L 3481 -1331 
L 2906 -1331 
L 2906 525 
z
" transform="scale(0.015625)"/>
      <path id="DejaVuSans-75" d="M 544 1381 
L 544 3500 
L 1119 3500 
L 1119 1403 
Q 1119 906 1312 657 
Q 1506 409 1894 409 
Q 2359 409 2629 706 
Q 2900 1003 2900 1516 
L 2900 3500 
L 3475 3500 
L 3475 0 
L 2900 0 
L 2900 538 
Q 2691 219 2414 64 
Q 2138 -91 1772 -91 
Q 1169 -91 856 284 
Q 544 659 544 1381 
z
M 1991 3584 
L 1991 3584 
z
" transform="scale(0.015625)"/>
     </defs>
     <use xlink:href="#DejaVuSans-70"/>
     <use xlink:href="#DejaVuSans-6f" transform="translate(63.476562 0)"/>
     <use xlink:href="#DejaVuSans-6f" transform="translate(124.658203 0)"/>
     <use xlink:href="#DejaVuSans-6c" transform="translate(185.839844 0)"/>
     <use xlink:href="#DejaVuSans-65" transform="translate(213.623047 0)"/>
     <use xlink:href="#DejaVuSans-64" transform="translate(275.146484 0)"/>
     <use xlink:href="#DejaVuSans-20" transform="translate(338.623047 0)"/>
     <use xlink:href="#DejaVuSans-66" transform="translate(370.410156 0)"/>
     <use xlink:href="#DejaVuSans-72" transform="translate(405.615234 0)"/>
     <use xlink:href="#DejaVuSans-65" transform="translate(444.478516 0)"/>
     <use xlink:href="#DejaVuSans-71" transform="translate(506.001953 0)"/>
     <use xlink:href="#DejaVuSans-75" transform="translate(569.478516 0)"/>
     <use xlink:href="#DejaVuSans-65" transform="translate(632.857422 0)"/>
     <use xlink:href="#DejaVuSans-6e" transform="translate(694.380859 0)"/>
     <use xlink:href="#DejaVuSans-63" transform="translate(757.759766 0)"/>
     <use xlink:href="#DejaVuSans-79" transform="translate(812.740234 0)"/>
    </g>
    <!-- (what a bar chart shows) -->
    <g style="fill: #c0392b" transform="translate(398.727324 161.274337) scale(0.085 -0.085)">
     <defs>
      <path id="DejaVuSans-28" d="M 1984 4856 
Q 1566 4138 1362 3434 
Q 1159 2731 1159 2009 
Q 1159 1288 1364 580 
Q 1569 -128 1984 -844 
L 1484 -844 
Q 1016 -109 783 600 
Q 550 1309 550 2009 
Q 550 2706 781 3412 
Q 1013 4119 1484 4856 
L 1984 4856 
z
" transform="scale(0.015625)"/>
      <path id="DejaVuSans-62" d="M 3116 1747 
Q 3116 2381 2855 2742 
Q 2594 3103 2138 3103 
Q 1681 3103 1420 2742 
Q 1159 2381 1159 1747 
Q 1159 1113 1420 752 
Q 1681 391 2138 391 
Q 2594 391 2855 752 
Q 3116 1113 3116 1747 
z
M 1159 2969 
Q 1341 3281 1617 3432 
Q 1894 3584 2278 3584 
Q 2916 3584 3314 3078 
Q 3713 2572 3713 1747 
Q 3713 922 3314 415 
Q 2916 -91 2278 -91 
Q 1894 -91 1617 61 
Q 1341 213 1159 525 
L 1159 0 
L 581 0 
L 581 4863 
L 1159 4863 
L 1159 2969 
z
" transform="scale(0.015625)"/>
      <path id="DejaVuSans-29" d="M 513 4856 
L 1013 4856 
Q 1481 4119 1714 3412 
Q 1947 2706 1947 2009 
Q 1947 1309 1714 600 
Q 1481 -109 1013 -844 
L 513 -844 
Q 928 -128 1133 580 
Q 1338 1288 1338 2009 
Q 1338 2731 1133 3434 
Q 928 4138 513 4856 
z
" transform="scale(0.015625)"/>
     </defs>
     <use xlink:href="#DejaVuSans-28"/>
     <use xlink:href="#DejaVuSans-77" transform="translate(39.013672 0)"/>
     <use xlink:href="#DejaVuSans-68" transform="translate(120.800781 0)"/>
     <use xlink:href="#DejaVuSans-61" transform="translate(184.179688 0)"/>
     <use xlink:href="#DejaVuSans-74" transform="translate(245.458984 0)"/>
     <use xlink:href="#DejaVuSans-20" transform="translate(284.667969 0)"/>
     <use xlink:href="#DejaVuSans-61" transform="translate(316.455078 0)"/>
     <use xlink:href="#DejaVuSans-20" transform="translate(377.734375 0)"/>
     <use xlink:href="#DejaVuSans-62" transform="translate(409.521484 0)"/>
     <use xlink:href="#DejaVuSans-61" transform="translate(472.998047 0)"/>
     <use xlink:href="#DejaVuSans-72" transform="translate(534.277344 0)"/>
     <use xlink:href="#DejaVuSans-20" transform="translate(575.390625 0)"/>
     <use xlink:href="#DejaVuSans-63" transform="translate(607.177734 0)"/>
     <use xlink:href="#DejaVuSans-68" transform="translate(662.158203 0)"/>
     <use xlink:href="#DejaVuSans-61" transform="translate(725.537109 0)"/>
     <use xlink:href="#DejaVuSans-72" transform="translate(786.816406 0)"/>
     <use xlink:href="#DejaVuSans-74" transform="translate(827.929688 0)"/>
     <use xlink:href="#DejaVuSans-20" transform="translate(867.138672 0)"/>
     <use xlink:href="#DejaVuSans-73" transform="translate(898.925781 0)"/>
     <use xlink:href="#DejaVuSans-68" transform="translate(951.025391 0)"/>
     <use xlink:href="#DejaVuSans-6f" transform="translate(1014.404297 0)"/>
     <use xlink:href="#DejaVuSans-77" transform="translate(1075.585938 0)"/>
     <use xlink:href="#DejaVuSans-73" transform="translate(1157.373047 0)"/>
     <use xlink:href="#DejaVuSans-29" transform="translate(1209.472656 0)"/>
    </g>
   </g>
   <g id="text_25">
    <!-- Varied Thrush -->
    <g style="fill: #222222" transform="translate(350.273208 65.706187) scale(0.1 -0.1)">
     <defs>
      <path id="DejaVuSans-56" d="M 1831 0 
L 50 4666 
L 709 4666 
L 2188 738 
L 3669 4666 
L 4325 4666 
L 2547 0 
L 1831 0 
z
" transform="scale(0.015625)"/>
      <path id="DejaVuSans-54" d="M -19 4666 
L 3928 4666 
L 3928 4134 
L 2272 4134 
L 2272 0 
L 1638 0 
L 1638 4134 
L -19 4134 
L -19 4666 
z
" transform="scale(0.015625)"/>
     </defs>
     <use xlink:href="#DejaVuSans-56"/>
     <use xlink:href="#DejaVuSans-61" transform="translate(60.658203 0)"/>
     <use xlink:href="#DejaVuSans-72" transform="translate(121.9375 0)"/>
     <use xlink:href="#DejaVuSans-69" transform="translate(163.050781 0)"/>
     <use xlink:href="#DejaVuSans-65" transform="translate(190.833984 0)"/>
     <use xlink:href="#DejaVuSans-64" transform="translate(252.357422 0)"/>
     <use xlink:href="#DejaVuSans-20" transform="translate(315.833984 0)"/>
     <use xlink:href="#DejaVuSans-54" transform="translate(347.621094 0)"/>
     <use xlink:href="#DejaVuSans-68" transform="translate(408.705078 0)"/>
     <use xlink:href="#DejaVuSans-72" transform="translate(472.083984 0)"/>
     <use xlink:href="#DejaVuSans-75" transform="translate(513.197266 0)"/>
     <use xlink:href="#DejaVuSans-73" transform="translate(576.576172 0)"/>
     <use xlink:href="#DejaVuSans-68" transform="translate(628.675781 0)"/>
    </g>
    <!-- one winter only — a single over-wintering bird -->
    <g style="fill: #222222" transform="translate(350.273208 76.904) scale(0.1 -0.1)">
     <defs>
      <path id="DejaVuSans-2014" d="M 313 1978 
L 6088 1978 
L 6088 1528 
L 313 1528 
L 313 1978 
z
" transform="scale(0.015625)"/>
      <path id="DejaVuSans-67" d="M 2906 1791 
Q 2906 2416 2648 2759 
Q 2391 3103 1925 3103 
Q 1463 3103 1205 2759 
Q 947 2416 947 1791 
Q 947 1169 1205 825 
Q 1463 481 1925 481 
Q 2391 481 2648 825 
Q 2906 1169 2906 1791 
z
M 3481 434 
Q 3481 -459 3084 -895 
Q 2688 -1331 1869 -1331 
Q 1566 -1331 1297 -1286 
Q 1028 -1241 775 -1147 
L 775 -588 
Q 1028 -725 1275 -790 
Q 1522 -856 1778 -856 
Q 2344 -856 2625 -561 
Q 2906 -266 2906 331 
L 2906 616 
Q 2728 306 2450 153 
Q 2172 0 1784 0 
Q 1141 0 747 490 
Q 353 981 353 1791 
Q 353 2603 747 3093 
Q 1141 3584 1784 3584 
Q 2172 3584 2450 3431 
Q 2728 3278 2906 2969 
L 2906 3500 
L 3481 3500 
L 3481 434 
z
" transform="scale(0.015625)"/>
      <path id="DejaVuSans-2d" d="M 313 2009 
L 1997 2009 
L 1997 1497 
L 313 1497 
L 313 2009 
z
" transform="scale(0.015625)"/>
     </defs>
     <use xlink:href="#DejaVuSans-6f"/>
     <use xlink:href="#DejaVuSans-6e" transform="translate(61.181641 0)"/>
     <use xlink:href="#DejaVuSans-65" transform="translate(124.560547 0)"/>
     <use xlink:href="#DejaVuSans-20" transform="translate(186.083984 0)"/>
     <use xlink:href="#DejaVuSans-77" transform="translate(217.871094 0)"/>
     <use xlink:href="#DejaVuSans-69" transform="translate(299.658203 0)"/>
     <use xlink:href="#DejaVuSans-6e" transform="translate(327.441406 0)"/>
     <use xlink:href="#DejaVuSans-74" transform="translate(390.820312 0)"/>
     <use xlink:href="#DejaVuSans-65" transform="translate(430.029297 0)"/>
     <use xlink:href="#DejaVuSans-72" transform="translate(491.552734 0)"/>
     <use xlink:href="#DejaVuSans-20" transform="translate(532.666016 0)"/>
     <use xlink:href="#DejaVuSans-6f" transform="translate(564.453125 0)"/>
     <use xlink:href="#DejaVuSans-6e" transform="translate(625.634766 0)"/>
     <use xlink:href="#DejaVuSans-6c" transform="translate(689.013672 0)"/>
     <use xlink:href="#DejaVuSans-79" transform="translate(716.796875 0)"/>
     <use xlink:href="#DejaVuSans-20" transform="translate(775.976562 0)"/>
     <use xlink:href="#DejaVuSans-2014" transform="translate(807.763672 0)"/>
     <use xlink:href="#DejaVuSans-20" transform="translate(907.763672 0)"/>
     <use xlink:href="#DejaVuSans-61" transform="translate(939.550781 0)"/>
     <use xlink:href="#DejaVuSans-20" transform="translate(1000.830078 0)"/>
     <use xlink:href="#DejaVuSans-73" transform="translate(1032.617188 0)"/>
     <use xlink:href="#DejaVuSans-69" transform="translate(1084.716797 0)"/>
     <use xlink:href="#DejaVuSans-6e" transform="translate(1112.5 0)"/>
     <use xlink:href="#DejaVuSans-67" transform="translate(1175.878906 0)"/>
     <use xlink:href="#DejaVuSans-6c" transform="translate(1239.355469 0)"/>
     <use xlink:href="#DejaVuSans-65" transform="translate(1267.138672 0)"/>
     <use xlink:href="#DejaVuSans-20" transform="translate(1328.662109 0)"/>
     <use xlink:href="#DejaVuSans-6f" transform="translate(1360.449219 0)"/>
     <use xlink:href="#DejaVuSans-76" transform="translate(1421.630859 0)"/>
     <use xlink:href="#DejaVuSans-65" transform="translate(1480.810547 0)"/>
     <use xlink:href="#DejaVuSans-72" transform="translate(1542.333984 0)"/>
     <use xlink:href="#DejaVuSans-2d" transform="translate(1577.072266 0)"/>
     <use xlink:href="#DejaVuSans-77" transform="translate(1613.15625 0)"/>
     <use xlink:href="#DejaVuSans-69" transform="translate(1694.943359 0)"/>
     <use xlink:href="#DejaVuSans-6e" transform="translate(1722.726562 0)"/>
     <use xlink:href="#DejaVuSans-74" transform="translate(1786.105469 0)"/>
     <use xlink:href="#DejaVuSans-65" transform="translate(1825.314453 0)"/>
     <use xlink:href="#DejaVuSans-72" transform="translate(1886.837891 0)"/>
     <use xlink:href="#DejaVuSans-69" transform="translate(1927.951172 0)"/>
     <use xlink:href="#DejaVuSans-6e" transform="translate(1955.734375 0)"/>
     <use xlink:href="#DejaVuSans-67" transform="translate(2019.113281 0)"/>
     <use xlink:href="#DejaVuSans-20" transform="translate(2082.589844 0)"/>
     <use xlink:href="#DejaVuSans-62" transform="translate(2114.376953 0)"/>
     <use xlink:href="#DejaVuSans-69" transform="translate(2177.853516 0)"/>
     <use xlink:href="#DejaVuSans-72" transform="translate(2205.636719 0)"/>
     <use xlink:href="#DejaVuSans-64" transform="translate(2245 0)"/>
    </g>
   </g>
  </g>
  <g id="text_26">
   <!-- A single vagrant inflates the pooled frequency -->
   <g style="fill: #222222" transform="translate(7.2 17.077969) scale(0.13 -0.13)">
    <defs>
     <path id="DejaVuSans-Bold-41" d="M 3419 850 
L 1538 850 
L 1241 0 
L 31 0 
L 1759 4666 
L 3194 4666 
L 4922 0 
L 3713 0 
L 3419 850 
z
M 1838 1716 
L 3116 1716 
L 2478 3572 
L 1838 1716 
z
" transform="scale(0.015625)"/>
     <path id="DejaVuSans-Bold-20" transform="scale(0.015625)"/>
     <path id="DejaVuSans-Bold-73" d="M 3272 3391 
L 3272 2541 
Q 2913 2691 2578 2766 
Q 2244 2841 1947 2841 
Q 1628 2841 1473 2761 
Q 1319 2681 1319 2516 
Q 1319 2381 1436 2309 
Q 1553 2238 1856 2203 
L 2053 2175 
Q 2913 2066 3209 1816 
Q 3506 1566 3506 1031 
Q 3506 472 3093 190 
Q 2681 -91 1863 -91 
Q 1516 -91 1145 -36 
Q 775 19 384 128 
L 384 978 
Q 719 816 1070 734 
Q 1422 653 1784 653 
Q 2113 653 2278 743 
Q 2444 834 2444 1013 
Q 2444 1163 2330 1236 
Q 2216 1309 1875 1350 
L 1678 1375 
Q 931 1469 631 1722 
Q 331 1975 331 2491 
Q 331 3047 712 3315 
Q 1094 3584 1881 3584 
Q 2191 3584 2531 3537 
Q 2872 3491 3272 3391 
z
" transform="scale(0.015625)"/>
     <path id="DejaVuSans-Bold-69" d="M 538 3500 
L 1656 3500 
L 1656 0 
L 538 0 
L 538 3500 
z
M 538 4863 
L 1656 4863 
L 1656 3950 
L 538 3950 
L 538 4863 
z
" transform="scale(0.015625)"/>
     <path id="DejaVuSans-Bold-6e" d="M 4056 2131 
L 4056 0 
L 2931 0 
L 2931 347 
L 2931 1631 
Q 2931 2084 2911 2256 
Q 2891 2428 2841 2509 
Q 2775 2619 2662 2680 
Q 2550 2741 2406 2741 
Q 2056 2741 1856 2470 
Q 1656 2200 1656 1722 
L 1656 0 
L 538 0 
L 538 3500 
L 1656 3500 
L 1656 2988 
Q 1909 3294 2193 3439 
Q 2478 3584 2822 3584 
Q 3428 3584 3742 3212 
Q 4056 2841 4056 2131 
z
" transform="scale(0.015625)"/>
     <path id="DejaVuSans-Bold-67" d="M 2919 594 
Q 2688 288 2409 144 
Q 2131 0 1766 0 
Q 1125 0 706 504 
Q 288 1009 288 1791 
Q 288 2575 706 3076 
Q 1125 3578 1766 3578 
Q 2131 3578 2409 3434 
Q 2688 3291 2919 2981 
L 2919 3500 
L 4044 3500 
L 4044 353 
Q 4044 -491 3511 -936 
Q 2978 -1381 1966 -1381 
Q 1638 -1381 1331 -1331 
Q 1025 -1281 716 -1178 
L 716 -306 
Q 1009 -475 1290 -558 
Q 1572 -641 1856 -641 
Q 2406 -641 2662 -400 
Q 2919 -159 2919 353 
L 2919 594 
z
M 2181 2772 
Q 1834 2772 1640 2515 
Q 1447 2259 1447 1791 
Q 1447 1309 1634 1061 
Q 1822 813 2181 813 
Q 2531 813 2725 1069 
Q 2919 1325 2919 1791 
Q 2919 2259 2725 2515 
Q 2531 2772 2181 2772 
z
" transform="scale(0.015625)"/>
     <path id="DejaVuSans-Bold-6c" d="M 538 4863 
L 1656 4863 
L 1656 0 
L 538 0 
L 538 4863 
z
" transform="scale(0.015625)"/>
     <path id="DejaVuSans-Bold-65" d="M 4031 1759 
L 4031 1441 
L 1416 1441 
Q 1456 1047 1700 850 
Q 1944 653 2381 653 
Q 2734 653 3104 758 
Q 3475 863 3866 1075 
L 3866 213 
Q 3469 63 3072 -14 
Q 2675 -91 2278 -91 
Q 1328 -91 801 392 
Q 275 875 275 1747 
Q 275 2603 792 3093 
Q 1309 3584 2216 3584 
Q 3041 3584 3536 3087 
Q 4031 2591 4031 1759 
z
M 2881 2131 
Q 2881 2450 2695 2645 
Q 2509 2841 2209 2841 
Q 1884 2841 1681 2658 
Q 1478 2475 1428 2131 
L 2881 2131 
z
" transform="scale(0.015625)"/>
     <path id="DejaVuSans-Bold-76" d="M 97 3500 
L 1216 3500 
L 2088 1081 
L 2956 3500 
L 4078 3500 
L 2700 0 
L 1472 0 
L 97 3500 
z
" transform="scale(0.015625)"/>
     <path id="DejaVuSans-Bold-61" d="M 2106 1575 
Q 1756 1575 1579 1456 
Q 1403 1338 1403 1106 
Q 1403 894 1545 773 
Q 1688 653 1941 653 
Q 2256 653 2472 879 
Q 2688 1106 2688 1447 
L 2688 1575 
L 2106 1575 
z
M 3816 1997 
L 3816 0 
L 2688 0 
L 2688 519 
Q 2463 200 2181 54 
Q 1900 -91 1497 -91 
Q 953 -91 614 226 
Q 275 544 275 1050 
Q 275 1666 698 1953 
Q 1122 2241 2028 2241 
L 2688 2241 
L 2688 2328 
Q 2688 2594 2478 2717 
Q 2269 2841 1825 2841 
Q 1466 2841 1156 2769 
Q 847 2697 581 2553 
L 581 3406 
Q 941 3494 1303 3539 
Q 1666 3584 2028 3584 
Q 2975 3584 3395 3211 
Q 3816 2838 3816 1997 
z
" transform="scale(0.015625)"/>
     <path id="DejaVuSans-Bold-72" d="M 3138 2547 
Q 2991 2616 2845 2648 
Q 2700 2681 2553 2681 
Q 2122 2681 1889 2404 
Q 1656 2128 1656 1613 
L 1656 0 
L 538 0 
L 538 3500 
L 1656 3500 
L 1656 2925 
Q 1872 3269 2151 3426 
Q 2431 3584 2822 3584 
Q 2878 3584 2943 3579 
Q 3009 3575 3134 3559 
L 3138 2547 
z
" transform="scale(0.015625)"/>
     <path id="DejaVuSans-Bold-74" d="M 1759 4494 
L 1759 3500 
L 2913 3500 
L 2913 2700 
L 1759 2700 
L 1759 1216 
Q 1759 972 1856 886 
Q 1953 800 2241 800 
L 2816 800 
L 2816 0 
L 1856 0 
Q 1194 0 917 276 
Q 641 553 641 1216 
L 641 2700 
L 84 2700 
L 84 3500 
L 641 3500 
L 641 4494 
L 1759 4494 
z
" transform="scale(0.015625)"/>
     <path id="DejaVuSans-Bold-66" d="M 2841 4863 
L 2841 4128 
L 2222 4128 
Q 1984 4128 1890 4042 
Q 1797 3956 1797 3744 
L 1797 3500 
L 2753 3500 
L 2753 2700 
L 1797 2700 
L 1797 0 
L 678 0 
L 678 2700 
L 122 2700 
L 122 3500 
L 678 3500 
L 678 3744 
Q 678 4316 997 4589 
Q 1316 4863 1984 4863 
L 2841 4863 
z
" transform="scale(0.015625)"/>
     <path id="DejaVuSans-Bold-68" d="M 4056 2131 
L 4056 0 
L 2931 0 
L 2931 347 
L 2931 1625 
Q 2931 2084 2911 2256 
Q 2891 2428 2841 2509 
Q 2775 2619 2662 2680 
Q 2550 2741 2406 2741 
Q 2056 2741 1856 2470 
Q 1656 2200 1656 1722 
L 1656 0 
L 538 0 
L 538 4863 
L 1656 4863 
L 1656 2988 
Q 1909 3294 2193 3439 
Q 2478 3584 2822 3584 
Q 3428 3584 3742 3212 
Q 4056 2841 4056 2131 
z
" transform="scale(0.015625)"/>
     <path id="DejaVuSans-Bold-70" d="M 1656 506 
L 1656 -1331 
L 538 -1331 
L 538 3500 
L 1656 3500 
L 1656 2988 
Q 1888 3294 2169 3439 
Q 2450 3584 2816 3584 
Q 3463 3584 3878 3070 
Q 4294 2556 4294 1747 
Q 4294 938 3878 423 
Q 3463 -91 2816 -91 
Q 2450 -91 2169 54 
Q 1888 200 1656 506 
z
M 2400 2772 
Q 2041 2772 1848 2508 
Q 1656 2244 1656 1747 
Q 1656 1250 1848 986 
Q 2041 722 2400 722 
Q 2759 722 2948 984 
Q 3138 1247 3138 1747 
Q 3138 2247 2948 2509 
Q 2759 2772 2400 2772 
z
" transform="scale(0.015625)"/>
     <path id="DejaVuSans-Bold-6f" d="M 2203 2784 
Q 1831 2784 1636 2517 
Q 1441 2250 1441 1747 
Q 1441 1244 1636 976 
Q 1831 709 2203 709 
Q 2569 709 2762 976 
Q 2956 1244 2956 1747 
Q 2956 2250 2762 2517 
Q 2569 2784 2203 2784 
z
M 2203 3584 
Q 3106 3584 3614 3096 
Q 4122 2609 4122 1747 
Q 4122 884 3614 396 
Q 3106 -91 2203 -91 
Q 1297 -91 786 396 
Q 275 884 275 1747 
Q 275 2609 786 3096 
Q 1297 3584 2203 3584 
z
" transform="scale(0.015625)"/>
     <path id="DejaVuSans-Bold-64" d="M 2919 2988 
L 2919 4863 
L 4044 4863 
L 4044 0 
L 2919 0 
L 2919 506 
Q 2688 197 2409 53 
Q 2131 -91 1766 -91 
Q 1119 -91 703 423 
Q 288 938 288 1747 
Q 288 2556 703 3070 
Q 1119 3584 1766 3584 
Q 2128 3584 2408 3439 
Q 2688 3294 2919 2988 
z
M 2181 722 
Q 2541 722 2730 984 
Q 2919 1247 2919 1747 
Q 2919 2247 2730 2509 
Q 2541 2772 2181 2772 
Q 1825 2772 1636 2509 
Q 1447 2247 1447 1747 
Q 1447 1247 1636 984 
Q 1825 722 2181 722 
z
" transform="scale(0.015625)"/>
     <path id="DejaVuSans-Bold-71" d="M 2181 2772 
Q 1825 2772 1636 2509 
Q 1447 2247 1447 1747 
Q 1447 1247 1636 984 
Q 1825 722 2181 722 
Q 2541 722 2730 984 
Q 2919 1247 2919 1747 
Q 2919 2247 2730 2509 
Q 2541 2772 2181 2772 
z
M 2919 506 
Q 2688 197 2409 53 
Q 2131 -91 1766 -91 
Q 1119 -91 703 423 
Q 288 938 288 1747 
Q 288 2556 703 3067 
Q 1119 3578 1766 3578 
Q 2131 3578 2409 3434 
Q 2688 3291 2919 2981 
L 2919 3500 
L 4044 3500 
L 4044 -1331 
L 2919 -1331 
L 2919 506 
z
" transform="scale(0.015625)"/>
     <path id="DejaVuSans-Bold-75" d="M 500 1363 
L 500 3500 
L 1625 3500 
L 1625 3150 
Q 1625 2866 1622 2436 
Q 1619 2006 1619 1863 
Q 1619 1441 1641 1255 
Q 1663 1069 1716 984 
Q 1784 875 1895 815 
Q 2006 756 2150 756 
Q 2500 756 2700 1025 
Q 2900 1294 2900 1772 
L 2900 3500 
L 4019 3500 
L 4019 0 
L 2900 0 
L 2900 506 
Q 2647 200 2364 54 
Q 2081 -91 1741 -91 
Q 1134 -91 817 281 
Q 500 653 500 1363 
z
" transform="scale(0.015625)"/>
     <path id="DejaVuSans-Bold-63" d="M 3366 3391 
L 3366 2478 
Q 3138 2634 2908 2709 
Q 2678 2784 2431 2784 
Q 1963 2784 1702 2511 
Q 1441 2238 1441 1747 
Q 1441 1256 1702 982 
Q 1963 709 2431 709 
Q 2694 709 2930 787 
Q 3166 866 3366 1019 
L 3366 103 
Q 3103 6 2833 -42 
Q 2563 -91 2291 -91 
Q 1344 -91 809 395 
Q 275 881 275 1747 
Q 275 2613 809 3098 
Q 1344 3584 2291 3584 
Q 2566 3584 2833 3536 
Q 3100 3488 3366 3391 
z
" transform="scale(0.015625)"/>
     <path id="DejaVuSans-Bold-79" d="M 78 3500 
L 1197 3500 
L 2138 1125 
L 2938 3500 
L 4056 3500 
L 2584 -331 
Q 2363 -916 2067 -1148 
Q 1772 -1381 1288 -1381 
L 641 -1381 
L 641 -647 
L 991 -647 
Q 1275 -647 1404 -556 
Q 1534 -466 1606 -231 
L 1638 -134 
L 78 3500 
z
" transform="scale(0.015625)"/>
    </defs>
    <use xlink:href="#DejaVuSans-Bold-41"/>
    <use xlink:href="#DejaVuSans-Bold-20" transform="translate(77.392578 0)"/>
    <use xlink:href="#DejaVuSans-Bold-73" transform="translate(112.207031 0)"/>
    <use xlink:href="#DejaVuSans-Bold-69" transform="translate(171.728516 0)"/>
    <use xlink:href="#DejaVuSans-Bold-6e" transform="translate(206.005859 0)"/>
    <use xlink:href="#DejaVuSans-Bold-67" transform="translate(277.197266 0)"/>
    <use xlink:href="#DejaVuSans-Bold-6c" transform="translate(348.779297 0)"/>
    <use xlink:href="#DejaVuSans-Bold-65" transform="translate(383.056641 0)"/>
    <use xlink:href="#DejaVuSans-Bold-20" transform="translate(450.878906 0)"/>
    <use xlink:href="#DejaVuSans-Bold-76" transform="translate(485.693359 0)"/>
    <use xlink:href="#DejaVuSans-Bold-61" transform="translate(550.878906 0)"/>
    <use xlink:href="#DejaVuSans-Bold-67" transform="translate(618.359375 0)"/>
    <use xlink:href="#DejaVuSans-Bold-72" transform="translate(689.941406 0)"/>
    <use xlink:href="#DejaVuSans-Bold-61" transform="translate(739.257812 0)"/>
    <use xlink:href="#DejaVuSans-Bold-6e" transform="translate(806.738281 0)"/>
    <use xlink:href="#DejaVuSans-Bold-74" transform="translate(877.929688 0)"/>
    <use xlink:href="#DejaVuSans-Bold-20" transform="translate(925.732422 0)"/>
    <use xlink:href="#DejaVuSans-Bold-69" transform="translate(960.546875 0)"/>
    <use xlink:href="#DejaVuSans-Bold-6e" transform="translate(994.824219 0)"/>
    <use xlink:href="#DejaVuSans-Bold-66" transform="translate(1066.015625 0)"/>
    <use xlink:href="#DejaVuSans-Bold-6c" transform="translate(1109.521484 0)"/>
    <use xlink:href="#DejaVuSans-Bold-61" transform="translate(1143.798828 0)"/>
    <use xlink:href="#DejaVuSans-Bold-74" transform="translate(1211.279297 0)"/>
    <use xlink:href="#DejaVuSans-Bold-65" transform="translate(1259.082031 0)"/>
    <use xlink:href="#DejaVuSans-Bold-73" transform="translate(1326.904297 0)"/>
    <use xlink:href="#DejaVuSans-Bold-20" transform="translate(1386.425781 0)"/>
    <use xlink:href="#DejaVuSans-Bold-74" transform="translate(1421.240234 0)"/>
    <use xlink:href="#DejaVuSans-Bold-68" transform="translate(1469.042969 0)"/>
    <use xlink:href="#DejaVuSans-Bold-65" transform="translate(1540.234375 0)"/>
    <use xlink:href="#DejaVuSans-Bold-20" transform="translate(1608.056641 0)"/>
    <use xlink:href="#DejaVuSans-Bold-70" transform="translate(1642.871094 0)"/>
    <use xlink:href="#DejaVuSans-Bold-6f" transform="translate(1714.453125 0)"/>
    <use xlink:href="#DejaVuSans-Bold-6f" transform="translate(1783.154297 0)"/>
    <use xlink:href="#DejaVuSans-Bold-6c" transform="translate(1851.855469 0)"/>
    <use xlink:href="#DejaVuSans-Bold-65" transform="translate(1886.132812 0)"/>
    <use xlink:href="#DejaVuSans-Bold-64" transform="translate(1953.955078 0)"/>
    <use xlink:href="#DejaVuSans-Bold-20" transform="translate(2025.537109 0)"/>
    <use xlink:href="#DejaVuSans-Bold-66" transform="translate(2060.351562 0)"/>
    <use xlink:href="#DejaVuSans-Bold-72" transform="translate(2103.857422 0)"/>
    <use xlink:href="#DejaVuSans-Bold-65" transform="translate(2153.173828 0)"/>
    <use xlink:href="#DejaVuSans-Bold-71" transform="translate(2220.996094 0)"/>
    <use xlink:href="#DejaVuSans-Bold-75" transform="translate(2292.578125 0)"/>
    <use xlink:href="#DejaVuSans-Bold-65" transform="translate(2363.769531 0)"/>
    <use xlink:href="#DejaVuSans-Bold-6e" transform="translate(2431.591797 0)"/>
    <use xlink:href="#DejaVuSans-Bold-63" transform="translate(2502.783203 0)"/>
    <use xlink:href="#DejaVuSans-Bold-79" transform="translate(2562.060547 0)"/>
   </g>
  </g>
  <g id="text_27">
   <!-- Pooling five winters, the Varied Thrush looks ~16% findable. But it appeared in only 1 of 5 years (occupancy 0.2): -->
   <g style="fill: #999999" transform="translate(7.2 284.249816) scale(0.083 -0.083)">
    <defs>
     <path id="DejaVuSans-50" d="M 1259 4147 
L 1259 2394 
L 2053 2394 
Q 2494 2394 2734 2622 
Q 2975 2850 2975 3272 
Q 2975 3691 2734 3919 
Q 2494 4147 2053 4147 
L 1259 4147 
z
M 628 4666 
L 2053 4666 
Q 2838 4666 3239 4311 
Q 3641 3956 3641 3272 
Q 3641 2581 3239 2228 
Q 2838 1875 2053 1875 
L 1259 1875 
L 1259 0 
L 628 0 
L 628 4666 
z
" transform="scale(0.015625)"/>
     <path id="DejaVuSans-2c" d="M 750 794 
L 1409 794 
L 1409 256 
L 897 -744 
L 494 -744 
L 750 256 
L 750 794 
z
" transform="scale(0.015625)"/>
     <path id="DejaVuSans-7e" d="M 4684 2553 
L 4684 1997 
Q 4356 1750 4076 1644 
Q 3797 1538 3494 1538 
Q 3150 1538 2694 1722 
Q 2659 1734 2644 1741 
Q 2622 1750 2575 1766 
Q 2091 1959 1797 1959 
Q 1522 1959 1253 1839 
Q 984 1719 678 1459 
L 678 2016 
Q 1006 2263 1286 2370 
Q 1566 2478 1869 2478 
Q 2213 2478 2672 2291 
Q 2703 2278 2719 2272 
Q 2744 2263 2788 2247 
Q 3272 2053 3566 2053 
Q 3834 2053 4098 2172 
Q 4363 2291 4684 2553 
z
" transform="scale(0.015625)"/>
     <path id="DejaVuSans-42" d="M 1259 2228 
L 1259 519 
L 2272 519 
Q 2781 519 3026 730 
Q 3272 941 3272 1375 
Q 3272 1813 3026 2020 
Q 2781 2228 2272 2228 
L 1259 2228 
z
M 1259 4147 
L 1259 2741 
L 2194 2741 
Q 2656 2741 2882 2914 
Q 3109 3088 3109 3444 
Q 3109 3797 2882 3972 
Q 2656 4147 2194 4147 
L 1259 4147 
z
M 628 4666 
L 2241 4666 
Q 2963 4666 3353 4366 
Q 3744 4066 3744 3513 
Q 3744 3084 3544 2831 
Q 3344 2578 2956 2516 
Q 3422 2416 3680 2098 
Q 3938 1781 3938 1306 
Q 3938 681 3513 340 
Q 3088 0 2303 0 
L 628 0 
L 628 4666 
z
" transform="scale(0.015625)"/>
     <path id="DejaVuSans-3a" d="M 750 794 
L 1409 794 
L 1409 0 
L 750 0 
L 750 794 
z
M 750 3309 
L 1409 3309 
L 1409 2516 
L 750 2516 
L 750 3309 
z
" transform="scale(0.015625)"/>
    </defs>
    <use xlink:href="#DejaVuSans-50"/>
    <use xlink:href="#DejaVuSans-6f" transform="translate(56.677734 0)"/>
    <use xlink:href="#DejaVuSans-6f" transform="translate(117.859375 0)"/>
    <use xlink:href="#DejaVuSans-6c" transform="translate(179.041016 0)"/>
    <use xlink:href="#DejaVuSans-69" transform="translate(206.824219 0)"/>
    <use xlink:href="#DejaVuSans-6e" transform="translate(234.607422 0)"/>
    <use xlink:href="#DejaVuSans-67" transform="translate(297.986328 0)"/>
    <use xlink:href="#DejaVuSans-20" transform="translate(361.462891 0)"/>
    <use xlink:href="#DejaVuSans-66" transform="translate(393.25 0)"/>
    <use xlink:href="#DejaVuSans-69" transform="translate(428.455078 0)"/>
    <use xlink:href="#DejaVuSans-76" transform="translate(456.238281 0)"/>
    <use xlink:href="#DejaVuSans-65" transform="translate(515.417969 0)"/>
    <use xlink:href="#DejaVuSans-20" transform="translate(576.941406 0)"/>
    <use xlink:href="#DejaVuSans-77" transform="translate(608.728516 0)"/>
    <use xlink:href="#DejaVuSans-69" transform="translate(690.515625 0)"/>
    <use xlink:href="#DejaVuSans-6e" transform="translate(718.298828 0)"/>
    <use xlink:href="#DejaVuSans-74" transform="translate(781.677734 0)"/>
    <use xlink:href="#DejaVuSans-65" transform="translate(820.886719 0)"/>
    <use xlink:href="#DejaVuSans-72" transform="translate(882.410156 0)"/>
    <use xlink:href="#DejaVuSans-73" transform="translate(923.523438 0)"/>
    <use xlink:href="#DejaVuSans-2c" transform="translate(975.623047 0)"/>
    <use xlink:href="#DejaVuSans-20" transform="translate(1007.410156 0)"/>
    <use xlink:href="#DejaVuSans-74" transform="translate(1039.197266 0)"/>
    <use xlink:href="#DejaVuSans-68" transform="translate(1078.40625 0)"/>
    <use xlink:href="#DejaVuSans-65" transform="translate(1141.785156 0)"/>
    <use xlink:href="#DejaVuSans-20" transform="translate(1203.308594 0)"/>
    <use xlink:href="#DejaVuSans-56" transform="translate(1235.095703 0)"/>
    <use xlink:href="#DejaVuSans-61" transform="translate(1295.753906 0)"/>
    <use xlink:href="#DejaVuSans-72" transform="translate(1357.033203 0)"/>
    <use xlink:href="#DejaVuSans-69" transform="translate(1398.146484 0)"/>
    <use xlink:href="#DejaVuSans-65" transform="translate(1425.929688 0)"/>
    <use xlink:href="#DejaVuSans-64" transform="translate(1487.453125 0)"/>
    <use xlink:href="#DejaVuSans-20" transform="translate(1550.929688 0)"/>
    <use xlink:href="#DejaVuSans-54" transform="translate(1582.716797 0)"/>
    <use xlink:href="#DejaVuSans-68" transform="translate(1643.800781 0)"/>
    <use xlink:href="#DejaVuSans-72" transform="translate(1707.179688 0)"/>
    <use xlink:href="#DejaVuSans-75" transform="translate(1748.292969 0)"/>
    <use xlink:href="#DejaVuSans-73" transform="translate(1811.671875 0)"/>
    <use xlink:href="#DejaVuSans-68" transform="translate(1863.771484 0)"/>
    <use xlink:href="#DejaVuSans-20" transform="translate(1927.150391 0)"/>
    <use xlink:href="#DejaVuSans-6c" transform="translate(1958.9375 0)"/>
    <use xlink:href="#DejaVuSans-6f" transform="translate(1986.720703 0)"/>
    <use xlink:href="#DejaVuSans-6f" transform="translate(2047.902344 0)"/>
    <use xlink:href="#DejaVuSans-6b" transform="translate(2109.083984 0)"/>
    <use xlink:href="#DejaVuSans-73" transform="translate(2166.994141 0)"/>
    <use xlink:href="#DejaVuSans-20" transform="translate(2219.09375 0)"/>
    <use xlink:href="#DejaVuSans-7e" transform="translate(2250.880859 0)"/>
    <use xlink:href="#DejaVuSans-31" transform="translate(2334.669922 0)"/>
    <use xlink:href="#DejaVuSans-36" transform="translate(2398.292969 0)"/>
    <use xlink:href="#DejaVuSans-25" transform="translate(2461.916016 0)"/>
    <use xlink:href="#DejaVuSans-20" transform="translate(2556.935547 0)"/>
    <use xlink:href="#DejaVuSans-66" transform="translate(2588.722656 0)"/>
    <use xlink:href="#DejaVuSans-69" transform="translate(2623.927734 0)"/>
    <use xlink:href="#DejaVuSans-6e" transform="translate(2651.710938 0)"/>
    <use xlink:href="#DejaVuSans-64" transform="translate(2715.089844 0)"/>
    <use xlink:href="#DejaVuSans-61" transform="translate(2778.566406 0)"/>
    <use xlink:href="#DejaVuSans-62" transform="translate(2839.845703 0)"/>
    <use xlink:href="#DejaVuSans-6c" transform="translate(2903.322266 0)"/>
    <use xlink:href="#DejaVuSans-65" transform="translate(2931.105469 0)"/>
    <use xlink:href="#DejaVuSans-2e" transform="translate(2992.628906 0)"/>
    <use xlink:href="#DejaVuSans-20" transform="translate(3024.416016 0)"/>
    <use xlink:href="#DejaVuSans-42" transform="translate(3056.203125 0)"/>
    <use xlink:href="#DejaVuSans-75" transform="translate(3124.806641 0)"/>
    <use xlink:href="#DejaVuSans-74" transform="translate(3188.185547 0)"/>
    <use xlink:href="#DejaVuSans-20" transform="translate(3227.394531 0)"/>
    <use xlink:href="#DejaVuSans-69" transform="translate(3259.181641 0)"/>
    <use xlink:href="#DejaVuSans-74" transform="translate(3286.964844 0)"/>
    <use xlink:href="#DejaVuSans-20" transform="translate(3326.173828 0)"/>
    <use xlink:href="#DejaVuSans-61" transform="translate(3357.960938 0)"/>
    <use xlink:href="#DejaVuSans-70" transform="translate(3419.240234 0)"/>
    <use xlink:href="#DejaVuSans-70" transform="translate(3482.716797 0)"/>
    <use xlink:href="#DejaVuSans-65" transform="translate(3546.193359 0)"/>
    <use xlink:href="#DejaVuSans-61" transform="translate(3607.716797 0)"/>
    <use xlink:href="#DejaVuSans-72" transform="translate(3668.996094 0)"/>
    <use xlink:href="#DejaVuSans-65" transform="translate(3707.859375 0)"/>
    <use xlink:href="#DejaVuSans-64" transform="translate(3769.382812 0)"/>
    <use xlink:href="#DejaVuSans-20" transform="translate(3832.859375 0)"/>
    <use xlink:href="#DejaVuSans-69" transform="translate(3864.646484 0)"/>
    <use xlink:href="#DejaVuSans-6e" transform="translate(3892.429688 0)"/>
    <use xlink:href="#DejaVuSans-20" transform="translate(3955.808594 0)"/>
    <use xlink:href="#DejaVuSans-6f" transform="translate(3987.595703 0)"/>
    <use xlink:href="#DejaVuSans-6e" transform="translate(4048.777344 0)"/>
    <use xlink:href="#DejaVuSans-6c" transform="translate(4112.15625 0)"/>
    <use xlink:href="#DejaVuSans-79" transform="translate(4139.939453 0)"/>
    <use xlink:href="#DejaVuSans-20" transform="translate(4199.119141 0)"/>
    <use xlink:href="#DejaVuSans-31" transform="translate(4230.90625 0)"/>
    <use xlink:href="#DejaVuSans-20" transform="translate(4294.529297 0)"/>
    <use xlink:href="#DejaVuSans-6f" transform="translate(4326.316406 0)"/>
    <use xlink:href="#DejaVuSans-66" transform="translate(4387.498047 0)"/>
    <use xlink:href="#DejaVuSans-20" transform="translate(4422.703125 0)"/>
    <use xlink:href="#DejaVuSans-35" transform="translate(4454.490234 0)"/>
    <use xlink:href="#DejaVuSans-20" transform="translate(4518.113281 0)"/>
    <use xlink:href="#DejaVuSans-79" transform="translate(4549.900391 0)"/>
    <use xlink:href="#DejaVuSans-65" transform="translate(4609.080078 0)"/>
    <use xlink:href="#DejaVuSans-61" transform="translate(4670.603516 0)"/>
    <use xlink:href="#DejaVuSans-72" transform="translate(4731.882812 0)"/>
    <use xlink:href="#DejaVuSans-73" transform="translate(4772.996094 0)"/>
    <use xlink:href="#DejaVuSans-20" transform="translate(4825.095703 0)"/>
    <use xlink:href="#DejaVuSans-28" transform="translate(4856.882812 0)"/>
    <use xlink:href="#DejaVuSans-6f" transform="translate(4895.896484 0)"/>
    <use xlink:href="#DejaVuSans-63" transform="translate(4957.078125 0)"/>
    <use xlink:href="#DejaVuSans-63" transform="translate(5012.058594 0)"/>
    <use xlink:href="#DejaVuSans-75" transform="translate(5067.039062 0)"/>
    <use xlink:href="#DejaVuSans-70" transform="translate(5130.417969 0)"/>
    <use xlink:href="#DejaVuSans-61" transform="translate(5193.894531 0)"/>
    <use xlink:href="#DejaVuSans-6e" transform="translate(5255.173828 0)"/>
    <use xlink:href="#DejaVuSans-63" transform="translate(5318.552734 0)"/>
    <use xlink:href="#DejaVuSans-79" transform="translate(5373.533203 0)"/>
    <use xlink:href="#DejaVuSans-20" transform="translate(5432.712891 0)"/>
    <use xlink:href="#DejaVuSans-30" transform="translate(5464.5 0)"/>
    <use xlink:href="#DejaVuSans-2e" transform="translate(5528.123047 0)"/>
    <use xlink:href="#DejaVuSans-32" transform="translate(5559.910156 0)"/>
    <use xlink:href="#DejaVuSans-29" transform="translate(5623.533203 0)"/>
    <use xlink:href="#DejaVuSans-3a" transform="translate(5662.546875 0)"/>
   </g>
   <!-- the planner down-weights it accordingly. The Cardinal's pooled number is honest because every year resembles it. -->
   <g style="fill: #999999" transform="translate(7.2 293.544) scale(0.083 -0.083)">
    <defs>
     <path id="DejaVuSans-27" d="M 1147 4666 
L 1147 2931 
L 616 2931 
L 616 4666 
L 1147 4666 
z
" transform="scale(0.015625)"/>
     <path id="DejaVuSans-6d" d="M 3328 2828 
Q 3544 3216 3844 3400 
Q 4144 3584 4550 3584 
Q 5097 3584 5394 3201 
Q 5691 2819 5691 2113 
L 5691 0 
L 5113 0 
L 5113 2094 
Q 5113 2597 4934 2840 
Q 4756 3084 4391 3084 
Q 3944 3084 3684 2787 
Q 3425 2491 3425 1978 
L 3425 0 
L 2847 0 
L 2847 2094 
Q 2847 2600 2669 2842 
Q 2491 3084 2119 3084 
Q 1678 3084 1418 2786 
Q 1159 2488 1159 1978 
L 1159 0 
L 581 0 
L 581 3500 
L 1159 3500 
L 1159 2956 
Q 1356 3278 1631 3431 
Q 1906 3584 2284 3584 
Q 2666 3584 2933 3390 
Q 3200 3197 3328 2828 
z
" transform="scale(0.015625)"/>
    </defs>
    <use xlink:href="#DejaVuSans-74"/>
    <use xlink:href="#DejaVuSans-68" transform="translate(39.208984 0)"/>
    <use xlink:href="#DejaVuSans-65" transform="translate(102.587891 0)"/>
    <use xlink:href="#DejaVuSans-20" transform="translate(164.111328 0)"/>
    <use xlink:href="#DejaVuSans-70" transform="translate(195.898438 0)"/>
    <use xlink:href="#DejaVuSans-6c" transform="translate(259.375 0)"/>
    <use xlink:href="#DejaVuSans-61" transform="translate(287.158203 0)"/>
    <use xlink:href="#DejaVuSans-6e" transform="translate(348.4375 0)"/>
    <use xlink:href="#DejaVuSans-6e" transform="translate(411.816406 0)"/>
    <use xlink:href="#DejaVuSans-65" transform="translate(475.195312 0)"/>
    <use xlink:href="#DejaVuSans-72" transform="translate(536.71875 0)"/>
    <use xlink:href="#DejaVuSans-20" transform="translate(577.832031 0)"/>
    <use xlink:href="#DejaVuSans-64" transform="translate(609.619141 0)"/>
    <use xlink:href="#DejaVuSans-6f" transform="translate(673.095703 0)"/>
    <use xlink:href="#DejaVuSans-77" transform="translate(734.277344 0)"/>
    <use xlink:href="#DejaVuSans-6e" transform="translate(816.064453 0)"/>
    <use xlink:href="#DejaVuSans-2d" transform="translate(879.443359 0)"/>
    <use xlink:href="#DejaVuSans-77" transform="translate(915.527344 0)"/>
    <use xlink:href="#DejaVuSans-65" transform="translate(997.314453 0)"/>
    <use xlink:href="#DejaVuSans-69" transform="translate(1058.837891 0)"/>
    <use xlink:href="#DejaVuSans-67" transform="translate(1086.621094 0)"/>
    <use xlink:href="#DejaVuSans-68" transform="translate(1150.097656 0)"/>
    <use xlink:href="#DejaVuSans-74" transform="translate(1213.476562 0)"/>
    <use xlink:href="#DejaVuSans-73" transform="translate(1252.685547 0)"/>
    <use xlink:href="#DejaVuSans-20" transform="translate(1304.785156 0)"/>
    <use xlink:href="#DejaVuSans-69" transform="translate(1336.572266 0)"/>
    <use xlink:href="#DejaVuSans-74" transform="translate(1364.355469 0)"/>
    <use xlink:href="#DejaVuSans-20" transform="translate(1403.564453 0)"/>
    <use xlink:href="#DejaVuSans-61" transform="translate(1435.351562 0)"/>
    <use xlink:href="#DejaVuSans-63" transform="translate(1496.630859 0)"/>
    <use xlink:href="#DejaVuSans-63" transform="translate(1551.611328 0)"/>
    <use xlink:href="#DejaVuSans-6f" transform="translate(1606.591797 0)"/>
    <use xlink:href="#DejaVuSans-72" transform="translate(1667.773438 0)"/>
    <use xlink:href="#DejaVuSans-64" transform="translate(1707.136719 0)"/>
    <use xlink:href="#DejaVuSans-69" transform="translate(1770.613281 0)"/>
    <use xlink:href="#DejaVuSans-6e" transform="translate(1798.396484 0)"/>
    <use xlink:href="#DejaVuSans-67" transform="translate(1861.775391 0)"/>
    <use xlink:href="#DejaVuSans-6c" transform="translate(1925.251953 0)"/>
    <use xlink:href="#DejaVuSans-79" transform="translate(1953.035156 0)"/>
    <use xlink:href="#DejaVuSans-2e" transform="translate(1997.964844 0)"/>
    <use xlink:href="#DejaVuSans-20" transform="translate(2029.751953 0)"/>
    <use xlink:href="#DejaVuSans-54" transform="translate(2061.539062 0)"/>
    <use xlink:href="#DejaVuSans-68" transform="translate(2122.623047 0)"/>
    <use xlink:href="#DejaVuSans-65" transform="translate(2186.001953 0)"/>
    <use xlink:href="#DejaVuSans-20" transform="translate(2247.525391 0)"/>
    <use xlink:href="#DejaVuSans-43" transform="translate(2279.3125 0)"/>
    <use xlink:href="#DejaVuSans-61" transform="translate(2349.136719 0)"/>
    <use xlink:href="#DejaVuSans-72" transform="translate(2410.416016 0)"/>
    <use xlink:href="#DejaVuSans-64" transform="translate(2449.779297 0)"/>
    <use xlink:href="#DejaVuSans-69" transform="translate(2513.255859 0)"/>
    <use xlink:href="#DejaVuSans-6e" transform="translate(2541.039062 0)"/>
    <use xlink:href="#DejaVuSans-61" transform="translate(2604.417969 0)"/>
    <use xlink:href="#DejaVuSans-6c" transform="translate(2665.697266 0)"/>
    <use xlink:href="#DejaVuSans-27" transform="translate(2693.480469 0)"/>
    <use xlink:href="#DejaVuSans-73" transform="translate(2720.970703 0)"/>
    <use xlink:href="#DejaVuSans-20" transform="translate(2773.070312 0)"/>
    <use xlink:href="#DejaVuSans-70" transform="translate(2804.857422 0)"/>
    <use xlink:href="#DejaVuSans-6f" transform="translate(2868.333984 0)"/>
    <use xlink:href="#DejaVuSans-6f" transform="translate(2929.515625 0)"/>
    <use xlink:href="#DejaVuSans-6c" transform="translate(2990.697266 0)"/>
    <use xlink:href="#DejaVuSans-65" transform="translate(3018.480469 0)"/>
    <use xlink:href="#DejaVuSans-64" transform="translate(3080.003906 0)"/>
    <use xlink:href="#DejaVuSans-20" transform="translate(3143.480469 0)"/>
    <use xlink:href="#DejaVuSans-6e" transform="translate(3175.267578 0)"/>
    <use xlink:href="#DejaVuSans-75" transform="translate(3238.646484 0)"/>
    <use xlink:href="#DejaVuSans-6d" transform="translate(3302.025391 0)"/>
    <use xlink:href="#DejaVuSans-62" transform="translate(3399.4375 0)"/>
    <use xlink:href="#DejaVuSans-65" transform="translate(3462.914062 0)"/>
    <use xlink:href="#DejaVuSans-72" transform="translate(3524.4375 0)"/>
    <use xlink:href="#DejaVuSans-20" transform="translate(3565.550781 0)"/>
    <use xlink:href="#DejaVuSans-69" transform="translate(3597.337891 0)"/>
    <use xlink:href="#DejaVuSans-73" transform="translate(3625.121094 0)"/>
    <use xlink:href="#DejaVuSans-20" transform="translate(3677.220703 0)"/>
    <use xlink:href="#DejaVuSans-68" transform="translate(3709.007812 0)"/>
    <use xlink:href="#DejaVuSans-6f" transform="translate(3772.386719 0)"/>
    <use xlink:href="#DejaVuSans-6e" transform="translate(3833.568359 0)"/>
    <use xlink:href="#DejaVuSans-65" transform="translate(3896.947266 0)"/>
    <use xlink:href="#DejaVuSans-73" transform="translate(3958.470703 0)"/>
    <use xlink:href="#DejaVuSans-74" transform="translate(4010.570312 0)"/>
    <use xlink:href="#DejaVuSans-20" transform="translate(4049.779297 0)"/>
    <use xlink:href="#DejaVuSans-62" transform="translate(4081.566406 0)"/>
    <use xlink:href="#DejaVuSans-65" transform="translate(4145.042969 0)"/>
    <use xlink:href="#DejaVuSans-63" transform="translate(4206.566406 0)"/>
    <use xlink:href="#DejaVuSans-61" transform="translate(4261.546875 0)"/>
    <use xlink:href="#DejaVuSans-75" transform="translate(4322.826172 0)"/>
    <use xlink:href="#DejaVuSans-73" transform="translate(4386.205078 0)"/>
    <use xlink:href="#DejaVuSans-65" transform="translate(4438.304688 0)"/>
    <use xlink:href="#DejaVuSans-20" transform="translate(4499.828125 0)"/>
    <use xlink:href="#DejaVuSans-65" transform="translate(4531.615234 0)"/>
    <use xlink:href="#DejaVuSans-76" transform="translate(4593.138672 0)"/>
    <use xlink:href="#DejaVuSans-65" transform="translate(4652.318359 0)"/>
    <use xlink:href="#DejaVuSans-72" transform="translate(4713.841797 0)"/>
    <use xlink:href="#DejaVuSans-79" transform="translate(4754.955078 0)"/>
    <use xlink:href="#DejaVuSans-20" transform="translate(4814.134766 0)"/>
    <use xlink:href="#DejaVuSans-79" transform="translate(4845.921875 0)"/>
    <use xlink:href="#DejaVuSans-65" transform="translate(4905.101562 0)"/>
    <use xlink:href="#DejaVuSans-61" transform="translate(4966.625 0)"/>
    <use xlink:href="#DejaVuSans-72" transform="translate(5027.904297 0)"/>
    <use xlink:href="#DejaVuSans-20" transform="translate(5069.017578 0)"/>
    <use xlink:href="#DejaVuSans-72" transform="translate(5100.804688 0)"/>
    <use xlink:href="#DejaVuSans-65" transform="translate(5139.667969 0)"/>
    <use xlink:href="#DejaVuSans-73" transform="translate(5201.191406 0)"/>
    <use xlink:href="#DejaVuSans-65" transform="translate(5253.291016 0)"/>
    <use xlink:href="#DejaVuSans-6d" transform="translate(5314.814453 0)"/>
    <use xlink:href="#DejaVuSans-62" transform="translate(5412.226562 0)"/>
    <use xlink:href="#DejaVuSans-6c" transform="translate(5475.703125 0)"/>
    <use xlink:href="#DejaVuSans-65" transform="translate(5503.486328 0)"/>
    <use xlink:href="#DejaVuSans-73" transform="translate(5565.009766 0)"/>
    <use xlink:href="#DejaVuSans-20" transform="translate(5617.109375 0)"/>
    <use xlink:href="#DejaVuSans-69" transform="translate(5648.896484 0)"/>
    <use xlink:href="#DejaVuSans-74" transform="translate(5676.679688 0)"/>
    <use xlink:href="#DejaVuSans-2e" transform="translate(5715.888672 0)"/>
   </g>
  </g>
 </g>
 <defs>
  <clipPath id="pd24ebb316f">
   <rect x="84.96" y="86.904" width="236.886792" height="153.504"/>
  </clipPath>
  <clipPath id="p7c38970641">
   <rect x="350.273208" y="86.904" width="236.886792" height="153.504"/>
  </clipPath>
 </defs>
</svg>
