<?xml version="1.0" encoding="utf-8" standalone="no"?>
<!DOCTYPE svg PUBLIC "-//W3C//DTD SVG 1.1//EN"
  "http://www.w3.org/Graphics/SVG/1.1/DTD/svg11.dtd">
<svg xmlns:xlink="http://www.w3.org/1999/xlink" width="496.613141pt" height="437.326141pt" viewBox="0 0 496.613141 437.326141" xmlns="http://www.w3.org/2000/svg" version="1.1">
 <metadata>
  <rdf:RDF xmlns:dc="http://purl.org/dc/elements/1.1/" xmlns:cc="http://creativecommons.org/ns#" xmlns:rdf="http://www.w3.org/1999/02/22-rdf-syntax-ns#">
   <cc:Work>
    <dc:type rdf:resource="http://purl.org/dc/dcmitype/StillImage"/>
    <dc:date>2026-06-03T20:34:14.513263</dc:date>
    <dc:format>image/svg+xml</dc:format>
    <dc:creator>
     <cc:Agent>
      <dc:title>Matplotlib v3.10.8, https://matplotlib.org/</dc:title>
     </cc:Agent>
    </dc:creator>
   </cc:Work>
  </rdf:RDF>
 </metadata>
 <defs>
  <style type="text/css">*{stroke-linejoin: round; stroke-linecap: butt}</style>
 </defs>
 <g id="figure_1">
  <g id="patch_1">
   <path d="M 0 437.326141 
L 496.613141 437.326141 
L 496.613141 0 
L 0 0 
z
" style="fill: #ffffff"/>
  </g>
  <g id="axes_1">
   <g id="patch_2">
    <path d="M 69.408 135.692308 
L 471.168 135.692308 
L 471.168 50.4 
L 69.408 50.4 
z
" style="fill: #ffffff"/>
   </g>
   <g id="FillBetweenPolyCollection_1">
    <defs>
     <path id="mf168f2ef11" d="M 87.669818 -301.633833 
L 87.669818 -301.633833 
L 95.440805 -301.633833 
L 103.211791 -301.633833 
L 110.982778 -301.633833 
L 118.753764 -301.633833 
L 126.52475 -301.633833 
L 134.295737 -301.633833 
L 142.066723 -301.633833 
L 149.83771 -301.633833 
L 157.608696 -301.633833 
L 165.379683 -301.633833 
L 173.150669 -301.633833 
L 180.921656 -301.633833 
L 188.692642 -301.633833 
L 196.463629 -301.633833 
L 204.234615 -327.427878 
L 212.005602 -353.221922 
L 219.776588 -321.286438 
L 227.547574 -366.797735 
L 235.318561 -343.962522 
L 243.089547 -332.204553 
L 250.860534 -351.658647 
L 258.63152 -343.962522 
L 266.402507 -364.16485 
L 274.173493 -347.489912 
L 281.94448 -342.394792 
L 289.715466 -324.561873 
L 297.486453 -370.417952 
L 305.257439 -339.847232 
L 313.028426 -333.380349 
L 320.799412 -353.221922 
L 328.570398 -365.126866 
L 336.341385 -356.661128 
L 344.112371 -313.097853 
L 351.883358 -370.417952 
L 359.654344 -344.623907 
L 367.425331 -301.633833 
L 375.196317 -301.633833 
L 382.967304 -301.633833 
L 390.73829 -301.633833 
L 398.509277 -301.633833 
L 406.280263 -301.633833 
L 414.05125 -301.633833 
L 421.822236 -301.633833 
L 429.593222 -301.633833 
L 437.364209 -301.633833 
L 445.135195 -301.633833 
L 452.906182 -301.633833 
L 452.906182 -301.633833 
L 452.906182 -301.633833 
L 445.135195 -301.633833 
L 437.364209 -301.633833 
L 429.593222 -301.633833 
L 421.822236 -301.633833 
L 414.05125 -301.633833 
L 406.280263 -301.633833 
L 398.509277 -301.633833 
L 390.73829 -301.633833 
L 382.967304 -301.633833 
L 375.196317 -301.633833 
L 367.425331 -301.633833 
L 359.654344 -301.633833 
L 351.883358 -301.633833 
L 344.112371 -301.633833 
L 336.341385 -301.633833 
L 328.570398 -301.633833 
L 320.799412 -301.633833 
L 313.028426 -301.633833 
L 305.257439 -301.633833 
L 297.486453 -301.633833 
L 289.715466 -301.633833 
L 281.94448 -301.633833 
L 274.173493 -301.633833 
L 266.402507 -301.633833 
L 258.63152 -301.633833 
L 250.860534 -301.633833 
L 243.089547 -301.633833 
L 235.318561 -301.633833 
L 227.547574 -301.633833 
L 219.776588 -301.633833 
L 212.005602 -301.633833 
L 204.234615 -301.633833 
L 196.463629 -301.633833 
L 188.692642 -301.633833 
L 180.921656 -301.633833 
L 173.150669 -301.633833 
L 165.379683 -301.633833 
L 157.608696 -301.633833 
L 149.83771 -301.633833 
L 142.066723 -301.633833 
L 134.295737 -301.633833 
L 126.52475 -301.633833 
L 118.753764 -301.633833 
L 110.982778 -301.633833 
L 103.211791 -301.633833 
L 95.440805 -301.633833 
L 87.669818 -301.633833 
z
" style="stroke: #cccccc"/>
    </defs>
    <g clip-path="url(#p4593cc64f1)">
     <use xlink:href="#mf168f2ef11" x="0" y="437.326141" style="fill: #cccccc; stroke: #cccccc"/>
    </g>
   </g>
   <g id="matplotlib.axis_1">
    <g id="xtick_1">
     <g id="line2d_1">
      <defs>
       <path id="macab8aecbf" d="M 0 0 
L 0 3 
" style="stroke: #222222; stroke-width: 0.8"/>
      </defs>
      <g>
       <use xlink:href="#macab8aecbf" x="87.669818" y="135.692308" style="fill: #222222; stroke: #222222; stroke-width: 0.8"/>
      </g>
     </g>
    </g>
    <g id="xtick_2">
     <g id="line2d_2">
      <g>
       <use xlink:href="#macab8aecbf" x="118.753764" y="135.692308" style="fill: #222222; stroke: #222222; stroke-width: 0.8"/>
      </g>
     </g>
    </g>
    <g id="xtick_3">
     <g id="line2d_3">
      <g>
       <use xlink:href="#macab8aecbf" x="149.83771" y="135.692308" style="fill: #222222; stroke: #222222; stroke-width: 0.8"/>
      </g>
     </g>
    </g>
    <g id="xtick_4">
     <g id="line2d_4">
      <g>
       <use xlink:href="#macab8aecbf" x="180.921656" y="135.692308" style="fill: #222222; stroke: #222222; stroke-width: 0.8"/>
      </g>
     </g>
    </g>
    <g id="xtick_5">
     <g id="line2d_5">
      <g>
       <use xlink:href="#macab8aecbf" x="212.005602" y="135.692308" style="fill: #222222; stroke: #222222; stroke-width: 0.8"/>
      </g>
     </g>
    </g>
    <g id="xtick_6">
     <g id="line2d_6">
      <g>
       <use xlink:href="#macab8aecbf" x="243.089547" y="135.692308" style="fill: #222222; stroke: #222222; stroke-width: 0.8"/>
      </g>
     </g>
    </g>
    <g id="xtick_7">
     <g id="line2d_7">
      <g>
       <use xlink:href="#macab8aecbf" x="274.173493" y="135.692308" style="fill: #222222; stroke: #222222; stroke-width: 0.8"/>
      </g>
     </g>
    </g>
    <g id="xtick_8">
     <g id="line2d_8">
      <g>
       <use xlink:href="#macab8aecbf" x="305.257439" y="135.692308" style="fill: #222222; stroke: #222222; stroke-width: 0.8"/>
      </g>
     </g>
    </g>
    <g id="xtick_9">
     <g id="line2d_9">
      <g>
       <use xlink:href="#macab8aecbf" x="336.341385" y="135.692308" style="fill: #222222; stroke: #222222; stroke-width: 0.8"/>
      </g>
     </g>
    </g>
    <g id="xtick_10">
     <g id="line2d_10">
      <g>
       <use xlink:href="#macab8aecbf" x="367.425331" y="135.692308" style="fill: #222222; stroke: #222222; stroke-width: 0.8"/>
      </g>
     </g>
    </g>
    <g id="xtick_11">
     <g id="line2d_11">
      <g>
       <use xlink:href="#macab8aecbf" x="398.509277" y="135.692308" style="fill: #222222; stroke: #222222; stroke-width: 0.8"/>
      </g>
     </g>
    </g>
    <g id="xtick_12">
     <g id="line2d_12">
      <g>
       <use xlink:href="#macab8aecbf" x="429.593222" y="135.692308" style="fill: #222222; stroke: #222222; stroke-width: 0.8"/>
      </g>
     </g>
    </g>
   </g>
   <g id="matplotlib.axis_2">
    <g id="ytick_1">
     <g id="line2d_13">
      <defs>
       <path id="m1bc662e982" d="M 0 0 
L -3 0 
" style="stroke: #222222; stroke-width: 0.8"/>
      </defs>
      <g>
       <use xlink:href="#m1bc662e982" x="69.408" y="135.692308" style="fill: #222222; stroke: #222222; stroke-width: 0.8"/>
      </g>
     </g>
     <g id="text_1">
      <!-- 0 -->
      <g style="fill: #222222" transform="translate(57.818 138.731683) scale(0.08 -0.08)">
       <defs>
        <path id="DejaVuSans-30" d="M 2034 4250 
Q 1547 4250 1301 3770 
Q 1056 3291 1056 2328 
Q 1056 1369 1301 889 
Q 1547 409 2034 409 
Q 2525 409 2770 889 
Q 3016 1369 3016 2328 
Q 3016 3291 2770 3770 
Q 2525 4250 2034 4250 
z
M 2034 4750 
Q 2819 4750 3233 4129 
Q 3647 3509 3647 2328 
Q 3647 1150 3233 529 
Q 2819 -91 2034 -91 
Q 1250 -91 836 529 
Q 422 1150 422 2328 
Q 422 3509 836 4129 
Q 1250 4750 2034 4750 
z
" transform="scale(0.015625)"/>
       </defs>
       <use xlink:href="#DejaVuSans-30"/>
      </g>
     </g>
    </g>
    <g id="ytick_2">
     <g id="line2d_14">
      <g>
       <use xlink:href="#m1bc662e982" x="69.408" y="66.908189" style="fill: #222222; stroke: #222222; stroke-width: 0.8"/>
      </g>
     </g>
     <g id="text_2">
      <!-- 50% -->
      <g style="fill: #222222" transform="translate(45.12675 69.947564) scale(0.08 -0.08)">
       <defs>
        <path id="DejaVuSans-35" d="M 691 4666 
L 3169 4666 
L 3169 4134 
L 1269 4134 
L 1269 2991 
Q 1406 3038 1543 3061 
Q 1681 3084 1819 3084 
Q 2600 3084 3056 2656 
Q 3513 2228 3513 1497 
Q 3513 744 3044 326 
Q 2575 -91 1722 -91 
Q 1428 -91 1123 -41 
Q 819 9 494 109 
L 494 744 
Q 775 591 1075 516 
Q 1375 441 1709 441 
Q 2250 441 2565 725 
Q 2881 1009 2881 1497 
Q 2881 1984 2565 2268 
Q 2250 2553 1709 2553 
Q 1456 2553 1204 2497 
Q 953 2441 691 2322 
L 691 4666 
z
" transform="scale(0.015625)"/>
        <path id="DejaVuSans-25" d="M 4653 2053 
Q 4381 2053 4226 1822 
Q 4072 1591 4072 1178 
Q 4072 772 4226 539 
Q 4381 306 4653 306 
Q 4919 306 5073 539 
Q 5228 772 5228 1178 
Q 5228 1588 5073 1820 
Q 4919 2053 4653 2053 
z
M 4653 2450 
Q 5147 2450 5437 2106 
Q 5728 1763 5728 1178 
Q 5728 594 5436 251 
Q 5144 -91 4653 -91 
Q 4153 -91 3862 251 
Q 3572 594 3572 1178 
Q 3572 1766 3864 2108 
Q 4156 2450 4653 2450 
z
M 1428 4353 
Q 1159 4353 1004 4120 
Q 850 3888 850 3481 
Q 850 3069 1003 2837 
Q 1156 2606 1428 2606 
Q 1700 2606 1854 2837 
Q 2009 3069 2009 3481 
Q 2009 3884 1853 4118 
Q 1697 4353 1428 4353 
z
M 4250 4750 
L 4750 4750 
L 1831 -91 
L 1331 -91 
L 4250 4750 
z
M 1428 4750 
Q 1922 4750 2215 4408 
Q 2509 4066 2509 3481 
Q 2509 2891 2217 2550 
Q 1925 2209 1428 2209 
Q 931 2209 642 2551 
Q 353 2894 353 3481 
Q 353 4063 643 4406 
Q 934 4750 1428 4750 
z
" transform="scale(0.015625)"/>
       </defs>
       <use xlink:href="#DejaVuSans-35"/>
       <use xlink:href="#DejaVuSans-30" transform="translate(63.623047 0)"/>
       <use xlink:href="#DejaVuSans-25" transform="translate(127.246094 0)"/>
      </g>
     </g>
    </g>
   </g>
   <g id="line2d_15">
    <path d="M 87.669818 135.692308 
L 95.440805 135.692308 
L 103.211791 135.692308 
L 110.982778 135.692308 
L 118.753764 135.692308 
L 126.52475 135.692308 
L 134.295737 135.692308 
L 142.066723 135.692308 
L 149.83771 135.692308 
L 157.608696 135.692308 
L 165.379683 135.692308 
L 173.150669 135.692308 
L 180.921656 135.692308 
L 188.692642 135.692308 
L 196.463629 135.692308 
L 204.234615 109.898263 
L 212.005602 84.104218 
L 219.776588 116.039702 
L 227.547574 70.528405 
L 235.318561 93.363619 
L 243.089547 105.121588 
L 250.860534 85.667494 
L 258.63152 93.363619 
L 266.402507 73.16129 
L 274.173493 89.836228 
L 281.94448 94.931348 
L 289.715466 112.764268 
L 297.486453 66.908189 
L 305.257439 97.478908 
L 313.028426 103.945791 
L 320.799412 84.104218 
L 328.570398 72.199275 
L 336.341385 80.665012 
L 344.112371 124.228288 
L 351.883358 66.908189 
L 359.654344 92.702233 
L 367.425331 135.692308 
L 375.196317 135.692308 
L 382.967304 135.692308 
L 390.73829 135.692308 
L 398.509277 135.692308 
L 406.280263 135.692308 
L 414.05125 135.692308 
L 421.822236 135.692308 
L 429.593222 135.692308 
L 437.364209 135.692308 
L 445.135195 135.692308 
L 452.906182 135.692308 
" clip-path="url(#p4593cc64f1)" style="fill: none; stroke: #222222; stroke-width: 1.4; stroke-linecap: square"/>
   </g>
   <g id="patch_3">
    <path d="M 69.408 135.692308 
L 69.408 66.908189 
" style="fill: none; stroke: #222222; stroke-width: 0.8; stroke-linejoin: miter; stroke-linecap: square"/>
   </g>
   <g id="patch_4">
    <path d="M 69.408 135.692308 
L 471.168 135.692308 
" style="fill: none; stroke: #222222; stroke-width: 0.8; stroke-linejoin: miter; stroke-linecap: square"/>
   </g>
   <g id="line2d_16">
    <defs>
     <path id="m0f21ae9645" d="M 0 2.5 
C 0.663008 2.5 1.29895 2.236584 1.767767 1.767767 
C 2.236584 1.29895 2.5 0.663008 2.5 0 
C 2.5 -0.663008 2.236584 -1.29895 1.767767 -1.767767 
C 1.29895 -2.236584 0.663008 -2.5 0 -2.5 
C -0.663008 -2.5 -1.29895 -2.236584 -1.767767 -1.767767 
C -2.236584 -1.29895 -2.5 -0.663008 -2.5 0 
C -2.5 0.663008 -2.236584 1.29895 -1.767767 1.767767 
C -1.29895 2.236584 -0.663008 2.5 0 2.5 
z
" style="stroke: #c0392b"/>
    </defs>
    <g clip-path="url(#p4593cc64f1)">
     <use xlink:href="#m0f21ae9645" x="297.486453" y="66.908189" style="fill: #c0392b; stroke: #c0392b"/>
    </g>
   </g>
   <g id="text_3">
    <!-- peak 50% -->
    <g style="fill: #c0392b" transform="translate(303.486453 70.253657) scale(0.085 -0.085)">
     <defs>
      <path id="DejaVuSans-70" d="M 1159 525 
L 1159 -1331 
L 581 -1331 
L 581 3500 
L 1159 3500 
L 1159 2969 
Q 1341 3281 1617 3432 
Q 1894 3584 2278 3584 
Q 2916 3584 3314 3078 
Q 3713 2572 3713 1747 
Q 3713 922 3314 415 
Q 2916 -91 2278 -91 
Q 1894 -91 1617 61 
Q 1341 213 1159 525 
z
M 3116 1747 
Q 3116 2381 2855 2742 
Q 2594 3103 2138 3103 
Q 1681 3103 1420 2742 
Q 1159 2381 1159 1747 
Q 1159 1113 1420 752 
Q 1681 391 2138 391 
Q 2594 391 2855 752 
Q 3116 1113 3116 1747 
z
" transform="scale(0.015625)"/>
      <path id="DejaVuSans-65" d="M 3597 1894 
L 3597 1613 
L 953 1613 
Q 991 1019 1311 708 
Q 1631 397 2203 397 
Q 2534 397 2845 478 
Q 3156 559 3463 722 
L 3463 178 
Q 3153 47 2828 -22 
Q 2503 -91 2169 -91 
Q 1331 -91 842 396 
Q 353 884 353 1716 
Q 353 2575 817 3079 
Q 1281 3584 2069 3584 
Q 2775 3584 3186 3129 
Q 3597 2675 3597 1894 
z
M 3022 2063 
Q 3016 2534 2758 2815 
Q 2500 3097 2075 3097 
Q 1594 3097 1305 2825 
Q 1016 2553 972 2059 
L 3022 2063 
z
" transform="scale(0.015625)"/>
      <path id="DejaVuSans-61" d="M 2194 1759 
Q 1497 1759 1228 1600 
Q 959 1441 959 1056 
Q 959 750 1161 570 
Q 1363 391 1709 391 
Q 2188 391 2477 730 
Q 2766 1069 2766 1631 
L 2766 1759 
L 2194 1759 
z
M 3341 1997 
L 3341 0 
L 2766 0 
L 2766 531 
Q 2569 213 2275 61 
Q 1981 -91 1556 -91 
Q 1019 -91 701 211 
Q 384 513 384 1019 
Q 384 1609 779 1909 
Q 1175 2209 1959 2209 
L 2766 2209 
L 2766 2266 
Q 2766 2663 2505 2880 
Q 2244 3097 1772 3097 
Q 1472 3097 1187 3025 
Q 903 2953 641 2809 
L 641 3341 
Q 956 3463 1253 3523 
Q 1550 3584 1831 3584 
Q 2591 3584 2966 3190 
Q 3341 2797 3341 1997 
z
" transform="scale(0.015625)"/>
      <path id="DejaVuSans-6b" d="M 581 4863 
L 1159 4863 
L 1159 1991 
L 2875 3500 
L 3609 3500 
L 1753 1863 
L 3688 0 
L 2938 0 
L 1159 1709 
L 1159 0 
L 581 0 
L 581 4863 
z
" transform="scale(0.015625)"/>
      <path id="DejaVuSans-20" transform="scale(0.015625)"/>
     </defs>
     <use xlink:href="#DejaVuSans-70"/>
     <use xlink:href="#DejaVuSans-65" transform="translate(63.476562 0)"/>
     <use xlink:href="#DejaVuSans-61" transform="translate(125 0)"/>
     <use xlink:href="#DejaVuSans-6b" transform="translate(186.279297 0)"/>
     <use xlink:href="#DejaVuSans-20" transform="translate(244.189453 0)"/>
     <use xlink:href="#DejaVuSans-35" transform="translate(275.976562 0)"/>
     <use xlink:href="#DejaVuSans-30" transform="translate(339.599609 0)"/>
     <use xlink:href="#DejaVuSans-25" transform="translate(403.222656 0)"/>
    </g>
   </g>
   <g id="text_4">
    <!-- Saltmarsh Sparrow · Montauk Point  —  coastal specialty, summer breeder -->
    <g style="fill: #222222" transform="translate(69.408 40.4) scale(0.095 -0.095)">
     <defs>
      <path id="DejaVuSans-53" d="M 3425 4513 
L 3425 3897 
Q 3066 4069 2747 4153 
Q 2428 4238 2131 4238 
Q 1616 4238 1336 4038 
Q 1056 3838 1056 3469 
Q 1056 3159 1242 3001 
Q 1428 2844 1947 2747 
L 2328 2669 
Q 3034 2534 3370 2195 
Q 3706 1856 3706 1288 
Q 3706 609 3251 259 
Q 2797 -91 1919 -91 
Q 1588 -91 1214 -16 
Q 841 59 441 206 
L 441 856 
Q 825 641 1194 531 
Q 1563 422 1919 422 
Q 2459 422 2753 634 
Q 3047 847 3047 1241 
Q 3047 1584 2836 1778 
Q 2625 1972 2144 2069 
L 1759 2144 
Q 1053 2284 737 2584 
Q 422 2884 422 3419 
Q 422 4038 858 4394 
Q 1294 4750 2059 4750 
Q 2388 4750 2728 4690 
Q 3069 4631 3425 4513 
z
" transform="scale(0.015625)"/>
      <path id="DejaVuSans-6c" d="M 603 4863 
L 1178 4863 
L 1178 0 
L 603 0 
L 603 4863 
z
" transform="scale(0.015625)"/>
      <path id="DejaVuSans-74" d="M 1172 4494 
L 1172 3500 
L 2356 3500 
L 2356 3053 
L 1172 3053 
L 1172 1153 
Q 1172 725 1289 603 
Q 1406 481 1766 481 
L 2356 481 
L 2356 0 
L 1766 0 
Q 1100 0 847 248 
Q 594 497 594 1153 
L 594 3053 
L 172 3053 
L 172 3500 
L 594 3500 
L 594 4494 
L 1172 4494 
z
" transform="scale(0.015625)"/>
      <path id="DejaVuSans-6d" d="M 3328 2828 
Q 3544 3216 3844 3400 
Q 4144 3584 4550 3584 
Q 5097 3584 5394 3201 
Q 5691 2819 5691 2113 
L 5691 0 
L 5113 0 
L 5113 2094 
Q 5113 2597 4934 2840 
Q 4756 3084 4391 3084 
Q 3944 3084 3684 2787 
Q 3425 2491 3425 1978 
L 3425 0 
L 2847 0 
L 2847 2094 
Q 2847 2600 2669 2842 
Q 2491 3084 2119 3084 
Q 1678 3084 1418 2786 
Q 1159 2488 1159 1978 
L 1159 0 
L 581 0 
L 581 3500 
L 1159 3500 
L 1159 2956 
Q 1356 3278 1631 3431 
Q 1906 3584 2284 3584 
Q 2666 3584 2933 3390 
Q 3200 3197 3328 2828 
z
" transform="scale(0.015625)"/>
      <path id="DejaVuSans-72" d="M 2631 2963 
Q 2534 3019 2420 3045 
Q 2306 3072 2169 3072 
Q 1681 3072 1420 2755 
Q 1159 2438 1159 1844 
L 1159 0 
L 581 0 
L 581 3500 
L 1159 3500 
L 1159 2956 
Q 1341 3275 1631 3429 
Q 1922 3584 2338 3584 
Q 2397 3584 2469 3576 
Q 2541 3569 2628 3553 
L 2631 2963 
z
" transform="scale(0.015625)"/>
      <path id="DejaVuSans-73" d="M 2834 3397 
L 2834 2853 
Q 2591 2978 2328 3040 
Q 2066 3103 1784 3103 
Q 1356 3103 1142 2972 
Q 928 2841 928 2578 
Q 928 2378 1081 2264 
Q 1234 2150 1697 2047 
L 1894 2003 
Q 2506 1872 2764 1633 
Q 3022 1394 3022 966 
Q 3022 478 2636 193 
Q 2250 -91 1575 -91 
Q 1294 -91 989 -36 
Q 684 19 347 128 
L 347 722 
Q 666 556 975 473 
Q 1284 391 1588 391 
Q 1994 391 2212 530 
Q 2431 669 2431 922 
Q 2431 1156 2273 1281 
Q 2116 1406 1581 1522 
L 1381 1569 
Q 847 1681 609 1914 
Q 372 2147 372 2553 
Q 372 3047 722 3315 
Q 1072 3584 1716 3584 
Q 2034 3584 2315 3537 
Q 2597 3491 2834 3397 
z
" transform="scale(0.015625)"/>
      <path id="DejaVuSans-68" d="M 3513 2113 
L 3513 0 
L 2938 0 
L 2938 2094 
Q 2938 2591 2744 2837 
Q 2550 3084 2163 3084 
Q 1697 3084 1428 2787 
Q 1159 2491 1159 1978 
L 1159 0 
L 581 0 
L 581 4863 
L 1159 4863 
L 1159 2956 
Q 1366 3272 1645 3428 
Q 1925 3584 2291 3584 
Q 2894 3584 3203 3211 
Q 3513 2838 3513 2113 
z
" transform="scale(0.015625)"/>
      <path id="DejaVuSans-6f" d="M 1959 3097 
Q 1497 3097 1228 2736 
Q 959 2375 959 1747 
Q 959 1119 1226 758 
Q 1494 397 1959 397 
Q 2419 397 2687 759 
Q 2956 1122 2956 1747 
Q 2956 2369 2687 2733 
Q 2419 3097 1959 3097 
z
M 1959 3584 
Q 2709 3584 3137 3096 
Q 3566 2609 3566 1747 
Q 3566 888 3137 398 
Q 2709 -91 1959 -91 
Q 1206 -91 779 398 
Q 353 888 353 1747 
Q 353 2609 779 3096 
Q 1206 3584 1959 3584 
z
" transform="scale(0.015625)"/>
      <path id="DejaVuSans-77" d="M 269 3500 
L 844 3500 
L 1563 769 
L 2278 3500 
L 2956 3500 
L 3675 769 
L 4391 3500 
L 4966 3500 
L 4050 0 
L 3372 0 
L 2619 2869 
L 1863 0 
L 1184 0 
L 269 3500 
z
" transform="scale(0.015625)"/>
      <path id="DejaVuSans-b7" d="M 684 2619 
L 1344 2619 
L 1344 1825 
L 684 1825 
L 684 2619 
z
" transform="scale(0.015625)"/>
      <path id="DejaVuSans-4d" d="M 628 4666 
L 1569 4666 
L 2759 1491 
L 3956 4666 
L 4897 4666 
L 4897 0 
L 4281 0 
L 4281 4097 
L 3078 897 
L 2444 897 
L 1241 4097 
L 1241 0 
L 628 0 
L 628 4666 
z
" transform="scale(0.015625)"/>
      <path id="DejaVuSans-6e" d="M 3513 2113 
L 3513 0 
L 2938 0 
L 2938 2094 
Q 2938 2591 2744 2837 
Q 2550 3084 2163 3084 
Q 1697 3084 1428 2787 
Q 1159 2491 1159 1978 
L 1159 0 
L 581 0 
L 581 3500 
L 1159 3500 
L 1159 2956 
Q 1366 3272 1645 3428 
Q 1925 3584 2291 3584 
Q 2894 3584 3203 3211 
Q 3513 2838 3513 2113 
z
" transform="scale(0.015625)"/>
      <path id="DejaVuSans-75" d="M 544 1381 
L 544 3500 
L 1119 3500 
L 1119 1403 
Q 1119 906 1312 657 
Q 1506 409 1894 409 
Q 2359 409 2629 706 
Q 2900 1003 2900 1516 
L 2900 3500 
L 3475 3500 
L 3475 0 
L 2900 0 
L 2900 538 
Q 2691 219 2414 64 
Q 2138 -91 1772 -91 
Q 1169 -91 856 284 
Q 544 659 544 1381 
z
M 1991 3584 
L 1991 3584 
z
" transform="scale(0.015625)"/>
      <path id="DejaVuSans-50" d="M 1259 4147 
L 1259 2394 
L 2053 2394 
Q 2494 2394 2734 2622 
Q 2975 2850 2975 3272 
Q 2975 3691 2734 3919 
Q 2494 4147 2053 4147 
L 1259 4147 
z
M 628 4666 
L 2053 4666 
Q 2838 4666 3239 4311 
Q 3641 3956 3641 3272 
Q 3641 2581 3239 2228 
Q 2838 1875 2053 1875 
L 1259 1875 
L 1259 0 
L 628 0 
L 628 4666 
z
" transform="scale(0.015625)"/>
      <path id="DejaVuSans-69" d="M 603 3500 
L 1178 3500 
L 1178 0 
L 603 0 
L 603 3500 
z
M 603 4863 
L 1178 4863 
L 1178 4134 
L 603 4134 
L 603 4863 
z
" transform="scale(0.015625)"/>
      <path id="DejaVuSans-2014" d="M 313 1978 
L 6088 1978 
L 6088 1528 
L 313 1528 
L 313 1978 
z
" transform="scale(0.015625)"/>
      <path id="DejaVuSans-63" d="M 3122 3366 
L 3122 2828 
Q 2878 2963 2633 3030 
Q 2388 3097 2138 3097 
Q 1578 3097 1268 2742 
Q 959 2388 959 1747 
Q 959 1106 1268 751 
Q 1578 397 2138 397 
Q 2388 397 2633 464 
Q 2878 531 3122 666 
L 3122 134 
Q 2881 22 2623 -34 
Q 2366 -91 2075 -91 
Q 1284 -91 818 406 
Q 353 903 353 1747 
Q 353 2603 823 3093 
Q 1294 3584 2113 3584 
Q 2378 3584 2631 3529 
Q 2884 3475 3122 3366 
z
" transform="scale(0.015625)"/>
      <path id="DejaVuSans-79" d="M 2059 -325 
Q 1816 -950 1584 -1140 
Q 1353 -1331 966 -1331 
L 506 -1331 
L 506 -850 
L 844 -850 
Q 1081 -850 1212 -737 
Q 1344 -625 1503 -206 
L 1606 56 
L 191 3500 
L 800 3500 
L 1894 763 
L 2988 3500 
L 3597 3500 
L 2059 -325 
z
" transform="scale(0.015625)"/>
      <path id="DejaVuSans-2c" d="M 750 794 
L 1409 794 
L 1409 256 
L 897 -744 
L 494 -744 
L 750 256 
L 750 794 
z
" transform="scale(0.015625)"/>
      <path id="DejaVuSans-62" d="M 3116 1747 
Q 3116 2381 2855 2742 
Q 2594 3103 2138 3103 
Q 1681 3103 1420 2742 
Q 1159 2381 1159 1747 
Q 1159 1113 1420 752 
Q 1681 391 2138 391 
Q 2594 391 2855 752 
Q 3116 1113 3116 1747 
z
M 1159 2969 
Q 1341 3281 1617 3432 
Q 1894 3584 2278 3584 
Q 2916 3584 3314 3078 
Q 3713 2572 3713 1747 
Q 3713 922 3314 415 
Q 2916 -91 2278 -91 
Q 1894 -91 1617 61 
Q 1341 213 1159 525 
L 1159 0 
L 581 0 
L 581 4863 
L 1159 4863 
L 1159 2969 
z
" transform="scale(0.015625)"/>
      <path id="DejaVuSans-64" d="M 2906 2969 
L 2906 4863 
L 3481 4863 
L 3481 0 
L 2906 0 
L 2906 525 
Q 2725 213 2448 61 
Q 2172 -91 1784 -91 
Q 1150 -91 751 415 
Q 353 922 353 1747 
Q 353 2572 751 3078 
Q 1150 3584 1784 3584 
Q 2172 3584 2448 3432 
Q 2725 3281 2906 2969 
z
M 947 1747 
Q 947 1113 1208 752 
Q 1469 391 1925 391 
Q 2381 391 2643 752 
Q 2906 1113 2906 1747 
Q 2906 2381 2643 2742 
Q 2381 3103 1925 3103 
Q 1469 3103 1208 2742 
Q 947 2381 947 1747 
z
" transform="scale(0.015625)"/>
     </defs>
     <use xlink:href="#DejaVuSans-53"/>
     <use xlink:href="#DejaVuSans-61" transform="translate(63.476562 0)"/>
     <use xlink:href="#DejaVuSans-6c" transform="translate(124.755859 0)"/>
     <use xlink:href="#DejaVuSans-74" transform="translate(152.539062 0)"/>
     <use xlink:href="#DejaVuSans-6d" transform="translate(191.748047 0)"/>
     <use xlink:href="#DejaVuSans-61" transform="translate(289.160156 0)"/>
     <use xlink:href="#DejaVuSans-72" transform="translate(350.439453 0)"/>
     <use xlink:href="#DejaVuSans-73" transform="translate(391.552734 0)"/>
     <use xlink:href="#DejaVuSans-68" transform="translate(443.652344 0)"/>
     <use xlink:href="#DejaVuSans-20" transform="translate(507.03125 0)"/>
     <use xlink:href="#DejaVuSans-53" transform="translate(538.818359 0)"/>
     <use xlink:href="#DejaVuSans-70" transform="translate(602.294922 0)"/>
     <use xlink:href="#DejaVuSans-61" transform="translate(665.771484 0)"/>
     <use xlink:href="#DejaVuSans-72" transform="translate(727.050781 0)"/>
     <use xlink:href="#DejaVuSans-72" transform="translate(766.414062 0)"/>
     <use xlink:href="#DejaVuSans-6f" transform="translate(805.277344 0)"/>
     <use xlink:href="#DejaVuSans-77" transform="translate(866.458984 0)"/>
     <use xlink:href="#DejaVuSans-20" transform="translate(948.246094 0)"/>
     <use xlink:href="#DejaVuSans-b7" transform="translate(980.033203 0)"/>
     <use xlink:href="#DejaVuSans-20" transform="translate(1011.820312 0)"/>
     <use xlink:href="#DejaVuSans-4d" transform="translate(1043.607422 0)"/>
     <use xlink:href="#DejaVuSans-6f" transform="translate(1129.886719 0)"/>
     <use xlink:href="#DejaVuSans-6e" transform="translate(1191.068359 0)"/>
     <use xlink:href="#DejaVuSans-74" transform="translate(1254.447266 0)"/>
     <use xlink:href="#DejaVuSans-61" transform="translate(1293.65625 0)"/>
     <use xlink:href="#DejaVuSans-75" transform="translate(1354.935547 0)"/>
     <use xlink:href="#DejaVuSans-6b" transform="translate(1418.314453 0)"/>
     <use xlink:href="#DejaVuSans-20" transform="translate(1476.224609 0)"/>
     <use xlink:href="#DejaVuSans-50" transform="translate(1508.011719 0)"/>
     <use xlink:href="#DejaVuSans-6f" transform="translate(1564.689453 0)"/>
     <use xlink:href="#DejaVuSans-69" transform="translate(1625.871094 0)"/>
     <use xlink:href="#DejaVuSans-6e" transform="translate(1653.654297 0)"/>
     <use xlink:href="#DejaVuSans-74" transform="translate(1717.033203 0)"/>
     <use xlink:href="#DejaVuSans-20" transform="translate(1756.242188 0)"/>
     <use xlink:href="#DejaVuSans-20" transform="translate(1788.029297 0)"/>
     <use xlink:href="#DejaVuSans-2014" transform="translate(1819.816406 0)"/>
     <use xlink:href="#DejaVuSans-20" transform="translate(1919.816406 0)"/>
     <use xlink:href="#DejaVuSans-20" transform="translate(1951.603516 0)"/>
     <use xlink:href="#DejaVuSans-63" transform="translate(1983.390625 0)"/>
     <use xlink:href="#DejaVuSans-6f" transform="translate(2038.371094 0)"/>
     <use xlink:href="#DejaVuSans-61" transform="translate(2099.552734 0)"/>
     <use xlink:href="#DejaVuSans-73" transform="translate(2160.832031 0)"/>
     <use xlink:href="#DejaVuSans-74" transform="translate(2212.931641 0)"/>
     <use xlink:href="#DejaVuSans-61" transform="translate(2252.140625 0)"/>
     <use xlink:href="#DejaVuSans-6c" transform="translate(2313.419922 0)"/>
     <use xlink:href="#DejaVuSans-20" transform="translate(2341.203125 0)"/>
     <use xlink:href="#DejaVuSans-73" transform="translate(2372.990234 0)"/>
     <use xlink:href="#DejaVuSans-70" transform="translate(2425.089844 0)"/>
     <use xlink:href="#DejaVuSans-65" transform="translate(2488.566406 0)"/>
     <use xlink:href="#DejaVuSans-63" transform="translate(2550.089844 0)"/>
     <use xlink:href="#DejaVuSans-69" transform="translate(2605.070312 0)"/>
     <use xlink:href="#DejaVuSans-61" transform="translate(2632.853516 0)"/>
     <use xlink:href="#DejaVuSans-6c" transform="translate(2694.132812 0)"/>
     <use xlink:href="#DejaVuSans-74" transform="translate(2721.916016 0)"/>
     <use xlink:href="#DejaVuSans-79" transform="translate(2761.125 0)"/>
     <use xlink:href="#DejaVuSans-2c" transform="translate(2820.304688 0)"/>
     <use xlink:href="#DejaVuSans-20" transform="translate(2852.091797 0)"/>
     <use xlink:href="#DejaVuSans-73" transform="translate(2883.878906 0)"/>
     <use xlink:href="#DejaVuSans-75" transform="translate(2935.978516 0)"/>
     <use xlink:href="#DejaVuSans-6d" transform="translate(2999.357422 0)"/>
     <use xlink:href="#DejaVuSans-6d" transform="translate(3096.769531 0)"/>
     <use xlink:href="#DejaVuSans-65" transform="translate(3194.181641 0)"/>
     <use xlink:href="#DejaVuSans-72" transform="translate(3255.705078 0)"/>
     <use xlink:href="#DejaVuSans-20" transform="translate(3296.818359 0)"/>
     <use xlink:href="#DejaVuSans-62" transform="translate(3328.605469 0)"/>
     <use xlink:href="#DejaVuSans-72" transform="translate(3392.082031 0)"/>
     <use xlink:href="#DejaVuSans-65" transform="translate(3430.945312 0)"/>
     <use xlink:href="#DejaVuSans-65" transform="translate(3492.46875 0)"/>
     <use xlink:href="#DejaVuSans-64" transform="translate(3553.992188 0)"/>
     <use xlink:href="#DejaVuSans-65" transform="translate(3617.46875 0)"/>
     <use xlink:href="#DejaVuSans-72" transform="translate(3678.992188 0)"/>
    </g>
   </g>
  </g>
  <g id="axes_2">
   <g id="patch_5">
    <path d="M 69.408 259.366154 
L 471.168 259.366154 
L 471.168 174.073846 
L 69.408 174.073846 
z
" style="fill: #ffffff"/>
   </g>
   <g id="FillBetweenPolyCollection_2">
    <defs>
     <path id="m114d47036b" d="M 87.669818 -177.959987 
L 87.669818 -208.332195 
L 95.440805 -216.298676 
L 103.211791 -210.714329 
L 110.982778 -210.118796 
L 118.753764 -210.118796 
L 126.52475 -198.725004 
L 134.295737 -189.174789 
L 142.066723 -199.681288 
L 149.83771 -240.03346 
L 157.608696 -224.182915 
L 165.379683 -219.828581 
L 173.150669 -246.744106 
L 180.921656 -227.305116 
L 188.692642 -239.101426 
L 196.463629 -217.13196 
L 204.234615 -226.924953 
L 212.005602 -234.952543 
L 219.776588 -231.69758 
L 227.547574 -232.307933 
L 235.318561 -241.167015 
L 243.089547 -229.318796 
L 250.860534 -242.813585 
L 258.63152 -235.883456 
L 266.402507 -249.650477 
L 274.173493 -239.766007 
L 281.94448 -234.884775 
L 289.715466 -223.379342 
L 297.486453 -223.064327 
L 305.257439 -241.313781 
L 313.028426 -222.40511 
L 320.799412 -217.265198 
L 328.570398 -245.747235 
L 336.341385 -248.89361 
L 344.112371 -239.503672 
L 351.883358 -245.21557 
L 359.654344 -220.117995 
L 367.425331 -230.694478 
L 375.196317 -228.401674 
L 382.967304 -236.161934 
L 390.73829 -248.962948 
L 398.509277 -235.280086 
L 406.280263 -229.182203 
L 414.05125 -221.731699 
L 421.822236 -214.528759 
L 429.593222 -207.766438 
L 437.364209 -196.692683 
L 445.135195 -203.916258 
L 452.906182 -205.973883 
L 452.906182 -177.959987 
L 452.906182 -177.959987 
L 445.135195 -177.959987 
L 437.364209 -177.959987 
L 429.593222 -177.959987 
L 421.822236 -177.959987 
L 414.05125 -177.959987 
L 406.280263 -177.959987 
L 398.509277 -177.959987 
L 390.73829 -177.959987 
L 382.967304 -177.959987 
L 375.196317 -177.959987 
L 367.425331 -177.959987 
L 359.654344 -177.959987 
L 351.883358 -177.959987 
L 344.112371 -177.959987 
L 336.341385 -177.959987 
L 328.570398 -177.959987 
L 320.799412 -177.959987 
L 313.028426 -177.959987 
L 305.257439 -177.959987 
L 297.486453 -177.959987 
L 289.715466 -177.959987 
L 281.94448 -177.959987 
L 274.173493 -177.959987 
L 266.402507 -177.959987 
L 258.63152 -177.959987 
L 250.860534 -177.959987 
L 243.089547 -177.959987 
L 235.318561 -177.959987 
L 227.547574 -177.959987 
L 219.776588 -177.959987 
L 212.005602 -177.959987 
L 204.234615 -177.959987 
L 196.463629 -177.959987 
L 188.692642 -177.959987 
L 180.921656 -177.959987 
L 173.150669 -177.959987 
L 165.379683 -177.959987 
L 157.608696 -177.959987 
L 149.83771 -177.959987 
L 142.066723 -177.959987 
L 134.295737 -177.959987 
L 126.52475 -177.959987 
L 118.753764 -177.959987 
L 110.982778 -177.959987 
L 103.211791 -177.959987 
L 95.440805 -177.959987 
L 87.669818 -177.959987 
z
" style="stroke: #cccccc"/>
    </defs>
    <g clip-path="url(#pc9f2391e3f)">
     <use xlink:href="#m114d47036b" x="0" y="437.326141" style="fill: #cccccc; stroke: #cccccc"/>
    </g>
   </g>
   <g id="matplotlib.axis_3">
    <g id="xtick_13">
     <g id="line2d_17">
      <g>
       <use xlink:href="#macab8aecbf" x="87.669818" y="259.366154" style="fill: #222222; stroke: #222222; stroke-width: 0.8"/>
      </g>
     </g>
    </g>
    <g id="xtick_14">
     <g id="line2d_18">
      <g>
       <use xlink:href="#macab8aecbf" x="118.753764" y="259.366154" style="fill: #222222; stroke: #222222; stroke-width: 0.8"/>
      </g>
     </g>
    </g>
    <g id="xtick_15">
     <g id="line2d_19">
      <g>
       <use xlink:href="#macab8aecbf" x="149.83771" y="259.366154" style="fill: #222222; stroke: #222222; stroke-width: 0.8"/>
      </g>
     </g>
    </g>
    <g id="xtick_16">
     <g id="line2d_20">
      <g>
       <use xlink:href="#macab8aecbf" x="180.921656" y="259.366154" style="fill: #222222; stroke: #222222; stroke-width: 0.8"/>
      </g>
     </g>
    </g>
    <g id="xtick_17">
     <g id="line2d_21">
      <g>
       <use xlink:href="#macab8aecbf" x="212.005602" y="259.366154" style="fill: #222222; stroke: #222222; stroke-width: 0.8"/>
      </g>
     </g>
    </g>
    <g id="xtick_18">
     <g id="line2d_22">
      <g>
       <use xlink:href="#macab8aecbf" x="243.089547" y="259.366154" style="fill: #222222; stroke: #222222; stroke-width: 0.8"/>
      </g>
     </g>
    </g>
    <g id="xtick_19">
     <g id="line2d_23">
      <g>
       <use xlink:href="#macab8aecbf" x="274.173493" y="259.366154" style="fill: #222222; stroke: #222222; stroke-width: 0.8"/>
      </g>
     </g>
    </g>
    <g id="xtick_20">
     <g id="line2d_24">
      <g>
       <use xlink:href="#macab8aecbf" x="305.257439" y="259.366154" style="fill: #222222; stroke: #222222; stroke-width: 0.8"/>
      </g>
     </g>
    </g>
    <g id="xtick_21">
     <g id="line2d_25">
      <g>
       <use xlink:href="#macab8aecbf" x="336.341385" y="259.366154" style="fill: #222222; stroke: #222222; stroke-width: 0.8"/>
      </g>
     </g>
    </g>
    <g id="xtick_22">
     <g id="line2d_26">
      <g>
       <use xlink:href="#macab8aecbf" x="367.425331" y="259.366154" style="fill: #222222; stroke: #222222; stroke-width: 0.8"/>
      </g>
     </g>
    </g>
    <g id="xtick_23">
     <g id="line2d_27">
      <g>
       <use xlink:href="#macab8aecbf" x="398.509277" y="259.366154" style="fill: #222222; stroke: #222222; stroke-width: 0.8"/>
      </g>
     </g>
    </g>
    <g id="xtick_24">
     <g id="line2d_28">
      <g>
       <use xlink:href="#macab8aecbf" x="429.593222" y="259.366154" style="fill: #222222; stroke: #222222; stroke-width: 0.8"/>
      </g>
     </g>
    </g>
   </g>
   <g id="matplotlib.axis_4">
    <g id="ytick_3">
     <g id="line2d_29">
      <g>
       <use xlink:href="#m1bc662e982" x="69.408" y="259.366154" style="fill: #222222; stroke: #222222; stroke-width: 0.8"/>
      </g>
     </g>
     <g id="text_5">
      <!-- 0 -->
      <g style="fill: #222222" transform="translate(57.818 262.405529) scale(0.08 -0.08)">
       <use xlink:href="#DejaVuSans-30"/>
      </g>
     </g>
    </g>
    <g id="ytick_4">
     <g id="line2d_30">
      <g>
       <use xlink:href="#m1bc662e982" x="69.408" y="190.582035" style="fill: #222222; stroke: #222222; stroke-width: 0.8"/>
      </g>
     </g>
     <g id="text_6">
      <!-- 50% -->
      <g style="fill: #222222" transform="translate(45.12675 193.62141) scale(0.08 -0.08)">
       <use xlink:href="#DejaVuSans-35"/>
       <use xlink:href="#DejaVuSans-30" transform="translate(63.623047 0)"/>
       <use xlink:href="#DejaVuSans-25" transform="translate(127.246094 0)"/>
      </g>
     </g>
    </g>
   </g>
   <g id="line2d_31">
    <path d="M 87.669818 228.993945 
L 95.440805 221.027465 
L 103.211791 226.611811 
L 110.982778 227.207345 
L 118.753764 227.207345 
L 126.52475 238.601137 
L 134.295737 248.151352 
L 142.066723 237.644853 
L 149.83771 197.292681 
L 157.608696 213.143226 
L 165.379683 217.49756 
L 173.150669 190.582035 
L 180.921656 210.021025 
L 188.692642 198.224715 
L 196.463629 220.194181 
L 204.234615 210.401188 
L 212.005602 202.373598 
L 219.776588 205.628561 
L 227.547574 205.018208 
L 235.318561 196.159125 
L 243.089547 208.007345 
L 250.860534 194.512556 
L 258.63152 201.442685 
L 266.402507 187.675664 
L 274.173493 197.560134 
L 281.94448 202.441366 
L 289.715466 213.946799 
L 297.486453 214.261813 
L 305.257439 196.01236 
L 313.028426 214.921031 
L 320.799412 220.060943 
L 328.570398 191.578906 
L 336.341385 188.432531 
L 344.112371 197.822468 
L 351.883358 192.110571 
L 359.654344 217.208145 
L 367.425331 206.631663 
L 375.196317 208.924467 
L 382.967304 201.164207 
L 390.73829 188.363192 
L 398.509277 202.046055 
L 406.280263 208.143937 
L 414.05125 215.594442 
L 421.822236 222.797382 
L 429.593222 229.559702 
L 437.364209 240.633458 
L 445.135195 233.409882 
L 452.906182 231.352258 
" clip-path="url(#pc9f2391e3f)" style="fill: none; stroke: #222222; stroke-width: 1.4; stroke-linecap: square"/>
   </g>
   <g id="patch_6">
    <path d="M 69.408 259.366154 
L 69.408 190.582035 
" style="fill: none; stroke: #222222; stroke-width: 0.8; stroke-linejoin: miter; stroke-linecap: square"/>
   </g>
   <g id="patch_7">
    <path d="M 69.408 259.366154 
L 471.168 259.366154 
" style="fill: none; stroke: #222222; stroke-width: 0.8; stroke-linejoin: miter; stroke-linecap: square"/>
   </g>
   <g id="line2d_32">
    <g clip-path="url(#pc9f2391e3f)">
     <use xlink:href="#m0f21ae9645" x="266.402507" y="187.675664" style="fill: #c0392b; stroke: #c0392b"/>
    </g>
   </g>
   <g id="text_7">
    <!-- peak 52% -->
    <g style="fill: #c0392b" transform="translate(272.402507 191.021132) scale(0.085 -0.085)">
     <defs>
      <path id="DejaVuSans-32" d="M 1228 531 
L 3431 531 
L 3431 0 
L 469 0 
L 469 531 
Q 828 903 1448 1529 
Q 2069 2156 2228 2338 
Q 2531 2678 2651 2914 
Q 2772 3150 2772 3378 
Q 2772 3750 2511 3984 
Q 2250 4219 1831 4219 
Q 1534 4219 1204 4116 
Q 875 4013 500 3803 
L 500 4441 
Q 881 4594 1212 4672 
Q 1544 4750 1819 4750 
Q 2544 4750 2975 4387 
Q 3406 4025 3406 3419 
Q 3406 3131 3298 2873 
Q 3191 2616 2906 2266 
Q 2828 2175 2409 1742 
Q 1991 1309 1228 531 
z
" transform="scale(0.015625)"/>
     </defs>
     <use xlink:href="#DejaVuSans-70"/>
     <use xlink:href="#DejaVuSans-65" transform="translate(63.476562 0)"/>
     <use xlink:href="#DejaVuSans-61" transform="translate(125 0)"/>
     <use xlink:href="#DejaVuSans-6b" transform="translate(186.279297 0)"/>
     <use xlink:href="#DejaVuSans-20" transform="translate(244.189453 0)"/>
     <use xlink:href="#DejaVuSans-35" transform="translate(275.976562 0)"/>
     <use xlink:href="#DejaVuSans-32" transform="translate(339.599609 0)"/>
     <use xlink:href="#DejaVuSans-25" transform="translate(403.222656 0)"/>
    </g>
   </g>
   <g id="text_8">
    <!-- American Robin · Central Park  —  resident, dips in midwinter -->
    <g style="fill: #222222" transform="translate(69.408 164.073846) scale(0.095 -0.095)">
     <defs>
      <path id="DejaVuSans-41" d="M 2188 4044 
L 1331 1722 
L 3047 1722 
L 2188 4044 
z
M 1831 4666 
L 2547 4666 
L 4325 0 
L 3669 0 
L 3244 1197 
L 1141 1197 
L 716 0 
L 50 0 
L 1831 4666 
z
" transform="scale(0.015625)"/>
      <path id="DejaVuSans-52" d="M 2841 2188 
Q 3044 2119 3236 1894 
Q 3428 1669 3622 1275 
L 4263 0 
L 3584 0 
L 2988 1197 
Q 2756 1666 2539 1819 
Q 2322 1972 1947 1972 
L 1259 1972 
L 1259 0 
L 628 0 
L 628 4666 
L 2053 4666 
Q 2853 4666 3247 4331 
Q 3641 3997 3641 3322 
Q 3641 2881 3436 2590 
Q 3231 2300 2841 2188 
z
M 1259 4147 
L 1259 2491 
L 2053 2491 
Q 2509 2491 2742 2702 
Q 2975 2913 2975 3322 
Q 2975 3731 2742 3939 
Q 2509 4147 2053 4147 
L 1259 4147 
z
" transform="scale(0.015625)"/>
      <path id="DejaVuSans-43" d="M 4122 4306 
L 4122 3641 
Q 3803 3938 3442 4084 
Q 3081 4231 2675 4231 
Q 1875 4231 1450 3742 
Q 1025 3253 1025 2328 
Q 1025 1406 1450 917 
Q 1875 428 2675 428 
Q 3081 428 3442 575 
Q 3803 722 4122 1019 
L 4122 359 
Q 3791 134 3420 21 
Q 3050 -91 2638 -91 
Q 1578 -91 968 557 
Q 359 1206 359 2328 
Q 359 3453 968 4101 
Q 1578 4750 2638 4750 
Q 3056 4750 3426 4639 
Q 3797 4528 4122 4306 
z
" transform="scale(0.015625)"/>
     </defs>
     <use xlink:href="#DejaVuSans-41"/>
     <use xlink:href="#DejaVuSans-6d" transform="translate(68.408203 0)"/>
     <use xlink:href="#DejaVuSans-65" transform="translate(165.820312 0)"/>
     <use xlink:href="#DejaVuSans-72" transform="translate(227.34375 0)"/>
     <use xlink:href="#DejaVuSans-69" transform="translate(268.457031 0)"/>
     <use xlink:href="#DejaVuSans-63" transform="translate(296.240234 0)"/>
     <use xlink:href="#DejaVuSans-61" transform="translate(351.220703 0)"/>
     <use xlink:href="#DejaVuSans-6e" transform="translate(412.5 0)"/>
     <use xlink:href="#DejaVuSans-20" transform="translate(475.878906 0)"/>
     <use xlink:href="#DejaVuSans-52" transform="translate(507.666016 0)"/>
     <use xlink:href="#DejaVuSans-6f" transform="translate(572.648438 0)"/>
     <use xlink:href="#DejaVuSans-62" transform="translate(633.830078 0)"/>
     <use xlink:href="#DejaVuSans-69" transform="translate(697.306641 0)"/>
     <use xlink:href="#DejaVuSans-6e" transform="translate(725.089844 0)"/>
     <use xlink:href="#DejaVuSans-20" transform="translate(788.46875 0)"/>
     <use xlink:href="#DejaVuSans-b7" transform="translate(820.255859 0)"/>
     <use xlink:href="#DejaVuSans-20" transform="translate(852.042969 0)"/>
     <use xlink:href="#DejaVuSans-43" transform="translate(883.830078 0)"/>
     <use xlink:href="#DejaVuSans-65" transform="translate(953.654297 0)"/>
     <use xlink:href="#DejaVuSans-6e" transform="translate(1015.177734 0)"/>
     <use xlink:href="#DejaVuSans-74" transform="translate(1078.556641 0)"/>
     <use xlink:href="#DejaVuSans-72" transform="translate(1117.765625 0)"/>
     <use xlink:href="#DejaVuSans-61" transform="translate(1158.878906 0)"/>
     <use xlink:href="#DejaVuSans-6c" transform="translate(1220.158203 0)"/>
     <use xlink:href="#DejaVuSans-20" transform="translate(1247.941406 0)"/>
     <use xlink:href="#DejaVuSans-50" transform="translate(1279.728516 0)"/>
     <use xlink:href="#DejaVuSans-61" transform="translate(1335.53125 0)"/>
     <use xlink:href="#DejaVuSans-72" transform="translate(1396.810547 0)"/>
     <use xlink:href="#DejaVuSans-6b" transform="translate(1437.923828 0)"/>
     <use xlink:href="#DejaVuSans-20" transform="translate(1495.833984 0)"/>
     <use xlink:href="#DejaVuSans-20" transform="translate(1527.621094 0)"/>
     <use xlink:href="#DejaVuSans-2014" transform="translate(1559.408203 0)"/>
     <use xlink:href="#DejaVuSans-20" transform="translate(1659.408203 0)"/>
     <use xlink:href="#DejaVuSans-20" transform="translate(1691.195312 0)"/>
     <use xlink:href="#DejaVuSans-72" transform="translate(1722.982422 0)"/>
     <use xlink:href="#DejaVuSans-65" transform="translate(1761.845703 0)"/>
     <use xlink:href="#DejaVuSans-73" transform="translate(1823.369141 0)"/>
     <use xlink:href="#DejaVuSans-69" transform="translate(1875.46875 0)"/>
     <use xlink:href="#DejaVuSans-64" transform="translate(1903.251953 0)"/>
     <use xlink:href="#DejaVuSans-65" transform="translate(1966.728516 0)"/>
     <use xlink:href="#DejaVuSans-6e" transform="translate(2028.251953 0)"/>
     <use xlink:href="#DejaVuSans-74" transform="translate(2091.630859 0)"/>
     <use xlink:href="#DejaVuSans-2c" transform="translate(2130.839844 0)"/>
     <use xlink:href="#DejaVuSans-20" transform="translate(2162.626953 0)"/>
     <use xlink:href="#DejaVuSans-64" transform="translate(2194.414062 0)"/>
     <use xlink:href="#DejaVuSans-69" transform="translate(2257.890625 0)"/>
     <use xlink:href="#DejaVuSans-70" transform="translate(2285.673828 0)"/>
     <use xlink:href="#DejaVuSans-73" transform="translate(2349.150391 0)"/>
     <use xlink:href="#DejaVuSans-20" transform="translate(2401.25 0)"/>
     <use xlink:href="#DejaVuSans-69" transform="translate(2433.037109 0)"/>
     <use xlink:href="#DejaVuSans-6e" transform="translate(2460.820312 0)"/>
     <use xlink:href="#DejaVuSans-20" transform="translate(2524.199219 0)"/>
     <use xlink:href="#DejaVuSans-6d" transform="translate(2555.986328 0)"/>
     <use xlink:href="#DejaVuSans-69" transform="translate(2653.398438 0)"/>
     <use xlink:href="#DejaVuSans-64" transform="translate(2681.181641 0)"/>
     <use xlink:href="#DejaVuSans-77" transform="translate(2744.658203 0)"/>
     <use xlink:href="#DejaVuSans-69" transform="translate(2826.445312 0)"/>
     <use xlink:href="#DejaVuSans-6e" transform="translate(2854.228516 0)"/>
     <use xlink:href="#DejaVuSans-74" transform="translate(2917.607422 0)"/>
     <use xlink:href="#DejaVuSans-65" transform="translate(2956.816406 0)"/>
     <use xlink:href="#DejaVuSans-72" transform="translate(3018.339844 0)"/>
    </g>
   </g>
  </g>
  <g id="axes_3">
   <g id="patch_8">
    <path d="M 69.408 383.04 
L 471.168 383.04 
L 471.168 297.747692 
L 69.408 297.747692 
z
" style="fill: #ffffff"/>
   </g>
   <g id="FillBetweenPolyCollection_3">
    <defs>
     <path id="m722db3e42e" d="M 87.669818 -54.286141 
L 87.669818 -132.896562 
L 95.440805 -128.708302 
L 103.211791 -127.983411 
L 110.982778 -115.030557 
L 118.753764 -134.683163 
L 126.52475 -131.668275 
L 134.295737 -120.851417 
L 142.066723 -142.981452 
L 149.83771 -131.458567 
L 157.608696 -130.439987 
L 165.379683 -132.042101 
L 173.150669 -124.633535 
L 180.921656 -138.023329 
L 188.692642 -115.42758 
L 196.463629 -125.219763 
L 204.234615 -119.572762 
L 212.005602 -128.966041 
L 219.776588 -138.116786 
L 227.547574 -118.824326 
L 235.318561 -126.78832 
L 243.089547 -131.324354 
L 250.860534 -127.000781 
L 258.63152 -126.690477 
L 266.402507 -112.413565 
L 274.173493 -132.042101 
L 281.94448 -115.954661 
L 289.715466 -130.931302 
L 297.486453 -117.432217 
L 305.257439 -135.741019 
L 313.028426 -124.128477 
L 320.799412 -135.704078 
L 328.570398 -126.060874 
L 336.341385 -127.369267 
L 344.112371 -132.120802 
L 351.883358 -136.827084 
L 359.654344 -147.477528 
L 367.425331 -139.119888 
L 375.196317 -136.827084 
L 382.967304 -119.542869 
L 390.73829 -134.164472 
L 398.509277 -132.241476 
L 406.280263 -133.314703 
L 414.05125 -116.817158 
L 421.822236 -132.647795 
L 429.593222 -127.655868 
L 437.364209 -135.967282 
L 445.135195 -121.772446 
L 452.906182 -152.549168 
L 452.906182 -54.286141 
L 452.906182 -54.286141 
L 445.135195 -54.286141 
L 437.364209 -54.286141 
L 429.593222 -54.286141 
L 421.822236 -54.286141 
L 414.05125 -54.286141 
L 406.280263 -54.286141 
L 398.509277 -54.286141 
L 390.73829 -54.286141 
L 382.967304 -54.286141 
L 375.196317 -54.286141 
L 367.425331 -54.286141 
L 359.654344 -54.286141 
L 351.883358 -54.286141 
L 344.112371 -54.286141 
L 336.341385 -54.286141 
L 328.570398 -54.286141 
L 320.799412 -54.286141 
L 313.028426 -54.286141 
L 305.257439 -54.286141 
L 297.486453 -54.286141 
L 289.715466 -54.286141 
L 281.94448 -54.286141 
L 274.173493 -54.286141 
L 266.402507 -54.286141 
L 258.63152 -54.286141 
L 250.860534 -54.286141 
L 243.089547 -54.286141 
L 235.318561 -54.286141 
L 227.547574 -54.286141 
L 219.776588 -54.286141 
L 212.005602 -54.286141 
L 204.234615 -54.286141 
L 196.463629 -54.286141 
L 188.692642 -54.286141 
L 180.921656 -54.286141 
L 173.150669 -54.286141 
L 165.379683 -54.286141 
L 157.608696 -54.286141 
L 149.83771 -54.286141 
L 142.066723 -54.286141 
L 134.295737 -54.286141 
L 126.52475 -54.286141 
L 118.753764 -54.286141 
L 110.982778 -54.286141 
L 103.211791 -54.286141 
L 95.440805 -54.286141 
L 87.669818 -54.286141 
z
" style="stroke: #cccccc"/>
    </defs>
    <g clip-path="url(#p142c198ad7)">
     <use xlink:href="#m722db3e42e" x="0" y="437.326141" style="fill: #cccccc; stroke: #cccccc"/>
    </g>
   </g>
   <g id="matplotlib.axis_5">
    <g id="xtick_25">
     <g id="line2d_33">
      <g>
       <use xlink:href="#macab8aecbf" x="87.669818" y="383.04" style="fill: #222222; stroke: #222222; stroke-width: 0.8"/>
      </g>
     </g>
     <g id="text_9">
      <!-- J -->
      <g style="fill: #222222" transform="translate(86.416068 395.998672) scale(0.085 -0.085)">
       <defs>
        <path id="DejaVuSans-4a" d="M 628 4666 
L 1259 4666 
L 1259 325 
Q 1259 -519 939 -900 
Q 619 -1281 -91 -1281 
L -331 -1281 
L -331 -750 
L -134 -750 
Q 284 -750 456 -515 
Q 628 -281 628 325 
L 628 4666 
z
" transform="scale(0.015625)"/>
       </defs>
       <use xlink:href="#DejaVuSans-4a"/>
      </g>
     </g>
    </g>
    <g id="xtick_26">
     <g id="line2d_34">
      <g>
       <use xlink:href="#macab8aecbf" x="118.753764" y="383.04" style="fill: #222222; stroke: #222222; stroke-width: 0.8"/>
      </g>
     </g>
     <g id="text_10">
      <!-- F -->
      <g style="fill: #222222" transform="translate(116.30935 395.998672) scale(0.085 -0.085)">
       <defs>
        <path id="DejaVuSans-46" d="M 628 4666 
L 3309 4666 
L 3309 4134 
L 1259 4134 
L 1259 2759 
L 3109 2759 
L 3109 2228 
L 1259 2228 
L 1259 0 
L 628 0 
L 628 4666 
z
" transform="scale(0.015625)"/>
       </defs>
       <use xlink:href="#DejaVuSans-46"/>
      </g>
     </g>
    </g>
    <g id="xtick_27">
     <g id="line2d_35">
      <g>
       <use xlink:href="#macab8aecbf" x="149.83771" y="383.04" style="fill: #222222; stroke: #222222; stroke-width: 0.8"/>
      </g>
     </g>
     <g id="text_11">
      <!-- M -->
      <g style="fill: #222222" transform="translate(146.170757 395.998672) scale(0.085 -0.085)">
       <use xlink:href="#DejaVuSans-4d"/>
      </g>
     </g>
    </g>
    <g id="xtick_28">
     <g id="line2d_36">
      <g>
       <use xlink:href="#macab8aecbf" x="180.921656" y="383.04" style="fill: #222222; stroke: #222222; stroke-width: 0.8"/>
      </g>
     </g>
     <g id="text_12">
      <!-- A -->
      <g style="fill: #222222" transform="translate(178.01439 395.998672) scale(0.085 -0.085)">
       <use xlink:href="#DejaVuSans-41"/>
      </g>
     </g>
    </g>
    <g id="xtick_29">
     <g id="line2d_37">
      <g>
       <use xlink:href="#macab8aecbf" x="212.005602" y="383.04" style="fill: #222222; stroke: #222222; stroke-width: 0.8"/>
      </g>
     </g>
     <g id="text_13">
      <!-- M -->
      <g style="fill: #222222" transform="translate(208.338648 395.998672) scale(0.085 -0.085)">
       <use xlink:href="#DejaVuSans-4d"/>
      </g>
     </g>
    </g>
    <g id="xtick_30">
     <g id="line2d_38">
      <g>
       <use xlink:href="#macab8aecbf" x="243.089547" y="383.04" style="fill: #222222; stroke: #222222; stroke-width: 0.8"/>
      </g>
     </g>
     <g id="text_14">
      <!-- J -->
      <g style="fill: #222222" transform="translate(241.835797 395.998672) scale(0.085 -0.085)">
       <use xlink:href="#DejaVuSans-4a"/>
      </g>
     </g>
    </g>
    <g id="xtick_31">
     <g id="line2d_39">
      <g>
       <use xlink:href="#macab8aecbf" x="274.173493" y="383.04" style="fill: #222222; stroke: #222222; stroke-width: 0.8"/>
      </g>
     </g>
     <g id="text_15">
      <!-- J -->
      <g style="fill: #222222" transform="translate(272.919743 395.998672) scale(0.085 -0.085)">
       <use xlink:href="#DejaVuSans-4a"/>
      </g>
     </g>
    </g>
    <g id="xtick_32">
     <g id="line2d_40">
      <g>
       <use xlink:href="#macab8aecbf" x="305.257439" y="383.04" style="fill: #222222; stroke: #222222; stroke-width: 0.8"/>
      </g>
     </g>
     <g id="text_16">
      <!-- A -->
      <g style="fill: #222222" transform="translate(302.350173 395.998672) scale(0.085 -0.085)">
       <use xlink:href="#DejaVuSans-41"/>
      </g>
     </g>
    </g>
    <g id="xtick_33">
     <g id="line2d_41">
      <g>
       <use xlink:href="#macab8aecbf" x="336.341385" y="383.04" style="fill: #222222; stroke: #222222; stroke-width: 0.8"/>
      </g>
     </g>
     <g id="text_17">
      <!-- S -->
      <g style="fill: #222222" transform="translate(333.643299 395.998672) scale(0.085 -0.085)">
       <use xlink:href="#DejaVuSans-53"/>
      </g>
     </g>
    </g>
    <g id="xtick_34">
     <g id="line2d_42">
      <g>
       <use xlink:href="#macab8aecbf" x="367.425331" y="383.04" style="fill: #222222; stroke: #222222; stroke-width: 0.8"/>
      </g>
     </g>
     <g id="text_18">
      <!-- O -->
      <g style="fill: #222222" transform="translate(364.079784 395.998672) scale(0.085 -0.085)">
       <defs>
        <path id="DejaVuSans-4f" d="M 2522 4238 
Q 1834 4238 1429 3725 
Q 1025 3213 1025 2328 
Q 1025 1447 1429 934 
Q 1834 422 2522 422 
Q 3209 422 3611 934 
Q 4013 1447 4013 2328 
Q 4013 3213 3611 3725 
Q 3209 4238 2522 4238 
z
M 2522 4750 
Q 3503 4750 4090 4092 
Q 4678 3434 4678 2328 
Q 4678 1225 4090 567 
Q 3503 -91 2522 -91 
Q 1538 -91 948 565 
Q 359 1222 359 2328 
Q 359 3434 948 4092 
Q 1538 4750 2522 4750 
z
" transform="scale(0.015625)"/>
       </defs>
       <use xlink:href="#DejaVuSans-4f"/>
      </g>
     </g>
    </g>
    <g id="xtick_35">
     <g id="line2d_43">
      <g>
       <use xlink:href="#macab8aecbf" x="398.509277" y="383.04" style="fill: #222222; stroke: #222222; stroke-width: 0.8"/>
      </g>
     </g>
     <g id="text_19">
      <!-- N -->
      <g style="fill: #222222" transform="translate(395.329745 395.998672) scale(0.085 -0.085)">
       <defs>
        <path id="DejaVuSans-4e" d="M 628 4666 
L 1478 4666 
L 3547 763 
L 3547 4666 
L 4159 4666 
L 4159 0 
L 3309 0 
L 1241 3903 
L 1241 0 
L 628 0 
L 628 4666 
z
" transform="scale(0.015625)"/>
       </defs>
       <use xlink:href="#DejaVuSans-4e"/>
      </g>
     </g>
    </g>
    <g id="xtick_36">
     <g id="line2d_44">
      <g>
       <use xlink:href="#macab8aecbf" x="429.593222" y="383.04" style="fill: #222222; stroke: #222222; stroke-width: 0.8"/>
      </g>
     </g>
     <g id="text_20">
      <!-- D -->
      <g style="fill: #222222" transform="translate(426.320722 395.998672) scale(0.085 -0.085)">
       <defs>
        <path id="DejaVuSans-44" d="M 1259 4147 
L 1259 519 
L 2022 519 
Q 2988 519 3436 956 
Q 3884 1394 3884 2338 
Q 3884 3275 3436 3711 
Q 2988 4147 2022 4147 
L 1259 4147 
z
M 628 4666 
L 1925 4666 
Q 3281 4666 3915 4102 
Q 4550 3538 4550 2338 
Q 4550 1131 3912 565 
Q 3275 0 1925 0 
L 628 0 
L 628 4666 
z
" transform="scale(0.015625)"/>
       </defs>
       <use xlink:href="#DejaVuSans-44"/>
      </g>
     </g>
    </g>
   </g>
   <g id="matplotlib.axis_6">
    <g id="ytick_5">
     <g id="line2d_45">
      <g>
       <use xlink:href="#m1bc662e982" x="69.408" y="383.04" style="fill: #222222; stroke: #222222; stroke-width: 0.8"/>
      </g>
     </g>
     <g id="text_21">
      <!-- 0 -->
      <g style="fill: #222222" transform="translate(57.818 386.079375) scale(0.08 -0.08)">
       <use xlink:href="#DejaVuSans-30"/>
      </g>
     </g>
    </g>
    <g id="ytick_6">
     <g id="line2d_46">
      <g>
       <use xlink:href="#m1bc662e982" x="69.408" y="314.255881" style="fill: #222222; stroke: #222222; stroke-width: 0.8"/>
      </g>
     </g>
     <g id="text_22">
      <!-- 50% -->
      <g style="fill: #222222" transform="translate(45.12675 317.295256) scale(0.08 -0.08)">
       <use xlink:href="#DejaVuSans-35"/>
       <use xlink:href="#DejaVuSans-30" transform="translate(63.623047 0)"/>
       <use xlink:href="#DejaVuSans-25" transform="translate(127.246094 0)"/>
      </g>
     </g>
    </g>
   </g>
   <g id="line2d_47">
    <path d="M 87.669818 304.429578 
L 95.440805 308.617838 
L 103.211791 309.34273 
L 110.982778 322.295583 
L 118.753764 302.642978 
L 126.52475 305.657866 
L 134.295737 316.474723 
L 142.066723 294.344689 
L 149.83771 305.867574 
L 157.608696 306.886154 
L 165.379683 305.284039 
L 173.150669 312.692605 
L 180.921656 299.302812 
L 188.692642 321.898561 
L 196.463629 312.106377 
L 204.234615 317.753378 
L 212.005602 308.360099 
L 219.776588 299.209355 
L 227.547574 318.501814 
L 235.318561 310.53782 
L 243.089547 306.001787 
L 250.860534 310.32536 
L 258.63152 310.635664 
L 266.402507 324.912575 
L 274.173493 305.284039 
L 281.94448 321.371479 
L 289.715466 306.394839 
L 297.486453 319.893923 
L 305.257439 301.585122 
L 313.028426 313.197664 
L 320.799412 301.622063 
L 328.570398 311.265267 
L 336.341385 309.956873 
L 344.112371 305.205339 
L 351.883358 300.499057 
L 359.654344 289.848613 
L 367.425331 298.206253 
L 375.196317 300.499057 
L 382.967304 317.783272 
L 390.73829 303.161668 
L 398.509277 305.084665 
L 406.280263 304.011438 
L 414.05125 320.508983 
L 421.822236 304.678345 
L 429.593222 309.670273 
L 437.364209 301.358859 
L 445.135195 315.553694 
L 452.906182 284.776973 
" clip-path="url(#p142c198ad7)" style="fill: none; stroke: #222222; stroke-width: 1.4; stroke-linecap: square"/>
   </g>
   <g id="patch_9">
    <path d="M 69.408 383.04 
L 69.408 314.255881 
" style="fill: none; stroke: #222222; stroke-width: 0.8; stroke-linejoin: miter; stroke-linecap: square"/>
   </g>
   <g id="patch_10">
    <path d="M 87.669818 383.04 
L 452.906182 383.04 
" style="fill: none; stroke: #222222; stroke-width: 0.8; stroke-linejoin: miter; stroke-linecap: square"/>
   </g>
   <g id="line2d_48">
    <g clip-path="url(#p142c198ad7)">
     <use xlink:href="#m0f21ae9645" x="452.906182" y="284.776973" style="fill: #c0392b; stroke: #c0392b"/>
    </g>
   </g>
   <g id="text_23">
    <!-- Northern Cardinal · Central Park  —  resident, flat year-round -->
    <g style="fill: #222222" transform="translate(69.408 287.747692) scale(0.095 -0.095)">
     <defs>
      <path id="DejaVuSans-66" d="M 2375 4863 
L 2375 4384 
L 1825 4384 
Q 1516 4384 1395 4259 
Q 1275 4134 1275 3809 
L 1275 3500 
L 2222 3500 
L 2222 3053 
L 1275 3053 
L 1275 0 
L 697 0 
L 697 3053 
L 147 3053 
L 147 3500 
L 697 3500 
L 697 3744 
Q 697 4328 969 4595 
Q 1241 4863 1831 4863 
L 2375 4863 
z
" transform="scale(0.015625)"/>
      <path id="DejaVuSans-2d" d="M 313 2009 
L 1997 2009 
L 1997 1497 
L 313 1497 
L 313 2009 
z
" transform="scale(0.015625)"/>
     </defs>
     <use xlink:href="#DejaVuSans-4e"/>
     <use xlink:href="#DejaVuSans-6f" transform="translate(74.804688 0)"/>
     <use xlink:href="#DejaVuSans-72" transform="translate(135.986328 0)"/>
     <use xlink:href="#DejaVuSans-74" transform="translate(177.099609 0)"/>
     <use xlink:href="#DejaVuSans-68" transform="translate(216.308594 0)"/>
     <use xlink:href="#DejaVuSans-65" transform="translate(279.6875 0)"/>
     <use xlink:href="#DejaVuSans-72" transform="translate(341.210938 0)"/>
     <use xlink:href="#DejaVuSans-6e" transform="translate(380.574219 0)"/>
     <use xlink:href="#DejaVuSans-20" transform="translate(443.953125 0)"/>
     <use xlink:href="#DejaVuSans-43" transform="translate(475.740234 0)"/>
     <use xlink:href="#DejaVuSans-61" transform="translate(545.564453 0)"/>
     <use xlink:href="#DejaVuSans-72" transform="translate(606.84375 0)"/>
     <use xlink:href="#DejaVuSans-64" transform="translate(646.207031 0)"/>
     <use xlink:href="#DejaVuSans-69" transform="translate(709.683594 0)"/>
     <use xlink:href="#DejaVuSans-6e" transform="translate(737.466797 0)"/>
     <use xlink:href="#DejaVuSans-61" transform="translate(800.845703 0)"/>
     <use xlink:href="#DejaVuSans-6c" transform="translate(862.125 0)"/>
     <use xlink:href="#DejaVuSans-20" transform="translate(889.908203 0)"/>
     <use xlink:href="#DejaVuSans-b7" transform="translate(921.695312 0)"/>
     <use xlink:href="#DejaVuSans-20" transform="translate(953.482422 0)"/>
     <use xlink:href="#DejaVuSans-43" transform="translate(985.269531 0)"/>
     <use xlink:href="#DejaVuSans-65" transform="translate(1055.09375 0)"/>
     <use xlink:href="#DejaVuSans-6e" transform="translate(1116.617188 0)"/>
     <use xlink:href="#DejaVuSans-74" transform="translate(1179.996094 0)"/>
     <use xlink:href="#DejaVuSans-72" transform="translate(1219.205078 0)"/>
     <use xlink:href="#DejaVuSans-61" transform="translate(1260.318359 0)"/>
     <use xlink:href="#DejaVuSans-6c" transform="translate(1321.597656 0)"/>
     <use xlink:href="#DejaVuSans-20" transform="translate(1349.380859 0)"/>
     <use xlink:href="#DejaVuSans-50" transform="translate(1381.167969 0)"/>
     <use xlink:href="#DejaVuSans-61" transform="translate(1436.970703 0)"/>
     <use xlink:href="#DejaVuSans-72" transform="translate(1498.25 0)"/>
     <use xlink:href="#DejaVuSans-6b" transform="translate(1539.363281 0)"/>
     <use xlink:href="#DejaVuSans-20" transform="translate(1597.273438 0)"/>
     <use xlink:href="#DejaVuSans-20" transform="translate(1629.060547 0)"/>
     <use xlink:href="#DejaVuSans-2014" transform="translate(1660.847656 0)"/>
     <use xlink:href="#DejaVuSans-20" transform="translate(1760.847656 0)"/>
     <use xlink:href="#DejaVuSans-20" transform="translate(1792.634766 0)"/>
     <use xlink:href="#DejaVuSans-72" transform="translate(1824.421875 0)"/>
     <use xlink:href="#DejaVuSans-65" transform="translate(1863.285156 0)"/>
     <use xlink:href="#DejaVuSans-73" transform="translate(1924.808594 0)"/>
     <use xlink:href="#DejaVuSans-69" transform="translate(1976.908203 0)"/>
     <use xlink:href="#DejaVuSans-64" transform="translate(2004.691406 0)"/>
     <use xlink:href="#DejaVuSans-65" transform="translate(2068.167969 0)"/>
     <use xlink:href="#DejaVuSans-6e" transform="translate(2129.691406 0)"/>
     <use xlink:href="#DejaVuSans-74" transform="translate(2193.070312 0)"/>
     <use xlink:href="#DejaVuSans-2c" transform="translate(2232.279297 0)"/>
     <use xlink:href="#DejaVuSans-20" transform="translate(2264.066406 0)"/>
     <use xlink:href="#DejaVuSans-66" transform="translate(2295.853516 0)"/>
     <use xlink:href="#DejaVuSans-6c" transform="translate(2331.058594 0)"/>
     <use xlink:href="#DejaVuSans-61" transform="translate(2358.841797 0)"/>
     <use xlink:href="#DejaVuSans-74" transform="translate(2420.121094 0)"/>
     <use xlink:href="#DejaVuSans-20" transform="translate(2459.330078 0)"/>
     <use xlink:href="#DejaVuSans-79" transform="translate(2491.117188 0)"/>
     <use xlink:href="#DejaVuSans-65" transform="translate(2550.296875 0)"/>
     <use xlink:href="#DejaVuSans-61" transform="translate(2611.820312 0)"/>
     <use xlink:href="#DejaVuSans-72" transform="translate(2673.099609 0)"/>
     <use xlink:href="#DejaVuSans-2d" transform="translate(2707.837891 0)"/>
     <use xlink:href="#DejaVuSans-72" transform="translate(2743.921875 0)"/>
     <use xlink:href="#DejaVuSans-6f" transform="translate(2782.785156 0)"/>
     <use xlink:href="#DejaVuSans-75" transform="translate(2843.966797 0)"/>
     <use xlink:href="#DejaVuSans-6e" transform="translate(2907.345703 0)"/>
     <use xlink:href="#DejaVuSans-64" transform="translate(2970.724609 0)"/>
    </g>
   </g>
  </g>
  <g id="text_24">
   <!-- When to go: detection probability across the year -->
   <g style="fill: #222222" transform="translate(7.2 17.077969) scale(0.13 -0.13)">
    <defs>
     <path id="DejaVuSans-Bold-57" d="M 191 4666 
L 1344 4666 
L 2150 1275 
L 2950 4666 
L 4109 4666 
L 4909 1275 
L 5716 4666 
L 6859 4666 
L 5759 0 
L 4372 0 
L 3525 3547 
L 2688 0 
L 1300 0 
L 191 4666 
z
" transform="scale(0.015625)"/>
     <path id="DejaVuSans-Bold-68" d="M 4056 2131 
L 4056 0 
L 2931 0 
L 2931 347 
L 2931 1625 
Q 2931 2084 2911 2256 
Q 2891 2428 2841 2509 
Q 2775 2619 2662 2680 
Q 2550 2741 2406 2741 
Q 2056 2741 1856 2470 
Q 1656 2200 1656 1722 
L 1656 0 
L 538 0 
L 538 4863 
L 1656 4863 
L 1656 2988 
Q 1909 3294 2193 3439 
Q 2478 3584 2822 3584 
Q 3428 3584 3742 3212 
Q 4056 2841 4056 2131 
z
" transform="scale(0.015625)"/>
     <path id="DejaVuSans-Bold-65" d="M 4031 1759 
L 4031 1441 
L 1416 1441 
Q 1456 1047 1700 850 
Q 1944 653 2381 653 
Q 2734 653 3104 758 
Q 3475 863 3866 1075 
L 3866 213 
Q 3469 63 3072 -14 
Q 2675 -91 2278 -91 
Q 1328 -91 801 392 
Q 275 875 275 1747 
Q 275 2603 792 3093 
Q 1309 3584 2216 3584 
Q 3041 3584 3536 3087 
Q 4031 2591 4031 1759 
z
M 2881 2131 
Q 2881 2450 2695 2645 
Q 2509 2841 2209 2841 
Q 1884 2841 1681 2658 
Q 1478 2475 1428 2131 
L 2881 2131 
z
" transform="scale(0.015625)"/>
     <path id="DejaVuSans-Bold-6e" d="M 4056 2131 
L 4056 0 
L 2931 0 
L 2931 347 
L 2931 1631 
Q 2931 2084 2911 2256 
Q 2891 2428 2841 2509 
Q 2775 2619 2662 2680 
Q 2550 2741 2406 2741 
Q 2056 2741 1856 2470 
Q 1656 2200 1656 1722 
L 1656 0 
L 538 0 
L 538 3500 
L 1656 3500 
L 1656 2988 
Q 1909 3294 2193 3439 
Q 2478 3584 2822 3584 
Q 3428 3584 3742 3212 
Q 4056 2841 4056 2131 
z
" transform="scale(0.015625)"/>
     <path id="DejaVuSans-Bold-20" transform="scale(0.015625)"/>
     <path id="DejaVuSans-Bold-74" d="M 1759 4494 
L 1759 3500 
L 2913 3500 
L 2913 2700 
L 1759 2700 
L 1759 1216 
Q 1759 972 1856 886 
Q 1953 800 2241 800 
L 2816 800 
L 2816 0 
L 1856 0 
Q 1194 0 917 276 
Q 641 553 641 1216 
L 641 2700 
L 84 2700 
L 84 3500 
L 641 3500 
L 641 4494 
L 1759 4494 
z
" transform="scale(0.015625)"/>
     <path id="DejaVuSans-Bold-6f" d="M 2203 2784 
Q 1831 2784 1636 2517 
Q 1441 2250 1441 1747 
Q 1441 1244 1636 976 
Q 1831 709 2203 709 
Q 2569 709 2762 976 
Q 2956 1244 2956 1747 
Q 2956 2250 2762 2517 
Q 2569 2784 2203 2784 
z
M 2203 3584 
Q 3106 3584 3614 3096 
Q 4122 2609 4122 1747 
Q 4122 884 3614 396 
Q 3106 -91 2203 -91 
Q 1297 -91 786 396 
Q 275 884 275 1747 
Q 275 2609 786 3096 
Q 1297 3584 2203 3584 
z
" transform="scale(0.015625)"/>
     <path id="DejaVuSans-Bold-67" d="M 2919 594 
Q 2688 288 2409 144 
Q 2131 0 1766 0 
Q 1125 0 706 504 
Q 288 1009 288 1791 
Q 288 2575 706 3076 
Q 1125 3578 1766 3578 
Q 2131 3578 2409 3434 
Q 2688 3291 2919 2981 
L 2919 3500 
L 4044 3500 
L 4044 353 
Q 4044 -491 3511 -936 
Q 2978 -1381 1966 -1381 
Q 1638 -1381 1331 -1331 
Q 1025 -1281 716 -1178 
L 716 -306 
Q 1009 -475 1290 -558 
Q 1572 -641 1856 -641 
Q 2406 -641 2662 -400 
Q 2919 -159 2919 353 
L 2919 594 
z
M 2181 2772 
Q 1834 2772 1640 2515 
Q 1447 2259 1447 1791 
Q 1447 1309 1634 1061 
Q 1822 813 2181 813 
Q 2531 813 2725 1069 
Q 2919 1325 2919 1791 
Q 2919 2259 2725 2515 
Q 2531 2772 2181 2772 
z
" transform="scale(0.015625)"/>
     <path id="DejaVuSans-Bold-3a" d="M 716 3500 
L 1844 3500 
L 1844 2291 
L 716 2291 
L 716 3500 
z
M 716 1209 
L 1844 1209 
L 1844 0 
L 716 0 
L 716 1209 
z
" transform="scale(0.015625)"/>
     <path id="DejaVuSans-Bold-64" d="M 2919 2988 
L 2919 4863 
L 4044 4863 
L 4044 0 
L 2919 0 
L 2919 506 
Q 2688 197 2409 53 
Q 2131 -91 1766 -91 
Q 1119 -91 703 423 
Q 288 938 288 1747 
Q 288 2556 703 3070 
Q 1119 3584 1766 3584 
Q 2128 3584 2408 3439 
Q 2688 3294 2919 2988 
z
M 2181 722 
Q 2541 722 2730 984 
Q 2919 1247 2919 1747 
Q 2919 2247 2730 2509 
Q 2541 2772 2181 2772 
Q 1825 2772 1636 2509 
Q 1447 2247 1447 1747 
Q 1447 1247 1636 984 
Q 1825 722 2181 722 
z
" transform="scale(0.015625)"/>
     <path id="DejaVuSans-Bold-63" d="M 3366 3391 
L 3366 2478 
Q 3138 2634 2908 2709 
Q 2678 2784 2431 2784 
Q 1963 2784 1702 2511 
Q 1441 2238 1441 1747 
Q 1441 1256 1702 982 
Q 1963 709 2431 709 
Q 2694 709 2930 787 
Q 3166 866 3366 1019 
L 3366 103 
Q 3103 6 2833 -42 
Q 2563 -91 2291 -91 
Q 1344 -91 809 395 
Q 275 881 275 1747 
Q 275 2613 809 3098 
Q 1344 3584 2291 3584 
Q 2566 3584 2833 3536 
Q 3100 3488 3366 3391 
z
" transform="scale(0.015625)"/>
     <path id="DejaVuSans-Bold-69" d="M 538 3500 
L 1656 3500 
L 1656 0 
L 538 0 
L 538 3500 
z
M 538 4863 
L 1656 4863 
L 1656 3950 
L 538 3950 
L 538 4863 
z
" transform="scale(0.015625)"/>
     <path id="DejaVuSans-Bold-70" d="M 1656 506 
L 1656 -1331 
L 538 -1331 
L 538 3500 
L 1656 3500 
L 1656 2988 
Q 1888 3294 2169 3439 
Q 2450 3584 2816 3584 
Q 3463 3584 3878 3070 
Q 4294 2556 4294 1747 
Q 4294 938 3878 423 
Q 3463 -91 2816 -91 
Q 2450 -91 2169 54 
Q 1888 200 1656 506 
z
M 2400 2772 
Q 2041 2772 1848 2508 
Q 1656 2244 1656 1747 
Q 1656 1250 1848 986 
Q 2041 722 2400 722 
Q 2759 722 2948 984 
Q 3138 1247 3138 1747 
Q 3138 2247 2948 2509 
Q 2759 2772 2400 2772 
z
" transform="scale(0.015625)"/>
     <path id="DejaVuSans-Bold-72" d="M 3138 2547 
Q 2991 2616 2845 2648 
Q 2700 2681 2553 2681 
Q 2122 2681 1889 2404 
Q 1656 2128 1656 1613 
L 1656 0 
L 538 0 
L 538 3500 
L 1656 3500 
L 1656 2925 
Q 1872 3269 2151 3426 
Q 2431 3584 2822 3584 
Q 2878 3584 2943 3579 
Q 3009 3575 3134 3559 
L 3138 2547 
z
" transform="scale(0.015625)"/>
     <path id="DejaVuSans-Bold-62" d="M 2400 722 
Q 2759 722 2948 984 
Q 3138 1247 3138 1747 
Q 3138 2247 2948 2509 
Q 2759 2772 2400 2772 
Q 2041 2772 1848 2508 
Q 1656 2244 1656 1747 
Q 1656 1250 1848 986 
Q 2041 722 2400 722 
z
M 1656 2988 
Q 1888 3294 2169 3439 
Q 2450 3584 2816 3584 
Q 3463 3584 3878 3070 
Q 4294 2556 4294 1747 
Q 4294 938 3878 423 
Q 3463 -91 2816 -91 
Q 2450 -91 2169 54 
Q 1888 200 1656 506 
L 1656 0 
L 538 0 
L 538 4863 
L 1656 4863 
L 1656 2988 
z
" transform="scale(0.015625)"/>
     <path id="DejaVuSans-Bold-61" d="M 2106 1575 
Q 1756 1575 1579 1456 
Q 1403 1338 1403 1106 
Q 1403 894 1545 773 
Q 1688 653 1941 653 
Q 2256 653 2472 879 
Q 2688 1106 2688 1447 
L 2688 1575 
L 2106 1575 
z
M 3816 1997 
L 3816 0 
L 2688 0 
L 2688 519 
Q 2463 200 2181 54 
Q 1900 -91 1497 -91 
Q 953 -91 614 226 
Q 275 544 275 1050 
Q 275 1666 698 1953 
Q 1122 2241 2028 2241 
L 2688 2241 
L 2688 2328 
Q 2688 2594 2478 2717 
Q 2269 2841 1825 2841 
Q 1466 2841 1156 2769 
Q 847 2697 581 2553 
L 581 3406 
Q 941 3494 1303 3539 
Q 1666 3584 2028 3584 
Q 2975 3584 3395 3211 
Q 3816 2838 3816 1997 
z
" transform="scale(0.015625)"/>
     <path id="DejaVuSans-Bold-6c" d="M 538 4863 
L 1656 4863 
L 1656 0 
L 538 0 
L 538 4863 
z
" transform="scale(0.015625)"/>
     <path id="DejaVuSans-Bold-79" d="M 78 3500 
L 1197 3500 
L 2138 1125 
L 2938 3500 
L 4056 3500 
L 2584 -331 
Q 2363 -916 2067 -1148 
Q 1772 -1381 1288 -1381 
L 641 -1381 
L 641 -647 
L 991 -647 
Q 1275 -647 1404 -556 
Q 1534 -466 1606 -231 
L 1638 -134 
L 78 3500 
z
" transform="scale(0.015625)"/>
     <path id="DejaVuSans-Bold-73" d="M 3272 3391 
L 3272 2541 
Q 2913 2691 2578 2766 
Q 2244 2841 1947 2841 
Q 1628 2841 1473 2761 
Q 1319 2681 1319 2516 
Q 1319 2381 1436 2309 
Q 1553 2238 1856 2203 
L 2053 2175 
Q 2913 2066 3209 1816 
Q 3506 1566 3506 1031 
Q 3506 472 3093 190 
Q 2681 -91 1863 -91 
Q 1516 -91 1145 -36 
Q 775 19 384 128 
L 384 978 
Q 719 816 1070 734 
Q 1422 653 1784 653 
Q 2113 653 2278 743 
Q 2444 834 2444 1013 
Q 2444 1163 2330 1236 
Q 2216 1309 1875 1350 
L 1678 1375 
Q 931 1469 631 1722 
Q 331 1975 331 2491 
Q 331 3047 712 3315 
Q 1094 3584 1881 3584 
Q 2191 3584 2531 3537 
Q 2872 3491 3272 3391 
z
" transform="scale(0.015625)"/>
    </defs>
    <use xlink:href="#DejaVuSans-Bold-57"/>
    <use xlink:href="#DejaVuSans-Bold-68" transform="translate(110.302734 0)"/>
    <use xlink:href="#DejaVuSans-Bold-65" transform="translate(181.494141 0)"/>
    <use xlink:href="#DejaVuSans-Bold-6e" transform="translate(249.316406 0)"/>
    <use xlink:href="#DejaVuSans-Bold-20" transform="translate(320.507812 0)"/>
    <use xlink:href="#DejaVuSans-Bold-74" transform="translate(355.322266 0)"/>
    <use xlink:href="#DejaVuSans-Bold-6f" transform="translate(403.125 0)"/>
    <use xlink:href="#DejaVuSans-Bold-20" transform="translate(471.826172 0)"/>
    <use xlink:href="#DejaVuSans-Bold-67" transform="translate(506.640625 0)"/>
    <use xlink:href="#DejaVuSans-Bold-6f" transform="translate(578.222656 0)"/>
    <use xlink:href="#DejaVuSans-Bold-3a" transform="translate(646.923828 0)"/>
    <use xlink:href="#DejaVuSans-Bold-20" transform="translate(686.914062 0)"/>
    <use xlink:href="#DejaVuSans-Bold-64" transform="translate(721.728516 0)"/>
    <use xlink:href="#DejaVuSans-Bold-65" transform="translate(793.310547 0)"/>
    <use xlink:href="#DejaVuSans-Bold-74" transform="translate(861.132812 0)"/>
    <use xlink:href="#DejaVuSans-Bold-65" transform="translate(908.935547 0)"/>
    <use xlink:href="#DejaVuSans-Bold-63" transform="translate(976.757812 0)"/>
    <use xlink:href="#DejaVuSans-Bold-74" transform="translate(1036.035156 0)"/>
    <use xlink:href="#DejaVuSans-Bold-69" transform="translate(1083.837891 0)"/>
    <use xlink:href="#DejaVuSans-Bold-6f" transform="translate(1118.115234 0)"/>
    <use xlink:href="#DejaVuSans-Bold-6e" transform="translate(1186.816406 0)"/>
    <use xlink:href="#DejaVuSans-Bold-20" transform="translate(1258.007812 0)"/>
    <use xlink:href="#DejaVuSans-Bold-70" transform="translate(1292.822266 0)"/>
    <use xlink:href="#DejaVuSans-Bold-72" transform="translate(1364.404297 0)"/>
    <use xlink:href="#DejaVuSans-Bold-6f" transform="translate(1413.720703 0)"/>
    <use xlink:href="#DejaVuSans-Bold-62" transform="translate(1482.421875 0)"/>
    <use xlink:href="#DejaVuSans-Bold-61" transform="translate(1554.003906 0)"/>
    <use xlink:href="#DejaVuSans-Bold-62" transform="translate(1621.484375 0)"/>
    <use xlink:href="#DejaVuSans-Bold-69" transform="translate(1693.066406 0)"/>
    <use xlink:href="#DejaVuSans-Bold-6c" transform="translate(1727.34375 0)"/>
    <use xlink:href="#DejaVuSans-Bold-69" transform="translate(1761.621094 0)"/>
    <use xlink:href="#DejaVuSans-Bold-74" transform="translate(1795.898438 0)"/>
    <use xlink:href="#DejaVuSans-Bold-79" transform="translate(1843.701172 0)"/>
    <use xlink:href="#DejaVuSans-Bold-20" transform="translate(1908.886719 0)"/>
    <use xlink:href="#DejaVuSans-Bold-61" transform="translate(1943.701172 0)"/>
    <use xlink:href="#DejaVuSans-Bold-63" transform="translate(2011.181641 0)"/>
    <use xlink:href="#DejaVuSans-Bold-72" transform="translate(2070.458984 0)"/>
    <use xlink:href="#DejaVuSans-Bold-6f" transform="translate(2119.775391 0)"/>
    <use xlink:href="#DejaVuSans-Bold-73" transform="translate(2188.476562 0)"/>
    <use xlink:href="#DejaVuSans-Bold-73" transform="translate(2247.998047 0)"/>
    <use xlink:href="#DejaVuSans-Bold-20" transform="translate(2307.519531 0)"/>
    <use xlink:href="#DejaVuSans-Bold-74" transform="translate(2342.333984 0)"/>
    <use xlink:href="#DejaVuSans-Bold-68" transform="translate(2390.136719 0)"/>
    <use xlink:href="#DejaVuSans-Bold-65" transform="translate(2461.328125 0)"/>
    <use xlink:href="#DejaVuSans-Bold-20" transform="translate(2529.150391 0)"/>
    <use xlink:href="#DejaVuSans-Bold-79" transform="translate(2563.964844 0)"/>
    <use xlink:href="#DejaVuSans-Bold-65" transform="translate(2629.150391 0)"/>
    <use xlink:href="#DejaVuSans-Bold-61" transform="translate(2696.972656 0)"/>
    <use xlink:href="#DejaVuSans-Bold-72" transform="translate(2764.453125 0)"/>
   </g>
  </g>
  <g id="text_25">
   <!-- Shared vertical scale (chance of detection on one checklist). Same axes in every panel — only the species changes. -->
   <g style="fill: #999999" transform="translate(7.2 428.4) scale(0.083 -0.083)">
    <defs>
     <path id="DejaVuSans-76" d="M 191 3500 
L 800 3500 
L 1894 563 
L 2988 3500 
L 3597 3500 
L 2284 0 
L 1503 0 
L 191 3500 
z
" transform="scale(0.015625)"/>
     <path id="DejaVuSans-28" d="M 1984 4856 
Q 1566 4138 1362 3434 
Q 1159 2731 1159 2009 
Q 1159 1288 1364 580 
Q 1569 -128 1984 -844 
L 1484 -844 
Q 1016 -109 783 600 
Q 550 1309 550 2009 
Q 550 2706 781 3412 
Q 1013 4119 1484 4856 
L 1984 4856 
z
" transform="scale(0.015625)"/>
     <path id="DejaVuSans-29" d="M 513 4856 
L 1013 4856 
Q 1481 4119 1714 3412 
Q 1947 2706 1947 2009 
Q 1947 1309 1714 600 
Q 1481 -109 1013 -844 
L 513 -844 
Q 928 -128 1133 580 
Q 1338 1288 1338 2009 
Q 1338 2731 1133 3434 
Q 928 4138 513 4856 
z
" transform="scale(0.015625)"/>
     <path id="DejaVuSans-2e" d="M 684 794 
L 1344 794 
L 1344 0 
L 684 0 
L 684 794 
z
" transform="scale(0.015625)"/>
     <path id="DejaVuSans-78" d="M 3513 3500 
L 2247 1797 
L 3578 0 
L 2900 0 
L 1881 1375 
L 863 0 
L 184 0 
L 1544 1831 
L 300 3500 
L 978 3500 
L 1906 2253 
L 2834 3500 
L 3513 3500 
z
" transform="scale(0.015625)"/>
     <path id="DejaVuSans-67" d="M 2906 1791 
Q 2906 2416 2648 2759 
Q 2391 3103 1925 3103 
Q 1463 3103 1205 2759 
Q 947 2416 947 1791 
Q 947 1169 1205 825 
Q 1463 481 1925 481 
Q 2391 481 2648 825 
Q 2906 1169 2906 1791 
z
M 3481 434 
Q 3481 -459 3084 -895 
Q 2688 -1331 1869 -1331 
Q 1566 -1331 1297 -1286 
Q 1028 -1241 775 -1147 
L 775 -588 
Q 1028 -725 1275 -790 
Q 1522 -856 1778 -856 
Q 2344 -856 2625 -561 
Q 2906 -266 2906 331 
L 2906 616 
Q 2728 306 2450 153 
Q 2172 0 1784 0 
Q 1141 0 747 490 
Q 353 981 353 1791 
Q 353 2603 747 3093 
Q 1141 3584 1784 3584 
Q 2172 3584 2450 3431 
Q 2728 3278 2906 2969 
L 2906 3500 
L 3481 3500 
L 3481 434 
z
" transform="scale(0.015625)"/>
    </defs>
    <use xlink:href="#DejaVuSans-53"/>
    <use xlink:href="#DejaVuSans-68" transform="translate(63.476562 0)"/>
    <use xlink:href="#DejaVuSans-61" transform="translate(126.855469 0)"/>
    <use xlink:href="#DejaVuSans-72" transform="translate(188.134766 0)"/>
    <use xlink:href="#DejaVuSans-65" transform="translate(226.998047 0)"/>
    <use xlink:href="#DejaVuSans-64" transform="translate(288.521484 0)"/>
    <use xlink:href="#DejaVuSans-20" transform="translate(351.998047 0)"/>
    <use xlink:href="#DejaVuSans-76" transform="translate(383.785156 0)"/>
    <use xlink:href="#DejaVuSans-65" transform="translate(442.964844 0)"/>
    <use xlink:href="#DejaVuSans-72" transform="translate(504.488281 0)"/>
    <use xlink:href="#DejaVuSans-74" transform="translate(545.601562 0)"/>
    <use xlink:href="#DejaVuSans-69" transform="translate(584.810547 0)"/>
    <use xlink:href="#DejaVuSans-63" transform="translate(612.59375 0)"/>
    <use xlink:href="#DejaVuSans-61" transform="translate(667.574219 0)"/>
    <use xlink:href="#DejaVuSans-6c" transform="translate(728.853516 0)"/>
    <use xlink:href="#DejaVuSans-20" transform="translate(756.636719 0)"/>
    <use xlink:href="#DejaVuSans-73" transform="translate(788.423828 0)"/>
    <use xlink:href="#DejaVuSans-63" transform="translate(840.523438 0)"/>
    <use xlink:href="#DejaVuSans-61" transform="translate(895.503906 0)"/>
    <use xlink:href="#DejaVuSans-6c" transform="translate(956.783203 0)"/>
    <use xlink:href="#DejaVuSans-65" transform="translate(984.566406 0)"/>
    <use xlink:href="#DejaVuSans-20" transform="translate(1046.089844 0)"/>
    <use xlink:href="#DejaVuSans-28" transform="translate(1077.876953 0)"/>
    <use xlink:href="#DejaVuSans-63" transform="translate(1116.890625 0)"/>
    <use xlink:href="#DejaVuSans-68" transform="translate(1171.871094 0)"/>
    <use xlink:href="#DejaVuSans-61" transform="translate(1235.25 0)"/>
    <use xlink:href="#DejaVuSans-6e" transform="translate(1296.529297 0)"/>
    <use xlink:href="#DejaVuSans-63" transform="translate(1359.908203 0)"/>
    <use xlink:href="#DejaVuSans-65" transform="translate(1414.888672 0)"/>
    <use xlink:href="#DejaVuSans-20" transform="translate(1476.412109 0)"/>
    <use xlink:href="#DejaVuSans-6f" transform="translate(1508.199219 0)"/>
    <use xlink:href="#DejaVuSans-66" transform="translate(1569.380859 0)"/>
    <use xlink:href="#DejaVuSans-20" transform="translate(1604.585938 0)"/>
    <use xlink:href="#DejaVuSans-64" transform="translate(1636.373047 0)"/>
    <use xlink:href="#DejaVuSans-65" transform="translate(1699.849609 0)"/>
    <use xlink:href="#DejaVuSans-74" transform="translate(1761.373047 0)"/>
    <use xlink:href="#DejaVuSans-65" transform="translate(1800.582031 0)"/>
    <use xlink:href="#DejaVuSans-63" transform="translate(1862.105469 0)"/>
    <use xlink:href="#DejaVuSans-74" transform="translate(1917.085938 0)"/>
    <use xlink:href="#DejaVuSans-69" transform="translate(1956.294922 0)"/>
    <use xlink:href="#DejaVuSans-6f" transform="translate(1984.078125 0)"/>
    <use xlink:href="#DejaVuSans-6e" transform="translate(2045.259766 0)"/>
    <use xlink:href="#DejaVuSans-20" transform="translate(2108.638672 0)"/>
    <use xlink:href="#DejaVuSans-6f" transform="translate(2140.425781 0)"/>
    <use xlink:href="#DejaVuSans-6e" transform="translate(2201.607422 0)"/>
    <use xlink:href="#DejaVuSans-20" transform="translate(2264.986328 0)"/>
    <use xlink:href="#DejaVuSans-6f" transform="translate(2296.773438 0)"/>
    <use xlink:href="#DejaVuSans-6e" transform="translate(2357.955078 0)"/>
    <use xlink:href="#DejaVuSans-65" transform="translate(2421.333984 0)"/>
    <use xlink:href="#DejaVuSans-20" transform="translate(2482.857422 0)"/>
    <use xlink:href="#DejaVuSans-63" transform="translate(2514.644531 0)"/>
    <use xlink:href="#DejaVuSans-68" transform="translate(2569.625 0)"/>
    <use xlink:href="#DejaVuSans-65" transform="translate(2633.003906 0)"/>
    <use xlink:href="#DejaVuSans-63" transform="translate(2694.527344 0)"/>
    <use xlink:href="#DejaVuSans-6b" transform="translate(2749.507812 0)"/>
    <use xlink:href="#DejaVuSans-6c" transform="translate(2807.417969 0)"/>
    <use xlink:href="#DejaVuSans-69" transform="translate(2835.201172 0)"/>
    <use xlink:href="#DejaVuSans-73" transform="translate(2862.984375 0)"/>
    <use xlink:href="#DejaVuSans-74" transform="translate(2915.083984 0)"/>
    <use xlink:href="#DejaVuSans-29" transform="translate(2954.292969 0)"/>
    <use xlink:href="#DejaVuSans-2e" transform="translate(2993.306641 0)"/>
    <use xlink:href="#DejaVuSans-20" transform="translate(3025.09375 0)"/>
    <use xlink:href="#DejaVuSans-53" transform="translate(3056.880859 0)"/>
    <use xlink:href="#DejaVuSans-61" transform="translate(3120.357422 0)"/>
    <use xlink:href="#DejaVuSans-6d" transform="translate(3181.636719 0)"/>
    <use xlink:href="#DejaVuSans-65" transform="translate(3279.048828 0)"/>
    <use xlink:href="#DejaVuSans-20" transform="translate(3340.572266 0)"/>
    <use xlink:href="#DejaVuSans-61" transform="translate(3372.359375 0)"/>
    <use xlink:href="#DejaVuSans-78" transform="translate(3433.638672 0)"/>
    <use xlink:href="#DejaVuSans-65" transform="translate(3489.693359 0)"/>
    <use xlink:href="#DejaVuSans-73" transform="translate(3551.216797 0)"/>
    <use xlink:href="#DejaVuSans-20" transform="translate(3603.316406 0)"/>
    <use xlink:href="#DejaVuSans-69" transform="translate(3635.103516 0)"/>
    <use xlink:href="#DejaVuSans-6e" transform="translate(3662.886719 0)"/>
    <use xlink:href="#DejaVuSans-20" transform="translate(3726.265625 0)"/>
    <use xlink:href="#DejaVuSans-65" transform="translate(3758.052734 0)"/>
    <use xlink:href="#DejaVuSans-76" transform="translate(3819.576172 0)"/>
    <use xlink:href="#DejaVuSans-65" transform="translate(3878.755859 0)"/>
    <use xlink:href="#DejaVuSans-72" transform="translate(3940.279297 0)"/>
    <use xlink:href="#DejaVuSans-79" transform="translate(3981.392578 0)"/>
    <use xlink:href="#DejaVuSans-20" transform="translate(4040.572266 0)"/>
    <use xlink:href="#DejaVuSans-70" transform="translate(4072.359375 0)"/>
    <use xlink:href="#DejaVuSans-61" transform="translate(4135.835938 0)"/>
    <use xlink:href="#DejaVuSans-6e" transform="translate(4197.115234 0)"/>
    <use xlink:href="#DejaVuSans-65" transform="translate(4260.494141 0)"/>
    <use xlink:href="#DejaVuSans-6c" transform="translate(4322.017578 0)"/>
    <use xlink:href="#DejaVuSans-20" transform="translate(4349.800781 0)"/>
    <use xlink:href="#DejaVuSans-2014" transform="translate(4381.587891 0)"/>
    <use xlink:href="#DejaVuSans-20" transform="translate(4481.587891 0)"/>
    <use xlink:href="#DejaVuSans-6f" transform="translate(4513.375 0)"/>
    <use xlink:href="#DejaVuSans-6e" transform="translate(4574.556641 0)"/>
    <use xlink:href="#DejaVuSans-6c" transform="translate(4637.935547 0)"/>
    <use xlink:href="#DejaVuSans-79" transform="translate(4665.71875 0)"/>
    <use xlink:href="#DejaVuSans-20" transform="translate(4724.898438 0)"/>
    <use xlink:href="#DejaVuSans-74" transform="translate(4756.685547 0)"/>
    <use xlink:href="#DejaVuSans-68" transform="translate(4795.894531 0)"/>
    <use xlink:href="#DejaVuSans-65" transform="translate(4859.273438 0)"/>
    <use xlink:href="#DejaVuSans-20" transform="translate(4920.796875 0)"/>
    <use xlink:href="#DejaVuSans-73" transform="translate(4952.583984 0)"/>
    <use xlink:href="#DejaVuSans-70" transform="translate(5004.683594 0)"/>
    <use xlink:href="#DejaVuSans-65" transform="translate(5068.160156 0)"/>
    <use xlink:href="#DejaVuSans-63" transform="translate(5129.683594 0)"/>
    <use xlink:href="#DejaVuSans-69" transform="translate(5184.664062 0)"/>
    <use xlink:href="#DejaVuSans-65" transform="translate(5212.447266 0)"/>
    <use xlink:href="#DejaVuSans-73" transform="translate(5273.970703 0)"/>
    <use xlink:href="#DejaVuSans-20" transform="translate(5326.070312 0)"/>
    <use xlink:href="#DejaVuSans-63" transform="translate(5357.857422 0)"/>
    <use xlink:href="#DejaVuSans-68" transform="translate(5412.837891 0)"/>
    <use xlink:href="#DejaVuSans-61" transform="translate(5476.216797 0)"/>
    <use xlink:href="#DejaVuSans-6e" transform="translate(5537.496094 0)"/>
    <use xlink:href="#DejaVuSans-67" transform="translate(5600.875 0)"/>
    <use xlink:href="#DejaVuSans-65" transform="translate(5664.351562 0)"/>
    <use xlink:href="#DejaVuSans-73" transform="translate(5725.875 0)"/>
    <use xlink:href="#DejaVuSans-2e" transform="translate(5777.974609 0)"/>
   </g>
  </g>
 </g>
 <defs>
  <clipPath id="p4593cc64f1">
   <rect x="69.408" y="50.4" width="401.76" height="85.292308"/>
  </clipPath>
  <clipPath id="pc9f2391e3f">
   <rect x="69.408" y="174.073846" width="401.76" height="85.292308"/>
  </clipPath>
  <clipPath id="p142c198ad7">
   <rect x="69.408" y="297.747692" width="401.76" height="85.292308"/>
  </clipPath>
 </defs>
</svg>
