<?xml version="1.0" encoding="utf-8" standalone="no"?>
<!DOCTYPE svg PUBLIC "-//W3C//DTD SVG 1.1//EN"
  "http://www.w3.org/Graphics/SVG/1.1/DTD/svg11.dtd">
<svg xmlns:xlink="http://www.w3.org/1999/xlink" width="504.144pt" height="368.926141pt" viewBox="0 0 504.144 368.926141" xmlns="http://www.w3.org/2000/svg" version="1.1">
 <metadata>
  <rdf:RDF xmlns:dc="http://purl.org/dc/elements/1.1/" xmlns:cc="http://creativecommons.org/ns#" xmlns:rdf="http://www.w3.org/1999/02/22-rdf-syntax-ns#">
   <cc:Work>
    <dc:type rdf:resource="http://purl.org/dc/dcmitype/StillImage"/>
    <dc:date>2026-06-03T20:34:19.474000</dc:date>
    <dc:format>image/svg+xml</dc:format>
    <dc:creator>
     <cc:Agent>
      <dc:title>Matplotlib v3.10.8, https://matplotlib.org/</dc:title>
     </cc:Agent>
    </dc:creator>
   </cc:Work>
  </rdf:RDF>
 </metadata>
 <defs>
  <style type="text/css">*{stroke-linejoin: round; stroke-linecap: butt}</style>
 </defs>
 <g id="figure_1">
  <g id="patch_1">
   <path d="M 0 368.926141 
L 504.144 368.926141 
L 504.144 0 
L 0 0 
z
" style="fill: #ffffff"/>
  </g>
  <g id="axes_1">
   <g id="line2d_1">
    <path d="M 202.075875 118.8 
L 367.732125 118.8 
" clip-path="url(#p94f0879cf4)" style="fill: none; stroke: #222222; stroke-width: 1.3; stroke-linecap: square"/>
   </g>
   <g id="line2d_2">
    <defs>
     <path id="m93eee207f5" d="M 0 2 
C 0.530406 2 1.03916 1.789267 1.414214 1.414214 
C 1.789267 1.03916 2 0.530406 2 0 
C 2 -0.530406 1.789267 -1.03916 1.414214 -1.414214 
C 1.03916 -1.789267 0.530406 -2 0 -2 
C -0.530406 -2 -1.03916 -1.789267 -1.414214 -1.414214 
C -1.789267 -1.03916 -2 -0.530406 -2 0 
C -2 0.530406 -1.789267 1.03916 -1.414214 1.414214 
C -1.03916 1.789267 -0.530406 2 0 2 
z
" style="stroke: #222222"/>
    </defs>
    <g clip-path="url(#p94f0879cf4)">
     <use xlink:href="#m93eee207f5" x="202.075875" y="118.8" style="fill: #222222; stroke: #222222"/>
    </g>
   </g>
   <g id="line2d_3">
    <g clip-path="url(#p94f0879cf4)">
     <use xlink:href="#m93eee207f5" x="367.732125" y="118.8" style="fill: #222222; stroke: #222222"/>
    </g>
   </g>
   <g id="line2d_4">
    <path d="M 202.075875 154.8 
L 367.732125 154.8 
" clip-path="url(#p94f0879cf4)" style="fill: none; stroke: #222222; stroke-width: 1.3; stroke-linecap: square"/>
   </g>
   <g id="line2d_5">
    <g clip-path="url(#p94f0879cf4)">
     <use xlink:href="#m93eee207f5" x="202.075875" y="154.8" style="fill: #222222; stroke: #222222"/>
    </g>
   </g>
   <g id="line2d_6">
    <g clip-path="url(#p94f0879cf4)">
     <use xlink:href="#m93eee207f5" x="367.732125" y="154.8" style="fill: #222222; stroke: #222222"/>
    </g>
   </g>
   <g id="line2d_7">
    <defs>
     <path id="m685f7ac48a" d="M 0 2 
C 0.530406 2 1.03916 1.789267 1.414214 1.414214 
C 1.789267 1.03916 2 0.530406 2 0 
C 2 -0.530406 1.789267 -1.03916 1.414214 -1.414214 
C 1.03916 -1.789267 0.530406 -2 0 -2 
C -0.530406 -2 -1.03916 -1.789267 -1.414214 -1.414214 
C -1.789267 -1.03916 -2 -0.530406 -2 0 
C -2 0.530406 -1.789267 1.03916 -1.414214 1.414214 
C -1.03916 1.789267 -0.530406 2 0 2 
z
" style="stroke: #cccccc"/>
    </defs>
    <g clip-path="url(#p94f0879cf4)">
     <use xlink:href="#m685f7ac48a" x="202.075875" y="190.8" style="fill: #cccccc; stroke: #cccccc"/>
    </g>
   </g>
   <g id="line2d_8">
    <g clip-path="url(#p94f0879cf4)">
     <use xlink:href="#m685f7ac48a" x="202.075875" y="226.8" style="fill: #cccccc; stroke: #cccccc"/>
    </g>
   </g>
   <g id="line2d_9">
    <path d="M 202.075875 262.8 
L 367.732125 298.8 
" clip-path="url(#p94f0879cf4)" style="fill: none; stroke: #222222; stroke-width: 1.3; stroke-linecap: square"/>
   </g>
   <g id="line2d_10">
    <g clip-path="url(#p94f0879cf4)">
     <use xlink:href="#m93eee207f5" x="202.075875" y="262.8" style="fill: #222222; stroke: #222222"/>
    </g>
   </g>
   <g id="line2d_11">
    <g clip-path="url(#p94f0879cf4)">
     <use xlink:href="#m93eee207f5" x="367.732125" y="298.8" style="fill: #222222; stroke: #222222"/>
    </g>
   </g>
   <g id="line2d_12">
    <g clip-path="url(#p94f0879cf4)">
     <use xlink:href="#m685f7ac48a" x="202.075875" y="298.8" style="fill: #cccccc; stroke: #cccccc"/>
    </g>
   </g>
   <g id="line2d_13">
    <defs>
     <path id="mfeaf8dc423" d="M 0 2 
C 0.530406 2 1.03916 1.789267 1.414214 1.414214 
C 1.789267 1.03916 2 0.530406 2 0 
C 2 -0.530406 1.789267 -1.03916 1.414214 -1.414214 
C 1.03916 -1.789267 0.530406 -2 0 -2 
C -0.530406 -2 -1.03916 -1.789267 -1.414214 -1.414214 
C -1.789267 -1.03916 -2 -0.530406 -2 0 
C -2 0.530406 -1.789267 1.03916 -1.414214 1.414214 
C -1.03916 1.789267 -0.530406 2 0 2 
z
" style="stroke: #c0392b"/>
    </defs>
    <g clip-path="url(#p94f0879cf4)">
     <use xlink:href="#mfeaf8dc423" x="367.732125" y="190.8" style="fill: #c0392b; stroke: #c0392b"/>
    </g>
   </g>
   <g id="line2d_14">
    <g clip-path="url(#p94f0879cf4)">
     <use xlink:href="#mfeaf8dc423" x="367.732125" y="226.8" style="fill: #c0392b; stroke: #c0392b"/>
    </g>
   </g>
   <g id="line2d_15">
    <g clip-path="url(#p94f0879cf4)">
     <use xlink:href="#mfeaf8dc423" x="367.732125" y="262.8" style="fill: #c0392b; stroke: #c0392b"/>
    </g>
   </g>
   <g id="text_1">
    <!-- Montauk Point, wk 28 -->
    <g style="fill: #222222" transform="translate(104.665594 121.173062) scale(0.086 -0.086)">
     <defs>
      <path id="DejaVuSans-4d" d="M 628 4666 
L 1569 4666 
L 2759 1491 
L 3956 4666 
L 4897 4666 
L 4897 0 
L 4281 0 
L 4281 4097 
L 3078 897 
L 2444 897 
L 1241 4097 
L 1241 0 
L 628 0 
L 628 4666 
z
" transform="scale(0.015625)"/>
      <path id="DejaVuSans-6f" d="M 1959 3097 
Q 1497 3097 1228 2736 
Q 959 2375 959 1747 
Q 959 1119 1226 758 
Q 1494 397 1959 397 
Q 2419 397 2687 759 
Q 2956 1122 2956 1747 
Q 2956 2369 2687 2733 
Q 2419 3097 1959 3097 
z
M 1959 3584 
Q 2709 3584 3137 3096 
Q 3566 2609 3566 1747 
Q 3566 888 3137 398 
Q 2709 -91 1959 -91 
Q 1206 -91 779 398 
Q 353 888 353 1747 
Q 353 2609 779 3096 
Q 1206 3584 1959 3584 
z
" transform="scale(0.015625)"/>
      <path id="DejaVuSans-6e" d="M 3513 2113 
L 3513 0 
L 2938 0 
L 2938 2094 
Q 2938 2591 2744 2837 
Q 2550 3084 2163 3084 
Q 1697 3084 1428 2787 
Q 1159 2491 1159 1978 
L 1159 0 
L 581 0 
L 581 3500 
L 1159 3500 
L 1159 2956 
Q 1366 3272 1645 3428 
Q 1925 3584 2291 3584 
Q 2894 3584 3203 3211 
Q 3513 2838 3513 2113 
z
" transform="scale(0.015625)"/>
      <path id="DejaVuSans-74" d="M 1172 4494 
L 1172 3500 
L 2356 3500 
L 2356 3053 
L 1172 3053 
L 1172 1153 
Q 1172 725 1289 603 
Q 1406 481 1766 481 
L 2356 481 
L 2356 0 
L 1766 0 
Q 1100 0 847 248 
Q 594 497 594 1153 
L 594 3053 
L 172 3053 
L 172 3500 
L 594 3500 
L 594 4494 
L 1172 4494 
z
" transform="scale(0.015625)"/>
      <path id="DejaVuSans-61" d="M 2194 1759 
Q 1497 1759 1228 1600 
Q 959 1441 959 1056 
Q 959 750 1161 570 
Q 1363 391 1709 391 
Q 2188 391 2477 730 
Q 2766 1069 2766 1631 
L 2766 1759 
L 2194 1759 
z
M 3341 1997 
L 3341 0 
L 2766 0 
L 2766 531 
Q 2569 213 2275 61 
Q 1981 -91 1556 -91 
Q 1019 -91 701 211 
Q 384 513 384 1019 
Q 384 1609 779 1909 
Q 1175 2209 1959 2209 
L 2766 2209 
L 2766 2266 
Q 2766 2663 2505 2880 
Q 2244 3097 1772 3097 
Q 1472 3097 1187 3025 
Q 903 2953 641 2809 
L 641 3341 
Q 956 3463 1253 3523 
Q 1550 3584 1831 3584 
Q 2591 3584 2966 3190 
Q 3341 2797 3341 1997 
z
" transform="scale(0.015625)"/>
      <path id="DejaVuSans-75" d="M 544 1381 
L 544 3500 
L 1119 3500 
L 1119 1403 
Q 1119 906 1312 657 
Q 1506 409 1894 409 
Q 2359 409 2629 706 
Q 2900 1003 2900 1516 
L 2900 3500 
L 3475 3500 
L 3475 0 
L 2900 0 
L 2900 538 
Q 2691 219 2414 64 
Q 2138 -91 1772 -91 
Q 1169 -91 856 284 
Q 544 659 544 1381 
z
M 1991 3584 
L 1991 3584 
z
" transform="scale(0.015625)"/>
      <path id="DejaVuSans-6b" d="M 581 4863 
L 1159 4863 
L 1159 1991 
L 2875 3500 
L 3609 3500 
L 1753 1863 
L 3688 0 
L 2938 0 
L 1159 1709 
L 1159 0 
L 581 0 
L 581 4863 
z
" transform="scale(0.015625)"/>
      <path id="DejaVuSans-20" transform="scale(0.015625)"/>
      <path id="DejaVuSans-50" d="M 1259 4147 
L 1259 2394 
L 2053 2394 
Q 2494 2394 2734 2622 
Q 2975 2850 2975 3272 
Q 2975 3691 2734 3919 
Q 2494 4147 2053 4147 
L 1259 4147 
z
M 628 4666 
L 2053 4666 
Q 2838 4666 3239 4311 
Q 3641 3956 3641 3272 
Q 3641 2581 3239 2228 
Q 2838 1875 2053 1875 
L 1259 1875 
L 1259 0 
L 628 0 
L 628 4666 
z
" transform="scale(0.015625)"/>
      <path id="DejaVuSans-69" d="M 603 3500 
L 1178 3500 
L 1178 0 
L 603 0 
L 603 3500 
z
M 603 4863 
L 1178 4863 
L 1178 4134 
L 603 4134 
L 603 4863 
z
" transform="scale(0.015625)"/>
      <path id="DejaVuSans-2c" d="M 750 794 
L 1409 794 
L 1409 256 
L 897 -744 
L 494 -744 
L 750 256 
L 750 794 
z
" transform="scale(0.015625)"/>
      <path id="DejaVuSans-77" d="M 269 3500 
L 844 3500 
L 1563 769 
L 2278 3500 
L 2956 3500 
L 3675 769 
L 4391 3500 
L 4966 3500 
L 4050 0 
L 3372 0 
L 2619 2869 
L 1863 0 
L 1184 0 
L 269 3500 
z
" transform="scale(0.015625)"/>
      <path id="DejaVuSans-32" d="M 1228 531 
L 3431 531 
L 3431 0 
L 469 0 
L 469 531 
Q 828 903 1448 1529 
Q 2069 2156 2228 2338 
Q 2531 2678 2651 2914 
Q 2772 3150 2772 3378 
Q 2772 3750 2511 3984 
Q 2250 4219 1831 4219 
Q 1534 4219 1204 4116 
Q 875 4013 500 3803 
L 500 4441 
Q 881 4594 1212 4672 
Q 1544 4750 1819 4750 
Q 2544 4750 2975 4387 
Q 3406 4025 3406 3419 
Q 3406 3131 3298 2873 
Q 3191 2616 2906 2266 
Q 2828 2175 2409 1742 
Q 1991 1309 1228 531 
z
" transform="scale(0.015625)"/>
      <path id="DejaVuSans-38" d="M 2034 2216 
Q 1584 2216 1326 1975 
Q 1069 1734 1069 1313 
Q 1069 891 1326 650 
Q 1584 409 2034 409 
Q 2484 409 2743 651 
Q 3003 894 3003 1313 
Q 3003 1734 2745 1975 
Q 2488 2216 2034 2216 
z
M 1403 2484 
Q 997 2584 770 2862 
Q 544 3141 544 3541 
Q 544 4100 942 4425 
Q 1341 4750 2034 4750 
Q 2731 4750 3128 4425 
Q 3525 4100 3525 3541 
Q 3525 3141 3298 2862 
Q 3072 2584 2669 2484 
Q 3125 2378 3379 2068 
Q 3634 1759 3634 1313 
Q 3634 634 3220 271 
Q 2806 -91 2034 -91 
Q 1263 -91 848 271 
Q 434 634 434 1313 
Q 434 1759 690 2068 
Q 947 2378 1403 2484 
z
M 1172 3481 
Q 1172 3119 1398 2916 
Q 1625 2713 2034 2713 
Q 2441 2713 2670 2916 
Q 2900 3119 2900 3481 
Q 2900 3844 2670 4047 
Q 2441 4250 2034 4250 
Q 1625 4250 1398 4047 
Q 1172 3844 1172 3481 
z
" transform="scale(0.015625)"/>
     </defs>
     <use xlink:href="#DejaVuSans-4d"/>
     <use xlink:href="#DejaVuSans-6f" transform="translate(86.279297 0)"/>
     <use xlink:href="#DejaVuSans-6e" transform="translate(147.460938 0)"/>
     <use xlink:href="#DejaVuSans-74" transform="translate(210.839844 0)"/>
     <use xlink:href="#DejaVuSans-61" transform="translate(250.048828 0)"/>
     <use xlink:href="#DejaVuSans-75" transform="translate(311.328125 0)"/>
     <use xlink:href="#DejaVuSans-6b" transform="translate(374.707031 0)"/>
     <use xlink:href="#DejaVuSans-20" transform="translate(432.617188 0)"/>
     <use xlink:href="#DejaVuSans-50" transform="translate(464.404297 0)"/>
     <use xlink:href="#DejaVuSans-6f" transform="translate(521.082031 0)"/>
     <use xlink:href="#DejaVuSans-69" transform="translate(582.263672 0)"/>
     <use xlink:href="#DejaVuSans-6e" transform="translate(610.046875 0)"/>
     <use xlink:href="#DejaVuSans-74" transform="translate(673.425781 0)"/>
     <use xlink:href="#DejaVuSans-2c" transform="translate(712.634766 0)"/>
     <use xlink:href="#DejaVuSans-20" transform="translate(744.421875 0)"/>
     <use xlink:href="#DejaVuSans-77" transform="translate(776.208984 0)"/>
     <use xlink:href="#DejaVuSans-6b" transform="translate(857.996094 0)"/>
     <use xlink:href="#DejaVuSans-20" transform="translate(915.90625 0)"/>
     <use xlink:href="#DejaVuSans-32" transform="translate(947.693359 0)"/>
     <use xlink:href="#DejaVuSans-38" transform="translate(1011.316406 0)"/>
    </g>
   </g>
   <g id="text_2">
    <!-- Montauk Point, wk 28 -->
    <g style="fill: #222222" transform="translate(372.701812 121.173062) scale(0.086 -0.086)">
     <use xlink:href="#DejaVuSans-4d"/>
     <use xlink:href="#DejaVuSans-6f" transform="translate(86.279297 0)"/>
     <use xlink:href="#DejaVuSans-6e" transform="translate(147.460938 0)"/>
     <use xlink:href="#DejaVuSans-74" transform="translate(210.839844 0)"/>
     <use xlink:href="#DejaVuSans-61" transform="translate(250.048828 0)"/>
     <use xlink:href="#DejaVuSans-75" transform="translate(311.328125 0)"/>
     <use xlink:href="#DejaVuSans-6b" transform="translate(374.707031 0)"/>
     <use xlink:href="#DejaVuSans-20" transform="translate(432.617188 0)"/>
     <use xlink:href="#DejaVuSans-50" transform="translate(464.404297 0)"/>
     <use xlink:href="#DejaVuSans-6f" transform="translate(521.082031 0)"/>
     <use xlink:href="#DejaVuSans-69" transform="translate(582.263672 0)"/>
     <use xlink:href="#DejaVuSans-6e" transform="translate(610.046875 0)"/>
     <use xlink:href="#DejaVuSans-74" transform="translate(673.425781 0)"/>
     <use xlink:href="#DejaVuSans-2c" transform="translate(712.634766 0)"/>
     <use xlink:href="#DejaVuSans-20" transform="translate(744.421875 0)"/>
     <use xlink:href="#DejaVuSans-77" transform="translate(776.208984 0)"/>
     <use xlink:href="#DejaVuSans-6b" transform="translate(857.996094 0)"/>
     <use xlink:href="#DejaVuSans-20" transform="translate(915.90625 0)"/>
     <use xlink:href="#DejaVuSans-32" transform="translate(947.693359 0)"/>
     <use xlink:href="#DejaVuSans-38" transform="translate(1011.316406 0)"/>
    </g>
   </g>
   <g id="text_3">
    <!-- Montauk Point, wk 24 -->
    <g style="fill: #222222" transform="translate(104.665594 157.173062) scale(0.086 -0.086)">
     <defs>
      <path id="DejaVuSans-34" d="M 2419 4116 
L 825 1625 
L 2419 1625 
L 2419 4116 
z
M 2253 4666 
L 3047 4666 
L 3047 1625 
L 3713 1625 
L 3713 1100 
L 3047 1100 
L 3047 0 
L 2419 0 
L 2419 1100 
L 313 1100 
L 313 1709 
L 2253 4666 
z
" transform="scale(0.015625)"/>
     </defs>
     <use xlink:href="#DejaVuSans-4d"/>
     <use xlink:href="#DejaVuSans-6f" transform="translate(86.279297 0)"/>
     <use xlink:href="#DejaVuSans-6e" transform="translate(147.460938 0)"/>
     <use xlink:href="#DejaVuSans-74" transform="translate(210.839844 0)"/>
     <use xlink:href="#DejaVuSans-61" transform="translate(250.048828 0)"/>
     <use xlink:href="#DejaVuSans-75" transform="translate(311.328125 0)"/>
     <use xlink:href="#DejaVuSans-6b" transform="translate(374.707031 0)"/>
     <use xlink:href="#DejaVuSans-20" transform="translate(432.617188 0)"/>
     <use xlink:href="#DejaVuSans-50" transform="translate(464.404297 0)"/>
     <use xlink:href="#DejaVuSans-6f" transform="translate(521.082031 0)"/>
     <use xlink:href="#DejaVuSans-69" transform="translate(582.263672 0)"/>
     <use xlink:href="#DejaVuSans-6e" transform="translate(610.046875 0)"/>
     <use xlink:href="#DejaVuSans-74" transform="translate(673.425781 0)"/>
     <use xlink:href="#DejaVuSans-2c" transform="translate(712.634766 0)"/>
     <use xlink:href="#DejaVuSans-20" transform="translate(744.421875 0)"/>
     <use xlink:href="#DejaVuSans-77" transform="translate(776.208984 0)"/>
     <use xlink:href="#DejaVuSans-6b" transform="translate(857.996094 0)"/>
     <use xlink:href="#DejaVuSans-20" transform="translate(915.90625 0)"/>
     <use xlink:href="#DejaVuSans-32" transform="translate(947.693359 0)"/>
     <use xlink:href="#DejaVuSans-34" transform="translate(1011.316406 0)"/>
    </g>
   </g>
   <g id="text_4">
    <!-- Montauk Point, wk 24 -->
    <g style="fill: #222222" transform="translate(372.701812 157.173062) scale(0.086 -0.086)">
     <use xlink:href="#DejaVuSans-4d"/>
     <use xlink:href="#DejaVuSans-6f" transform="translate(86.279297 0)"/>
     <use xlink:href="#DejaVuSans-6e" transform="translate(147.460938 0)"/>
     <use xlink:href="#DejaVuSans-74" transform="translate(210.839844 0)"/>
     <use xlink:href="#DejaVuSans-61" transform="translate(250.048828 0)"/>
     <use xlink:href="#DejaVuSans-75" transform="translate(311.328125 0)"/>
     <use xlink:href="#DejaVuSans-6b" transform="translate(374.707031 0)"/>
     <use xlink:href="#DejaVuSans-20" transform="translate(432.617188 0)"/>
     <use xlink:href="#DejaVuSans-50" transform="translate(464.404297 0)"/>
     <use xlink:href="#DejaVuSans-6f" transform="translate(521.082031 0)"/>
     <use xlink:href="#DejaVuSans-69" transform="translate(582.263672 0)"/>
     <use xlink:href="#DejaVuSans-6e" transform="translate(610.046875 0)"/>
     <use xlink:href="#DejaVuSans-74" transform="translate(673.425781 0)"/>
     <use xlink:href="#DejaVuSans-2c" transform="translate(712.634766 0)"/>
     <use xlink:href="#DejaVuSans-20" transform="translate(744.421875 0)"/>
     <use xlink:href="#DejaVuSans-77" transform="translate(776.208984 0)"/>
     <use xlink:href="#DejaVuSans-6b" transform="translate(857.996094 0)"/>
     <use xlink:href="#DejaVuSans-20" transform="translate(915.90625 0)"/>
     <use xlink:href="#DejaVuSans-32" transform="translate(947.693359 0)"/>
     <use xlink:href="#DejaVuSans-34" transform="translate(1011.316406 0)"/>
    </g>
   </g>
   <g id="text_5">
    <!-- Montauk Point, wk 29 -->
    <g style="fill: #cccccc" transform="translate(104.665594 193.173062) scale(0.086 -0.086)">
     <defs>
      <path id="DejaVuSans-39" d="M 703 97 
L 703 672 
Q 941 559 1184 500 
Q 1428 441 1663 441 
Q 2288 441 2617 861 
Q 2947 1281 2994 2138 
Q 2813 1869 2534 1725 
Q 2256 1581 1919 1581 
Q 1219 1581 811 2004 
Q 403 2428 403 3163 
Q 403 3881 828 4315 
Q 1253 4750 1959 4750 
Q 2769 4750 3195 4129 
Q 3622 3509 3622 2328 
Q 3622 1225 3098 567 
Q 2575 -91 1691 -91 
Q 1453 -91 1209 -44 
Q 966 3 703 97 
z
M 1959 2075 
Q 2384 2075 2632 2365 
Q 2881 2656 2881 3163 
Q 2881 3666 2632 3958 
Q 2384 4250 1959 4250 
Q 1534 4250 1286 3958 
Q 1038 3666 1038 3163 
Q 1038 2656 1286 2365 
Q 1534 2075 1959 2075 
z
" transform="scale(0.015625)"/>
     </defs>
     <use xlink:href="#DejaVuSans-4d"/>
     <use xlink:href="#DejaVuSans-6f" transform="translate(86.279297 0)"/>
     <use xlink:href="#DejaVuSans-6e" transform="translate(147.460938 0)"/>
     <use xlink:href="#DejaVuSans-74" transform="translate(210.839844 0)"/>
     <use xlink:href="#DejaVuSans-61" transform="translate(250.048828 0)"/>
     <use xlink:href="#DejaVuSans-75" transform="translate(311.328125 0)"/>
     <use xlink:href="#DejaVuSans-6b" transform="translate(374.707031 0)"/>
     <use xlink:href="#DejaVuSans-20" transform="translate(432.617188 0)"/>
     <use xlink:href="#DejaVuSans-50" transform="translate(464.404297 0)"/>
     <use xlink:href="#DejaVuSans-6f" transform="translate(521.082031 0)"/>
     <use xlink:href="#DejaVuSans-69" transform="translate(582.263672 0)"/>
     <use xlink:href="#DejaVuSans-6e" transform="translate(610.046875 0)"/>
     <use xlink:href="#DejaVuSans-74" transform="translate(673.425781 0)"/>
     <use xlink:href="#DejaVuSans-2c" transform="translate(712.634766 0)"/>
     <use xlink:href="#DejaVuSans-20" transform="translate(744.421875 0)"/>
     <use xlink:href="#DejaVuSans-77" transform="translate(776.208984 0)"/>
     <use xlink:href="#DejaVuSans-6b" transform="translate(857.996094 0)"/>
     <use xlink:href="#DejaVuSans-20" transform="translate(915.90625 0)"/>
     <use xlink:href="#DejaVuSans-32" transform="translate(947.693359 0)"/>
     <use xlink:href="#DejaVuSans-39" transform="translate(1011.316406 0)"/>
    </g>
   </g>
   <g id="text_6">
    <!-- Montauk Point, wk 23 -->
    <g style="fill: #cccccc" transform="translate(104.665594 229.173062) scale(0.086 -0.086)">
     <defs>
      <path id="DejaVuSans-33" d="M 2597 2516 
Q 3050 2419 3304 2112 
Q 3559 1806 3559 1356 
Q 3559 666 3084 287 
Q 2609 -91 1734 -91 
Q 1441 -91 1130 -33 
Q 819 25 488 141 
L 488 750 
Q 750 597 1062 519 
Q 1375 441 1716 441 
Q 2309 441 2620 675 
Q 2931 909 2931 1356 
Q 2931 1769 2642 2001 
Q 2353 2234 1838 2234 
L 1294 2234 
L 1294 2753 
L 1863 2753 
Q 2328 2753 2575 2939 
Q 2822 3125 2822 3475 
Q 2822 3834 2567 4026 
Q 2313 4219 1838 4219 
Q 1578 4219 1281 4162 
Q 984 4106 628 3988 
L 628 4550 
Q 988 4650 1302 4700 
Q 1616 4750 1894 4750 
Q 2613 4750 3031 4423 
Q 3450 4097 3450 3541 
Q 3450 3153 3228 2886 
Q 3006 2619 2597 2516 
z
" transform="scale(0.015625)"/>
     </defs>
     <use xlink:href="#DejaVuSans-4d"/>
     <use xlink:href="#DejaVuSans-6f" transform="translate(86.279297 0)"/>
     <use xlink:href="#DejaVuSans-6e" transform="translate(147.460938 0)"/>
     <use xlink:href="#DejaVuSans-74" transform="translate(210.839844 0)"/>
     <use xlink:href="#DejaVuSans-61" transform="translate(250.048828 0)"/>
     <use xlink:href="#DejaVuSans-75" transform="translate(311.328125 0)"/>
     <use xlink:href="#DejaVuSans-6b" transform="translate(374.707031 0)"/>
     <use xlink:href="#DejaVuSans-20" transform="translate(432.617188 0)"/>
     <use xlink:href="#DejaVuSans-50" transform="translate(464.404297 0)"/>
     <use xlink:href="#DejaVuSans-6f" transform="translate(521.082031 0)"/>
     <use xlink:href="#DejaVuSans-69" transform="translate(582.263672 0)"/>
     <use xlink:href="#DejaVuSans-6e" transform="translate(610.046875 0)"/>
     <use xlink:href="#DejaVuSans-74" transform="translate(673.425781 0)"/>
     <use xlink:href="#DejaVuSans-2c" transform="translate(712.634766 0)"/>
     <use xlink:href="#DejaVuSans-20" transform="translate(744.421875 0)"/>
     <use xlink:href="#DejaVuSans-77" transform="translate(776.208984 0)"/>
     <use xlink:href="#DejaVuSans-6b" transform="translate(857.996094 0)"/>
     <use xlink:href="#DejaVuSans-20" transform="translate(915.90625 0)"/>
     <use xlink:href="#DejaVuSans-32" transform="translate(947.693359 0)"/>
     <use xlink:href="#DejaVuSans-33" transform="translate(1011.316406 0)"/>
    </g>
   </g>
   <g id="text_7">
    <!-- Montauk Point, wk 32 -->
    <g style="fill: #222222" transform="translate(104.665594 265.173062) scale(0.086 -0.086)">
     <use xlink:href="#DejaVuSans-4d"/>
     <use xlink:href="#DejaVuSans-6f" transform="translate(86.279297 0)"/>
     <use xlink:href="#DejaVuSans-6e" transform="translate(147.460938 0)"/>
     <use xlink:href="#DejaVuSans-74" transform="translate(210.839844 0)"/>
     <use xlink:href="#DejaVuSans-61" transform="translate(250.048828 0)"/>
     <use xlink:href="#DejaVuSans-75" transform="translate(311.328125 0)"/>
     <use xlink:href="#DejaVuSans-6b" transform="translate(374.707031 0)"/>
     <use xlink:href="#DejaVuSans-20" transform="translate(432.617188 0)"/>
     <use xlink:href="#DejaVuSans-50" transform="translate(464.404297 0)"/>
     <use xlink:href="#DejaVuSans-6f" transform="translate(521.082031 0)"/>
     <use xlink:href="#DejaVuSans-69" transform="translate(582.263672 0)"/>
     <use xlink:href="#DejaVuSans-6e" transform="translate(610.046875 0)"/>
     <use xlink:href="#DejaVuSans-74" transform="translate(673.425781 0)"/>
     <use xlink:href="#DejaVuSans-2c" transform="translate(712.634766 0)"/>
     <use xlink:href="#DejaVuSans-20" transform="translate(744.421875 0)"/>
     <use xlink:href="#DejaVuSans-77" transform="translate(776.208984 0)"/>
     <use xlink:href="#DejaVuSans-6b" transform="translate(857.996094 0)"/>
     <use xlink:href="#DejaVuSans-20" transform="translate(915.90625 0)"/>
     <use xlink:href="#DejaVuSans-33" transform="translate(947.693359 0)"/>
     <use xlink:href="#DejaVuSans-32" transform="translate(1011.316406 0)"/>
    </g>
   </g>
   <g id="text_8">
    <!-- Montauk Point, wk 32 -->
    <g style="fill: #222222" transform="translate(372.701812 301.173062) scale(0.086 -0.086)">
     <use xlink:href="#DejaVuSans-4d"/>
     <use xlink:href="#DejaVuSans-6f" transform="translate(86.279297 0)"/>
     <use xlink:href="#DejaVuSans-6e" transform="translate(147.460938 0)"/>
     <use xlink:href="#DejaVuSans-74" transform="translate(210.839844 0)"/>
     <use xlink:href="#DejaVuSans-61" transform="translate(250.048828 0)"/>
     <use xlink:href="#DejaVuSans-75" transform="translate(311.328125 0)"/>
     <use xlink:href="#DejaVuSans-6b" transform="translate(374.707031 0)"/>
     <use xlink:href="#DejaVuSans-20" transform="translate(432.617188 0)"/>
     <use xlink:href="#DejaVuSans-50" transform="translate(464.404297 0)"/>
     <use xlink:href="#DejaVuSans-6f" transform="translate(521.082031 0)"/>
     <use xlink:href="#DejaVuSans-69" transform="translate(582.263672 0)"/>
     <use xlink:href="#DejaVuSans-6e" transform="translate(610.046875 0)"/>
     <use xlink:href="#DejaVuSans-74" transform="translate(673.425781 0)"/>
     <use xlink:href="#DejaVuSans-2c" transform="translate(712.634766 0)"/>
     <use xlink:href="#DejaVuSans-20" transform="translate(744.421875 0)"/>
     <use xlink:href="#DejaVuSans-77" transform="translate(776.208984 0)"/>
     <use xlink:href="#DejaVuSans-6b" transform="translate(857.996094 0)"/>
     <use xlink:href="#DejaVuSans-20" transform="translate(915.90625 0)"/>
     <use xlink:href="#DejaVuSans-33" transform="translate(947.693359 0)"/>
     <use xlink:href="#DejaVuSans-32" transform="translate(1011.316406 0)"/>
    </g>
   </g>
   <g id="text_9">
    <!-- Montauk Point, wk 17 -->
    <g style="fill: #cccccc" transform="translate(104.665594 301.173062) scale(0.086 -0.086)">
     <defs>
      <path id="DejaVuSans-31" d="M 794 531 
L 1825 531 
L 1825 4091 
L 703 3866 
L 703 4441 
L 1819 4666 
L 2450 4666 
L 2450 531 
L 3481 531 
L 3481 0 
L 794 0 
L 794 531 
z
" transform="scale(0.015625)"/>
      <path id="DejaVuSans-37" d="M 525 4666 
L 3525 4666 
L 3525 4397 
L 1831 0 
L 1172 0 
L 2766 4134 
L 525 4134 
L 525 4666 
z
" transform="scale(0.015625)"/>
     </defs>
     <use xlink:href="#DejaVuSans-4d"/>
     <use xlink:href="#DejaVuSans-6f" transform="translate(86.279297 0)"/>
     <use xlink:href="#DejaVuSans-6e" transform="translate(147.460938 0)"/>
     <use xlink:href="#DejaVuSans-74" transform="translate(210.839844 0)"/>
     <use xlink:href="#DejaVuSans-61" transform="translate(250.048828 0)"/>
     <use xlink:href="#DejaVuSans-75" transform="translate(311.328125 0)"/>
     <use xlink:href="#DejaVuSans-6b" transform="translate(374.707031 0)"/>
     <use xlink:href="#DejaVuSans-20" transform="translate(432.617188 0)"/>
     <use xlink:href="#DejaVuSans-50" transform="translate(464.404297 0)"/>
     <use xlink:href="#DejaVuSans-6f" transform="translate(521.082031 0)"/>
     <use xlink:href="#DejaVuSans-69" transform="translate(582.263672 0)"/>
     <use xlink:href="#DejaVuSans-6e" transform="translate(610.046875 0)"/>
     <use xlink:href="#DejaVuSans-74" transform="translate(673.425781 0)"/>
     <use xlink:href="#DejaVuSans-2c" transform="translate(712.634766 0)"/>
     <use xlink:href="#DejaVuSans-20" transform="translate(744.421875 0)"/>
     <use xlink:href="#DejaVuSans-77" transform="translate(776.208984 0)"/>
     <use xlink:href="#DejaVuSans-6b" transform="translate(857.996094 0)"/>
     <use xlink:href="#DejaVuSans-20" transform="translate(915.90625 0)"/>
     <use xlink:href="#DejaVuSans-31" transform="translate(947.693359 0)"/>
     <use xlink:href="#DejaVuSans-37" transform="translate(1011.316406 0)"/>
    </g>
   </g>
   <g id="text_10">
    <!-- Central Park, wk 3 -->
    <g style="fill: #c0392b" transform="translate(372.701812 193.173062) scale(0.086 -0.086)">
     <defs>
      <path id="DejaVuSans-Bold-43" d="M 4288 256 
Q 3956 84 3597 -3 
Q 3238 -91 2847 -91 
Q 1681 -91 1000 561 
Q 319 1213 319 2328 
Q 319 3447 1000 4098 
Q 1681 4750 2847 4750 
Q 3238 4750 3597 4662 
Q 3956 4575 4288 4403 
L 4288 3438 
Q 3953 3666 3628 3772 
Q 3303 3878 2944 3878 
Q 2300 3878 1931 3465 
Q 1563 3053 1563 2328 
Q 1563 1606 1931 1193 
Q 2300 781 2944 781 
Q 3303 781 3628 887 
Q 3953 994 4288 1222 
L 4288 256 
z
" transform="scale(0.015625)"/>
      <path id="DejaVuSans-Bold-65" d="M 4031 1759 
L 4031 1441 
L 1416 1441 
Q 1456 1047 1700 850 
Q 1944 653 2381 653 
Q 2734 653 3104 758 
Q 3475 863 3866 1075 
L 3866 213 
Q 3469 63 3072 -14 
Q 2675 -91 2278 -91 
Q 1328 -91 801 392 
Q 275 875 275 1747 
Q 275 2603 792 3093 
Q 1309 3584 2216 3584 
Q 3041 3584 3536 3087 
Q 4031 2591 4031 1759 
z
M 2881 2131 
Q 2881 2450 2695 2645 
Q 2509 2841 2209 2841 
Q 1884 2841 1681 2658 
Q 1478 2475 1428 2131 
L 2881 2131 
z
" transform="scale(0.015625)"/>
      <path id="DejaVuSans-Bold-6e" d="M 4056 2131 
L 4056 0 
L 2931 0 
L 2931 347 
L 2931 1631 
Q 2931 2084 2911 2256 
Q 2891 2428 2841 2509 
Q 2775 2619 2662 2680 
Q 2550 2741 2406 2741 
Q 2056 2741 1856 2470 
Q 1656 2200 1656 1722 
L 1656 0 
L 538 0 
L 538 3500 
L 1656 3500 
L 1656 2988 
Q 1909 3294 2193 3439 
Q 2478 3584 2822 3584 
Q 3428 3584 3742 3212 
Q 4056 2841 4056 2131 
z
" transform="scale(0.015625)"/>
      <path id="DejaVuSans-Bold-74" d="M 1759 4494 
L 1759 3500 
L 2913 3500 
L 2913 2700 
L 1759 2700 
L 1759 1216 
Q 1759 972 1856 886 
Q 1953 800 2241 800 
L 2816 800 
L 2816 0 
L 1856 0 
Q 1194 0 917 276 
Q 641 553 641 1216 
L 641 2700 
L 84 2700 
L 84 3500 
L 641 3500 
L 641 4494 
L 1759 4494 
z
" transform="scale(0.015625)"/>
      <path id="DejaVuSans-Bold-72" d="M 3138 2547 
Q 2991 2616 2845 2648 
Q 2700 2681 2553 2681 
Q 2122 2681 1889 2404 
Q 1656 2128 1656 1613 
L 1656 0 
L 538 0 
L 538 3500 
L 1656 3500 
L 1656 2925 
Q 1872 3269 2151 3426 
Q 2431 3584 2822 3584 
Q 2878 3584 2943 3579 
Q 3009 3575 3134 3559 
L 3138 2547 
z
" transform="scale(0.015625)"/>
      <path id="DejaVuSans-Bold-61" d="M 2106 1575 
Q 1756 1575 1579 1456 
Q 1403 1338 1403 1106 
Q 1403 894 1545 773 
Q 1688 653 1941 653 
Q 2256 653 2472 879 
Q 2688 1106 2688 1447 
L 2688 1575 
L 2106 1575 
z
M 3816 1997 
L 3816 0 
L 2688 0 
L 2688 519 
Q 2463 200 2181 54 
Q 1900 -91 1497 -91 
Q 953 -91 614 226 
Q 275 544 275 1050 
Q 275 1666 698 1953 
Q 1122 2241 2028 2241 
L 2688 2241 
L 2688 2328 
Q 2688 2594 2478 2717 
Q 2269 2841 1825 2841 
Q 1466 2841 1156 2769 
Q 847 2697 581 2553 
L 581 3406 
Q 941 3494 1303 3539 
Q 1666 3584 2028 3584 
Q 2975 3584 3395 3211 
Q 3816 2838 3816 1997 
z
" transform="scale(0.015625)"/>
      <path id="DejaVuSans-Bold-6c" d="M 538 4863 
L 1656 4863 
L 1656 0 
L 538 0 
L 538 4863 
z
" transform="scale(0.015625)"/>
      <path id="DejaVuSans-Bold-20" transform="scale(0.015625)"/>
      <path id="DejaVuSans-Bold-50" d="M 588 4666 
L 2584 4666 
Q 3475 4666 3951 4270 
Q 4428 3875 4428 3144 
Q 4428 2409 3951 2014 
Q 3475 1619 2584 1619 
L 1791 1619 
L 1791 0 
L 588 0 
L 588 4666 
z
M 1791 3794 
L 1791 2491 
L 2456 2491 
Q 2806 2491 2997 2661 
Q 3188 2831 3188 3144 
Q 3188 3456 2997 3625 
Q 2806 3794 2456 3794 
L 1791 3794 
z
" transform="scale(0.015625)"/>
      <path id="DejaVuSans-Bold-6b" d="M 538 4863 
L 1656 4863 
L 1656 2216 
L 2944 3500 
L 4244 3500 
L 2534 1894 
L 4378 0 
L 3022 0 
L 1656 1459 
L 1656 0 
L 538 0 
L 538 4863 
z
" transform="scale(0.015625)"/>
      <path id="DejaVuSans-Bold-2c" d="M 653 1209 
L 1778 1209 
L 1778 256 
L 1006 -909 
L 341 -909 
L 653 256 
L 653 1209 
z
" transform="scale(0.015625)"/>
      <path id="DejaVuSans-Bold-77" d="M 225 3500 
L 1313 3500 
L 1900 1088 
L 2491 3500 
L 3425 3500 
L 4013 1113 
L 4603 3500 
L 5691 3500 
L 4769 0 
L 3547 0 
L 2956 2406 
L 2369 0 
L 1147 0 
L 225 3500 
z
" transform="scale(0.015625)"/>
      <path id="DejaVuSans-Bold-33" d="M 2981 2516 
Q 3453 2394 3698 2092 
Q 3944 1791 3944 1325 
Q 3944 631 3412 270 
Q 2881 -91 1863 -91 
Q 1503 -91 1142 -33 
Q 781 25 428 141 
L 428 1069 
Q 766 900 1098 814 
Q 1431 728 1753 728 
Q 2231 728 2486 893 
Q 2741 1059 2741 1369 
Q 2741 1688 2480 1852 
Q 2219 2016 1709 2016 
L 1228 2016 
L 1228 2791 
L 1734 2791 
Q 2188 2791 2409 2933 
Q 2631 3075 2631 3366 
Q 2631 3634 2415 3781 
Q 2200 3928 1806 3928 
Q 1516 3928 1219 3862 
Q 922 3797 628 3669 
L 628 4550 
Q 984 4650 1334 4700 
Q 1684 4750 2022 4750 
Q 2931 4750 3382 4451 
Q 3834 4153 3834 3553 
Q 3834 3144 3618 2883 
Q 3403 2622 2981 2516 
z
" transform="scale(0.015625)"/>
     </defs>
     <use xlink:href="#DejaVuSans-Bold-43"/>
     <use xlink:href="#DejaVuSans-Bold-65" transform="translate(73.388672 0)"/>
     <use xlink:href="#DejaVuSans-Bold-6e" transform="translate(141.210938 0)"/>
     <use xlink:href="#DejaVuSans-Bold-74" transform="translate(212.402344 0)"/>
     <use xlink:href="#DejaVuSans-Bold-72" transform="translate(260.205078 0)"/>
     <use xlink:href="#DejaVuSans-Bold-61" transform="translate(309.521484 0)"/>
     <use xlink:href="#DejaVuSans-Bold-6c" transform="translate(377.001953 0)"/>
     <use xlink:href="#DejaVuSans-Bold-20" transform="translate(411.279297 0)"/>
     <use xlink:href="#DejaVuSans-Bold-50" transform="translate(446.09375 0)"/>
     <use xlink:href="#DejaVuSans-Bold-61" transform="translate(516.759766 0)"/>
     <use xlink:href="#DejaVuSans-Bold-72" transform="translate(584.240234 0)"/>
     <use xlink:href="#DejaVuSans-Bold-6b" transform="translate(633.556641 0)"/>
     <use xlink:href="#DejaVuSans-Bold-2c" transform="translate(700.060547 0)"/>
     <use xlink:href="#DejaVuSans-Bold-20" transform="translate(738.048828 0)"/>
     <use xlink:href="#DejaVuSans-Bold-77" transform="translate(772.863281 0)"/>
     <use xlink:href="#DejaVuSans-Bold-6b" transform="translate(865.246094 0)"/>
     <use xlink:href="#DejaVuSans-Bold-20" transform="translate(931.75 0)"/>
     <use xlink:href="#DejaVuSans-Bold-33" transform="translate(966.564453 0)"/>
    </g>
   </g>
   <g id="text_11">
    <!-- Central Park, wk 7 -->
    <g style="fill: #c0392b" transform="translate(372.701812 229.173062) scale(0.086 -0.086)">
     <defs>
      <path id="DejaVuSans-Bold-37" d="M 428 4666 
L 3944 4666 
L 3944 3988 
L 2125 0 
L 953 0 
L 2675 3781 
L 428 3781 
L 428 4666 
z
" transform="scale(0.015625)"/>
     </defs>
     <use xlink:href="#DejaVuSans-Bold-43"/>
     <use xlink:href="#DejaVuSans-Bold-65" transform="translate(73.388672 0)"/>
     <use xlink:href="#DejaVuSans-Bold-6e" transform="translate(141.210938 0)"/>
     <use xlink:href="#DejaVuSans-Bold-74" transform="translate(212.402344 0)"/>
     <use xlink:href="#DejaVuSans-Bold-72" transform="translate(260.205078 0)"/>
     <use xlink:href="#DejaVuSans-Bold-61" transform="translate(309.521484 0)"/>
     <use xlink:href="#DejaVuSans-Bold-6c" transform="translate(377.001953 0)"/>
     <use xlink:href="#DejaVuSans-Bold-20" transform="translate(411.279297 0)"/>
     <use xlink:href="#DejaVuSans-Bold-50" transform="translate(446.09375 0)"/>
     <use xlink:href="#DejaVuSans-Bold-61" transform="translate(516.759766 0)"/>
     <use xlink:href="#DejaVuSans-Bold-72" transform="translate(584.240234 0)"/>
     <use xlink:href="#DejaVuSans-Bold-6b" transform="translate(633.556641 0)"/>
     <use xlink:href="#DejaVuSans-Bold-2c" transform="translate(700.060547 0)"/>
     <use xlink:href="#DejaVuSans-Bold-20" transform="translate(738.048828 0)"/>
     <use xlink:href="#DejaVuSans-Bold-77" transform="translate(772.863281 0)"/>
     <use xlink:href="#DejaVuSans-Bold-6b" transform="translate(865.246094 0)"/>
     <use xlink:href="#DejaVuSans-Bold-20" transform="translate(931.75 0)"/>
     <use xlink:href="#DejaVuSans-Bold-37" transform="translate(966.564453 0)"/>
    </g>
   </g>
   <g id="text_12">
    <!-- Central Park, wk 48 -->
    <g style="fill: #c0392b" transform="translate(372.701812 265.173062) scale(0.086 -0.086)">
     <defs>
      <path id="DejaVuSans-Bold-34" d="M 2356 3675 
L 1038 1722 
L 2356 1722 
L 2356 3675 
z
M 2156 4666 
L 3494 4666 
L 3494 1722 
L 4159 1722 
L 4159 850 
L 3494 850 
L 3494 0 
L 2356 0 
L 2356 850 
L 288 850 
L 288 1881 
L 2156 4666 
z
" transform="scale(0.015625)"/>
      <path id="DejaVuSans-Bold-38" d="M 2228 2088 
Q 1891 2088 1709 1903 
Q 1528 1719 1528 1375 
Q 1528 1031 1709 848 
Q 1891 666 2228 666 
Q 2563 666 2741 848 
Q 2919 1031 2919 1375 
Q 2919 1722 2741 1905 
Q 2563 2088 2228 2088 
z
M 1350 2484 
Q 925 2613 709 2878 
Q 494 3144 494 3541 
Q 494 4131 934 4440 
Q 1375 4750 2228 4750 
Q 3075 4750 3515 4442 
Q 3956 4134 3956 3541 
Q 3956 3144 3739 2878 
Q 3522 2613 3097 2484 
Q 3572 2353 3814 2058 
Q 4056 1763 4056 1313 
Q 4056 619 3595 264 
Q 3134 -91 2228 -91 
Q 1319 -91 855 264 
Q 391 619 391 1313 
Q 391 1763 633 2058 
Q 875 2353 1350 2484 
z
M 1631 3419 
Q 1631 3141 1786 2991 
Q 1941 2841 2228 2841 
Q 2509 2841 2662 2991 
Q 2816 3141 2816 3419 
Q 2816 3697 2662 3845 
Q 2509 3994 2228 3994 
Q 1941 3994 1786 3844 
Q 1631 3694 1631 3419 
z
" transform="scale(0.015625)"/>
     </defs>
     <use xlink:href="#DejaVuSans-Bold-43"/>
     <use xlink:href="#DejaVuSans-Bold-65" transform="translate(73.388672 0)"/>
     <use xlink:href="#DejaVuSans-Bold-6e" transform="translate(141.210938 0)"/>
     <use xlink:href="#DejaVuSans-Bold-74" transform="translate(212.402344 0)"/>
     <use xlink:href="#DejaVuSans-Bold-72" transform="translate(260.205078 0)"/>
     <use xlink:href="#DejaVuSans-Bold-61" transform="translate(309.521484 0)"/>
     <use xlink:href="#DejaVuSans-Bold-6c" transform="translate(377.001953 0)"/>
     <use xlink:href="#DejaVuSans-Bold-20" transform="translate(411.279297 0)"/>
     <use xlink:href="#DejaVuSans-Bold-50" transform="translate(446.09375 0)"/>
     <use xlink:href="#DejaVuSans-Bold-61" transform="translate(516.759766 0)"/>
     <use xlink:href="#DejaVuSans-Bold-72" transform="translate(584.240234 0)"/>
     <use xlink:href="#DejaVuSans-Bold-6b" transform="translate(633.556641 0)"/>
     <use xlink:href="#DejaVuSans-Bold-2c" transform="translate(700.060547 0)"/>
     <use xlink:href="#DejaVuSans-Bold-20" transform="translate(738.048828 0)"/>
     <use xlink:href="#DejaVuSans-Bold-77" transform="translate(772.863281 0)"/>
     <use xlink:href="#DejaVuSans-Bold-6b" transform="translate(865.246094 0)"/>
     <use xlink:href="#DejaVuSans-Bold-20" transform="translate(931.75 0)"/>
     <use xlink:href="#DejaVuSans-Bold-34" transform="translate(966.564453 0)"/>
     <use xlink:href="#DejaVuSans-Bold-38" transform="translate(1036.144531 0)"/>
    </g>
   </g>
   <g id="text_13">
    <!-- rank at α = 0 -->
    <g style="fill: #222222" transform="translate(167.348922 64.786375) scale(0.095 -0.095)">
     <defs>
      <path id="DejaVuSans-Bold-3b1" d="M 3006 3163 
L 3119 3500 
L 4088 3500 
L 3484 1697 
L 3569 1219 
Q 3659 703 3872 703 
L 4128 703 
L 4128 0 
L 3809 0 
Q 3313 0 3059 263 
Q 3003 322 2988 353 
Q 2838 163 2689 39 
Q 2541 -84 1763 -78 
Q 988 -72 648 400 
Q 309 872 309 1794 
Q 309 2713 663 3088 
Q 1109 3569 1966 3578 
Q 2688 3588 3006 3163 
z
M 2575 1841 
L 2481 2350 
Q 2394 2825 1981 2828 
Q 1772 2828 1598 2558 
Q 1425 2288 1425 1741 
Q 1425 1191 1581 944 
Q 1738 697 1969 691 
Q 2213 684 2363 1163 
L 2575 1841 
z
" transform="scale(0.015625)"/>
      <path id="DejaVuSans-Bold-3d" d="M 678 3084 
L 4684 3084 
L 4684 2350 
L 678 2350 
L 678 3084 
z
M 678 1663 
L 4684 1663 
L 4684 922 
L 678 922 
L 678 1663 
z
" transform="scale(0.015625)"/>
      <path id="DejaVuSans-Bold-30" d="M 2944 2338 
Q 2944 3213 2780 3570 
Q 2616 3928 2228 3928 
Q 1841 3928 1675 3570 
Q 1509 3213 1509 2338 
Q 1509 1453 1675 1090 
Q 1841 728 2228 728 
Q 2613 728 2778 1090 
Q 2944 1453 2944 2338 
z
M 4147 2328 
Q 4147 1169 3647 539 
Q 3147 -91 2228 -91 
Q 1306 -91 806 539 
Q 306 1169 306 2328 
Q 306 3491 806 4120 
Q 1306 4750 2228 4750 
Q 3147 4750 3647 4120 
Q 4147 3491 4147 2328 
z
" transform="scale(0.015625)"/>
     </defs>
     <use xlink:href="#DejaVuSans-Bold-72"/>
     <use xlink:href="#DejaVuSans-Bold-61" transform="translate(49.316406 0)"/>
     <use xlink:href="#DejaVuSans-Bold-6e" transform="translate(116.796875 0)"/>
     <use xlink:href="#DejaVuSans-Bold-6b" transform="translate(187.988281 0)"/>
     <use xlink:href="#DejaVuSans-Bold-20" transform="translate(254.492188 0)"/>
     <use xlink:href="#DejaVuSans-Bold-61" transform="translate(289.306641 0)"/>
     <use xlink:href="#DejaVuSans-Bold-74" transform="translate(356.787109 0)"/>
     <use xlink:href="#DejaVuSans-Bold-20" transform="translate(404.589844 0)"/>
     <use xlink:href="#DejaVuSans-Bold-3b1" transform="translate(439.404297 0)"/>
     <use xlink:href="#DejaVuSans-Bold-20" transform="translate(508.105469 0)"/>
     <use xlink:href="#DejaVuSans-Bold-3d" transform="translate(542.919922 0)"/>
     <use xlink:href="#DejaVuSans-Bold-20" transform="translate(626.708984 0)"/>
     <use xlink:href="#DejaVuSans-Bold-30" transform="translate(661.523438 0)"/>
    </g>
    <!-- (most birds) -->
    <g style="fill: #222222" transform="translate(169.172477 75.424297) scale(0.095 -0.095)">
     <defs>
      <path id="DejaVuSans-Bold-28" d="M 2413 -844 
L 1484 -844 
Q 1006 -72 778 623 
Q 550 1319 550 2003 
Q 550 2688 779 3389 
Q 1009 4091 1484 4856 
L 2413 4856 
Q 2013 4116 1813 3408 
Q 1613 2700 1613 2009 
Q 1613 1319 1811 609 
Q 2009 -100 2413 -844 
z
" transform="scale(0.015625)"/>
      <path id="DejaVuSans-Bold-6d" d="M 3781 2919 
Q 3994 3244 4286 3414 
Q 4578 3584 4928 3584 
Q 5531 3584 5847 3212 
Q 6163 2841 6163 2131 
L 6163 0 
L 5038 0 
L 5038 1825 
Q 5041 1866 5042 1909 
Q 5044 1953 5044 2034 
Q 5044 2406 4934 2573 
Q 4825 2741 4581 2741 
Q 4263 2741 4089 2478 
Q 3916 2216 3909 1719 
L 3909 0 
L 2784 0 
L 2784 1825 
Q 2784 2406 2684 2573 
Q 2584 2741 2328 2741 
Q 2006 2741 1831 2477 
Q 1656 2213 1656 1722 
L 1656 0 
L 531 0 
L 531 3500 
L 1656 3500 
L 1656 2988 
Q 1863 3284 2130 3434 
Q 2397 3584 2719 3584 
Q 3081 3584 3359 3409 
Q 3638 3234 3781 2919 
z
" transform="scale(0.015625)"/>
      <path id="DejaVuSans-Bold-6f" d="M 2203 2784 
Q 1831 2784 1636 2517 
Q 1441 2250 1441 1747 
Q 1441 1244 1636 976 
Q 1831 709 2203 709 
Q 2569 709 2762 976 
Q 2956 1244 2956 1747 
Q 2956 2250 2762 2517 
Q 2569 2784 2203 2784 
z
M 2203 3584 
Q 3106 3584 3614 3096 
Q 4122 2609 4122 1747 
Q 4122 884 3614 396 
Q 3106 -91 2203 -91 
Q 1297 -91 786 396 
Q 275 884 275 1747 
Q 275 2609 786 3096 
Q 1297 3584 2203 3584 
z
" transform="scale(0.015625)"/>
      <path id="DejaVuSans-Bold-73" d="M 3272 3391 
L 3272 2541 
Q 2913 2691 2578 2766 
Q 2244 2841 1947 2841 
Q 1628 2841 1473 2761 
Q 1319 2681 1319 2516 
Q 1319 2381 1436 2309 
Q 1553 2238 1856 2203 
L 2053 2175 
Q 2913 2066 3209 1816 
Q 3506 1566 3506 1031 
Q 3506 472 3093 190 
Q 2681 -91 1863 -91 
Q 1516 -91 1145 -36 
Q 775 19 384 128 
L 384 978 
Q 719 816 1070 734 
Q 1422 653 1784 653 
Q 2113 653 2278 743 
Q 2444 834 2444 1013 
Q 2444 1163 2330 1236 
Q 2216 1309 1875 1350 
L 1678 1375 
Q 931 1469 631 1722 
Q 331 1975 331 2491 
Q 331 3047 712 3315 
Q 1094 3584 1881 3584 
Q 2191 3584 2531 3537 
Q 2872 3491 3272 3391 
z
" transform="scale(0.015625)"/>
      <path id="DejaVuSans-Bold-62" d="M 2400 722 
Q 2759 722 2948 984 
Q 3138 1247 3138 1747 
Q 3138 2247 2948 2509 
Q 2759 2772 2400 2772 
Q 2041 2772 1848 2508 
Q 1656 2244 1656 1747 
Q 1656 1250 1848 986 
Q 2041 722 2400 722 
z
M 1656 2988 
Q 1888 3294 2169 3439 
Q 2450 3584 2816 3584 
Q 3463 3584 3878 3070 
Q 4294 2556 4294 1747 
Q 4294 938 3878 423 
Q 3463 -91 2816 -91 
Q 2450 -91 2169 54 
Q 1888 200 1656 506 
L 1656 0 
L 538 0 
L 538 4863 
L 1656 4863 
L 1656 2988 
z
" transform="scale(0.015625)"/>
      <path id="DejaVuSans-Bold-69" d="M 538 3500 
L 1656 3500 
L 1656 0 
L 538 0 
L 538 3500 
z
M 538 4863 
L 1656 4863 
L 1656 3950 
L 538 3950 
L 538 4863 
z
" transform="scale(0.015625)"/>
      <path id="DejaVuSans-Bold-64" d="M 2919 2988 
L 2919 4863 
L 4044 4863 
L 4044 0 
L 2919 0 
L 2919 506 
Q 2688 197 2409 53 
Q 2131 -91 1766 -91 
Q 1119 -91 703 423 
Q 288 938 288 1747 
Q 288 2556 703 3070 
Q 1119 3584 1766 3584 
Q 2128 3584 2408 3439 
Q 2688 3294 2919 2988 
z
M 2181 722 
Q 2541 722 2730 984 
Q 2919 1247 2919 1747 
Q 2919 2247 2730 2509 
Q 2541 2772 2181 2772 
Q 1825 2772 1636 2509 
Q 1447 2247 1447 1747 
Q 1447 1247 1636 984 
Q 1825 722 2181 722 
z
" transform="scale(0.015625)"/>
      <path id="DejaVuSans-Bold-29" d="M 513 -844 
Q 913 -100 1113 609 
Q 1313 1319 1313 2009 
Q 1313 2700 1113 3408 
Q 913 4116 513 4856 
L 1441 4856 
Q 1916 4091 2145 3389 
Q 2375 2688 2375 2003 
Q 2375 1319 2147 623 
Q 1919 -72 1441 -844 
L 513 -844 
z
" transform="scale(0.015625)"/>
     </defs>
     <use xlink:href="#DejaVuSans-Bold-28"/>
     <use xlink:href="#DejaVuSans-Bold-6d" transform="translate(45.703125 0)"/>
     <use xlink:href="#DejaVuSans-Bold-6f" transform="translate(149.902344 0)"/>
     <use xlink:href="#DejaVuSans-Bold-73" transform="translate(218.603516 0)"/>
     <use xlink:href="#DejaVuSans-Bold-74" transform="translate(278.125 0)"/>
     <use xlink:href="#DejaVuSans-Bold-20" transform="translate(325.927734 0)"/>
     <use xlink:href="#DejaVuSans-Bold-62" transform="translate(360.742188 0)"/>
     <use xlink:href="#DejaVuSans-Bold-69" transform="translate(432.324219 0)"/>
     <use xlink:href="#DejaVuSans-Bold-72" transform="translate(466.601562 0)"/>
     <use xlink:href="#DejaVuSans-Bold-64" transform="translate(515.917969 0)"/>
     <use xlink:href="#DejaVuSans-Bold-73" transform="translate(587.5 0)"/>
     <use xlink:href="#DejaVuSans-Bold-29" transform="translate(647.021484 0)"/>
    </g>
   </g>
   <g id="text_14">
    <!-- rank at α = 1.5 -->
    <g style="fill: #222222" transform="translate(327.895953 64.786375) scale(0.095 -0.095)">
     <defs>
      <path id="DejaVuSans-Bold-31" d="M 750 831 
L 1813 831 
L 1813 3847 
L 722 3622 
L 722 4441 
L 1806 4666 
L 2950 4666 
L 2950 831 
L 4013 831 
L 4013 0 
L 750 0 
L 750 831 
z
" transform="scale(0.015625)"/>
      <path id="DejaVuSans-Bold-2e" d="M 653 1209 
L 1778 1209 
L 1778 0 
L 653 0 
L 653 1209 
z
" transform="scale(0.015625)"/>
      <path id="DejaVuSans-Bold-35" d="M 678 4666 
L 3669 4666 
L 3669 3781 
L 1638 3781 
L 1638 3059 
Q 1775 3097 1914 3117 
Q 2053 3138 2203 3138 
Q 3056 3138 3531 2711 
Q 4006 2284 4006 1522 
Q 4006 766 3489 337 
Q 2972 -91 2053 -91 
Q 1656 -91 1267 -14 
Q 878 63 494 219 
L 494 1166 
Q 875 947 1217 837 
Q 1559 728 1863 728 
Q 2300 728 2551 942 
Q 2803 1156 2803 1522 
Q 2803 1891 2551 2103 
Q 2300 2316 1863 2316 
Q 1603 2316 1309 2248 
Q 1016 2181 678 2041 
L 678 4666 
z
" transform="scale(0.015625)"/>
     </defs>
     <use xlink:href="#DejaVuSans-Bold-72"/>
     <use xlink:href="#DejaVuSans-Bold-61" transform="translate(49.316406 0)"/>
     <use xlink:href="#DejaVuSans-Bold-6e" transform="translate(116.796875 0)"/>
     <use xlink:href="#DejaVuSans-Bold-6b" transform="translate(187.988281 0)"/>
     <use xlink:href="#DejaVuSans-Bold-20" transform="translate(254.492188 0)"/>
     <use xlink:href="#DejaVuSans-Bold-61" transform="translate(289.306641 0)"/>
     <use xlink:href="#DejaVuSans-Bold-74" transform="translate(356.787109 0)"/>
     <use xlink:href="#DejaVuSans-Bold-20" transform="translate(404.589844 0)"/>
     <use xlink:href="#DejaVuSans-Bold-3b1" transform="translate(439.404297 0)"/>
     <use xlink:href="#DejaVuSans-Bold-20" transform="translate(508.105469 0)"/>
     <use xlink:href="#DejaVuSans-Bold-3d" transform="translate(542.919922 0)"/>
     <use xlink:href="#DejaVuSans-Bold-20" transform="translate(626.708984 0)"/>
     <use xlink:href="#DejaVuSans-Bold-31" transform="translate(661.523438 0)"/>
     <use xlink:href="#DejaVuSans-Bold-2e" transform="translate(731.103516 0)"/>
     <use xlink:href="#DejaVuSans-Bold-35" transform="translate(769.091797 0)"/>
    </g>
    <!-- (favor specialties) -->
    <g style="fill: #222222" transform="translate(319.088414 75.424297) scale(0.095 -0.095)">
     <defs>
      <path id="DejaVuSans-Bold-66" d="M 2841 4863 
L 2841 4128 
L 2222 4128 
Q 1984 4128 1890 4042 
Q 1797 3956 1797 3744 
L 1797 3500 
L 2753 3500 
L 2753 2700 
L 1797 2700 
L 1797 0 
L 678 0 
L 678 2700 
L 122 2700 
L 122 3500 
L 678 3500 
L 678 3744 
Q 678 4316 997 4589 
Q 1316 4863 1984 4863 
L 2841 4863 
z
" transform="scale(0.015625)"/>
      <path id="DejaVuSans-Bold-76" d="M 97 3500 
L 1216 3500 
L 2088 1081 
L 2956 3500 
L 4078 3500 
L 2700 0 
L 1472 0 
L 97 3500 
z
" transform="scale(0.015625)"/>
      <path id="DejaVuSans-Bold-70" d="M 1656 506 
L 1656 -1331 
L 538 -1331 
L 538 3500 
L 1656 3500 
L 1656 2988 
Q 1888 3294 2169 3439 
Q 2450 3584 2816 3584 
Q 3463 3584 3878 3070 
Q 4294 2556 4294 1747 
Q 4294 938 3878 423 
Q 3463 -91 2816 -91 
Q 2450 -91 2169 54 
Q 1888 200 1656 506 
z
M 2400 2772 
Q 2041 2772 1848 2508 
Q 1656 2244 1656 1747 
Q 1656 1250 1848 986 
Q 2041 722 2400 722 
Q 2759 722 2948 984 
Q 3138 1247 3138 1747 
Q 3138 2247 2948 2509 
Q 2759 2772 2400 2772 
z
" transform="scale(0.015625)"/>
      <path id="DejaVuSans-Bold-63" d="M 3366 3391 
L 3366 2478 
Q 3138 2634 2908 2709 
Q 2678 2784 2431 2784 
Q 1963 2784 1702 2511 
Q 1441 2238 1441 1747 
Q 1441 1256 1702 982 
Q 1963 709 2431 709 
Q 2694 709 2930 787 
Q 3166 866 3366 1019 
L 3366 103 
Q 3103 6 2833 -42 
Q 2563 -91 2291 -91 
Q 1344 -91 809 395 
Q 275 881 275 1747 
Q 275 2613 809 3098 
Q 1344 3584 2291 3584 
Q 2566 3584 2833 3536 
Q 3100 3488 3366 3391 
z
" transform="scale(0.015625)"/>
     </defs>
     <use xlink:href="#DejaVuSans-Bold-28"/>
     <use xlink:href="#DejaVuSans-Bold-66" transform="translate(45.703125 0)"/>
     <use xlink:href="#DejaVuSans-Bold-61" transform="translate(89.208984 0)"/>
     <use xlink:href="#DejaVuSans-Bold-76" transform="translate(156.689453 0)"/>
     <use xlink:href="#DejaVuSans-Bold-6f" transform="translate(221.875 0)"/>
     <use xlink:href="#DejaVuSans-Bold-72" transform="translate(290.576172 0)"/>
     <use xlink:href="#DejaVuSans-Bold-20" transform="translate(339.892578 0)"/>
     <use xlink:href="#DejaVuSans-Bold-73" transform="translate(374.707031 0)"/>
     <use xlink:href="#DejaVuSans-Bold-70" transform="translate(434.228516 0)"/>
     <use xlink:href="#DejaVuSans-Bold-65" transform="translate(505.810547 0)"/>
     <use xlink:href="#DejaVuSans-Bold-63" transform="translate(573.632812 0)"/>
     <use xlink:href="#DejaVuSans-Bold-69" transform="translate(632.910156 0)"/>
     <use xlink:href="#DejaVuSans-Bold-61" transform="translate(667.1875 0)"/>
     <use xlink:href="#DejaVuSans-Bold-6c" transform="translate(734.667969 0)"/>
     <use xlink:href="#DejaVuSans-Bold-74" transform="translate(768.945312 0)"/>
     <use xlink:href="#DejaVuSans-Bold-69" transform="translate(816.748047 0)"/>
     <use xlink:href="#DejaVuSans-Bold-65" transform="translate(851.025391 0)"/>
     <use xlink:href="#DejaVuSans-Bold-73" transform="translate(918.847656 0)"/>
     <use xlink:href="#DejaVuSans-Bold-29" transform="translate(978.369141 0)"/>
    </g>
   </g>
  </g>
  <g id="text_15">
   <!-- One knob reorders the recommendations -->
   <g style="fill: #222222" transform="translate(7.2 17.077969) scale(0.13 -0.13)">
    <defs>
     <path id="DejaVuSans-Bold-4f" d="M 2719 3878 
Q 2169 3878 1866 3472 
Q 1563 3066 1563 2328 
Q 1563 1594 1866 1187 
Q 2169 781 2719 781 
Q 3272 781 3575 1187 
Q 3878 1594 3878 2328 
Q 3878 3066 3575 3472 
Q 3272 3878 2719 3878 
z
M 2719 4750 
Q 3844 4750 4481 4106 
Q 5119 3463 5119 2328 
Q 5119 1197 4481 553 
Q 3844 -91 2719 -91 
Q 1597 -91 958 553 
Q 319 1197 319 2328 
Q 319 3463 958 4106 
Q 1597 4750 2719 4750 
z
" transform="scale(0.015625)"/>
     <path id="DejaVuSans-Bold-68" d="M 4056 2131 
L 4056 0 
L 2931 0 
L 2931 347 
L 2931 1625 
Q 2931 2084 2911 2256 
Q 2891 2428 2841 2509 
Q 2775 2619 2662 2680 
Q 2550 2741 2406 2741 
Q 2056 2741 1856 2470 
Q 1656 2200 1656 1722 
L 1656 0 
L 538 0 
L 538 4863 
L 1656 4863 
L 1656 2988 
Q 1909 3294 2193 3439 
Q 2478 3584 2822 3584 
Q 3428 3584 3742 3212 
Q 4056 2841 4056 2131 
z
" transform="scale(0.015625)"/>
    </defs>
    <use xlink:href="#DejaVuSans-Bold-4f"/>
    <use xlink:href="#DejaVuSans-Bold-6e" transform="translate(85.009766 0)"/>
    <use xlink:href="#DejaVuSans-Bold-65" transform="translate(156.201172 0)"/>
    <use xlink:href="#DejaVuSans-Bold-20" transform="translate(224.023438 0)"/>
    <use xlink:href="#DejaVuSans-Bold-6b" transform="translate(258.837891 0)"/>
    <use xlink:href="#DejaVuSans-Bold-6e" transform="translate(325.341797 0)"/>
    <use xlink:href="#DejaVuSans-Bold-6f" transform="translate(396.533203 0)"/>
    <use xlink:href="#DejaVuSans-Bold-62" transform="translate(465.234375 0)"/>
    <use xlink:href="#DejaVuSans-Bold-20" transform="translate(536.816406 0)"/>
    <use xlink:href="#DejaVuSans-Bold-72" transform="translate(571.630859 0)"/>
    <use xlink:href="#DejaVuSans-Bold-65" transform="translate(620.947266 0)"/>
    <use xlink:href="#DejaVuSans-Bold-6f" transform="translate(688.769531 0)"/>
    <use xlink:href="#DejaVuSans-Bold-72" transform="translate(757.470703 0)"/>
    <use xlink:href="#DejaVuSans-Bold-64" transform="translate(806.787109 0)"/>
    <use xlink:href="#DejaVuSans-Bold-65" transform="translate(878.369141 0)"/>
    <use xlink:href="#DejaVuSans-Bold-72" transform="translate(946.191406 0)"/>
    <use xlink:href="#DejaVuSans-Bold-73" transform="translate(995.507812 0)"/>
    <use xlink:href="#DejaVuSans-Bold-20" transform="translate(1055.029297 0)"/>
    <use xlink:href="#DejaVuSans-Bold-74" transform="translate(1089.84375 0)"/>
    <use xlink:href="#DejaVuSans-Bold-68" transform="translate(1137.646484 0)"/>
    <use xlink:href="#DejaVuSans-Bold-65" transform="translate(1208.837891 0)"/>
    <use xlink:href="#DejaVuSans-Bold-20" transform="translate(1276.660156 0)"/>
    <use xlink:href="#DejaVuSans-Bold-72" transform="translate(1311.474609 0)"/>
    <use xlink:href="#DejaVuSans-Bold-65" transform="translate(1360.791016 0)"/>
    <use xlink:href="#DejaVuSans-Bold-63" transform="translate(1428.613281 0)"/>
    <use xlink:href="#DejaVuSans-Bold-6f" transform="translate(1487.890625 0)"/>
    <use xlink:href="#DejaVuSans-Bold-6d" transform="translate(1556.591797 0)"/>
    <use xlink:href="#DejaVuSans-Bold-6d" transform="translate(1660.791016 0)"/>
    <use xlink:href="#DejaVuSans-Bold-65" transform="translate(1764.990234 0)"/>
    <use xlink:href="#DejaVuSans-Bold-6e" transform="translate(1832.8125 0)"/>
    <use xlink:href="#DejaVuSans-Bold-64" transform="translate(1904.003906 0)"/>
    <use xlink:href="#DejaVuSans-Bold-61" transform="translate(1975.585938 0)"/>
    <use xlink:href="#DejaVuSans-Bold-74" transform="translate(2043.066406 0)"/>
    <use xlink:href="#DejaVuSans-Bold-69" transform="translate(2090.869141 0)"/>
    <use xlink:href="#DejaVuSans-Bold-6f" transform="translate(2125.146484 0)"/>
    <use xlink:href="#DejaVuSans-Bold-6e" transform="translate(2193.847656 0)"/>
    <use xlink:href="#DejaVuSans-Bold-73" transform="translate(2265.039062 0)"/>
   </g>
  </g>
  <g id="text_16">
   <!-- Each line is a (place, week). Raising rarity-weighting (α) promotes coastal-specialty and spring-migration weeks (red) -->
   <g style="fill: #999999" transform="translate(7.2 350.705816) scale(0.083 -0.083)">
    <defs>
     <path id="DejaVuSans-45" d="M 628 4666 
L 3578 4666 
L 3578 4134 
L 1259 4134 
L 1259 2753 
L 3481 2753 
L 3481 2222 
L 1259 2222 
L 1259 531 
L 3634 531 
L 3634 0 
L 628 0 
L 628 4666 
z
" transform="scale(0.015625)"/>
     <path id="DejaVuSans-63" d="M 3122 3366 
L 3122 2828 
Q 2878 2963 2633 3030 
Q 2388 3097 2138 3097 
Q 1578 3097 1268 2742 
Q 959 2388 959 1747 
Q 959 1106 1268 751 
Q 1578 397 2138 397 
Q 2388 397 2633 464 
Q 2878 531 3122 666 
L 3122 134 
Q 2881 22 2623 -34 
Q 2366 -91 2075 -91 
Q 1284 -91 818 406 
Q 353 903 353 1747 
Q 353 2603 823 3093 
Q 1294 3584 2113 3584 
Q 2378 3584 2631 3529 
Q 2884 3475 3122 3366 
z
" transform="scale(0.015625)"/>
     <path id="DejaVuSans-68" d="M 3513 2113 
L 3513 0 
L 2938 0 
L 2938 2094 
Q 2938 2591 2744 2837 
Q 2550 3084 2163 3084 
Q 1697 3084 1428 2787 
Q 1159 2491 1159 1978 
L 1159 0 
L 581 0 
L 581 4863 
L 1159 4863 
L 1159 2956 
Q 1366 3272 1645 3428 
Q 1925 3584 2291 3584 
Q 2894 3584 3203 3211 
Q 3513 2838 3513 2113 
z
" transform="scale(0.015625)"/>
     <path id="DejaVuSans-6c" d="M 603 4863 
L 1178 4863 
L 1178 0 
L 603 0 
L 603 4863 
z
" transform="scale(0.015625)"/>
     <path id="DejaVuSans-65" d="M 3597 1894 
L 3597 1613 
L 953 1613 
Q 991 1019 1311 708 
Q 1631 397 2203 397 
Q 2534 397 2845 478 
Q 3156 559 3463 722 
L 3463 178 
Q 3153 47 2828 -22 
Q 2503 -91 2169 -91 
Q 1331 -91 842 396 
Q 353 884 353 1716 
Q 353 2575 817 3079 
Q 1281 3584 2069 3584 
Q 2775 3584 3186 3129 
Q 3597 2675 3597 1894 
z
M 3022 2063 
Q 3016 2534 2758 2815 
Q 2500 3097 2075 3097 
Q 1594 3097 1305 2825 
Q 1016 2553 972 2059 
L 3022 2063 
z
" transform="scale(0.015625)"/>
     <path id="DejaVuSans-73" d="M 2834 3397 
L 2834 2853 
Q 2591 2978 2328 3040 
Q 2066 3103 1784 3103 
Q 1356 3103 1142 2972 
Q 928 2841 928 2578 
Q 928 2378 1081 2264 
Q 1234 2150 1697 2047 
L 1894 2003 
Q 2506 1872 2764 1633 
Q 3022 1394 3022 966 
Q 3022 478 2636 193 
Q 2250 -91 1575 -91 
Q 1294 -91 989 -36 
Q 684 19 347 128 
L 347 722 
Q 666 556 975 473 
Q 1284 391 1588 391 
Q 1994 391 2212 530 
Q 2431 669 2431 922 
Q 2431 1156 2273 1281 
Q 2116 1406 1581 1522 
L 1381 1569 
Q 847 1681 609 1914 
Q 372 2147 372 2553 
Q 372 3047 722 3315 
Q 1072 3584 1716 3584 
Q 2034 3584 2315 3537 
Q 2597 3491 2834 3397 
z
" transform="scale(0.015625)"/>
     <path id="DejaVuSans-28" d="M 1984 4856 
Q 1566 4138 1362 3434 
Q 1159 2731 1159 2009 
Q 1159 1288 1364 580 
Q 1569 -128 1984 -844 
L 1484 -844 
Q 1016 -109 783 600 
Q 550 1309 550 2009 
Q 550 2706 781 3412 
Q 1013 4119 1484 4856 
L 1984 4856 
z
" transform="scale(0.015625)"/>
     <path id="DejaVuSans-70" d="M 1159 525 
L 1159 -1331 
L 581 -1331 
L 581 3500 
L 1159 3500 
L 1159 2969 
Q 1341 3281 1617 3432 
Q 1894 3584 2278 3584 
Q 2916 3584 3314 3078 
Q 3713 2572 3713 1747 
Q 3713 922 3314 415 
Q 2916 -91 2278 -91 
Q 1894 -91 1617 61 
Q 1341 213 1159 525 
z
M 3116 1747 
Q 3116 2381 2855 2742 
Q 2594 3103 2138 3103 
Q 1681 3103 1420 2742 
Q 1159 2381 1159 1747 
Q 1159 1113 1420 752 
Q 1681 391 2138 391 
Q 2594 391 2855 752 
Q 3116 1113 3116 1747 
z
" transform="scale(0.015625)"/>
     <path id="DejaVuSans-29" d="M 513 4856 
L 1013 4856 
Q 1481 4119 1714 3412 
Q 1947 2706 1947 2009 
Q 1947 1309 1714 600 
Q 1481 -109 1013 -844 
L 513 -844 
Q 928 -128 1133 580 
Q 1338 1288 1338 2009 
Q 1338 2731 1133 3434 
Q 928 4138 513 4856 
z
" transform="scale(0.015625)"/>
     <path id="DejaVuSans-2e" d="M 684 794 
L 1344 794 
L 1344 0 
L 684 0 
L 684 794 
z
" transform="scale(0.015625)"/>
     <path id="DejaVuSans-52" d="M 2841 2188 
Q 3044 2119 3236 1894 
Q 3428 1669 3622 1275 
L 4263 0 
L 3584 0 
L 2988 1197 
Q 2756 1666 2539 1819 
Q 2322 1972 1947 1972 
L 1259 1972 
L 1259 0 
L 628 0 
L 628 4666 
L 2053 4666 
Q 2853 4666 3247 4331 
Q 3641 3997 3641 3322 
Q 3641 2881 3436 2590 
Q 3231 2300 2841 2188 
z
M 1259 4147 
L 1259 2491 
L 2053 2491 
Q 2509 2491 2742 2702 
Q 2975 2913 2975 3322 
Q 2975 3731 2742 3939 
Q 2509 4147 2053 4147 
L 1259 4147 
z
" transform="scale(0.015625)"/>
     <path id="DejaVuSans-67" d="M 2906 1791 
Q 2906 2416 2648 2759 
Q 2391 3103 1925 3103 
Q 1463 3103 1205 2759 
Q 947 2416 947 1791 
Q 947 1169 1205 825 
Q 1463 481 1925 481 
Q 2391 481 2648 825 
Q 2906 1169 2906 1791 
z
M 3481 434 
Q 3481 -459 3084 -895 
Q 2688 -1331 1869 -1331 
Q 1566 -1331 1297 -1286 
Q 1028 -1241 775 -1147 
L 775 -588 
Q 1028 -725 1275 -790 
Q 1522 -856 1778 -856 
Q 2344 -856 2625 -561 
Q 2906 -266 2906 331 
L 2906 616 
Q 2728 306 2450 153 
Q 2172 0 1784 0 
Q 1141 0 747 490 
Q 353 981 353 1791 
Q 353 2603 747 3093 
Q 1141 3584 1784 3584 
Q 2172 3584 2450 3431 
Q 2728 3278 2906 2969 
L 2906 3500 
L 3481 3500 
L 3481 434 
z
" transform="scale(0.015625)"/>
     <path id="DejaVuSans-72" d="M 2631 2963 
Q 2534 3019 2420 3045 
Q 2306 3072 2169 3072 
Q 1681 3072 1420 2755 
Q 1159 2438 1159 1844 
L 1159 0 
L 581 0 
L 581 3500 
L 1159 3500 
L 1159 2956 
Q 1341 3275 1631 3429 
Q 1922 3584 2338 3584 
Q 2397 3584 2469 3576 
Q 2541 3569 2628 3553 
L 2631 2963 
z
" transform="scale(0.015625)"/>
     <path id="DejaVuSans-79" d="M 2059 -325 
Q 1816 -950 1584 -1140 
Q 1353 -1331 966 -1331 
L 506 -1331 
L 506 -850 
L 844 -850 
Q 1081 -850 1212 -737 
Q 1344 -625 1503 -206 
L 1606 56 
L 191 3500 
L 800 3500 
L 1894 763 
L 2988 3500 
L 3597 3500 
L 2059 -325 
z
" transform="scale(0.015625)"/>
     <path id="DejaVuSans-2d" d="M 313 2009 
L 1997 2009 
L 1997 1497 
L 313 1497 
L 313 2009 
z
" transform="scale(0.015625)"/>
     <path id="DejaVuSans-3b1" d="M 2644 1628 
L 2506 2350 
Q 2366 3091 1809 3091 
Q 1391 3091 1200 2747 
Q 959 2316 959 1747 
Q 959 1059 1194 731 
Q 1431 397 1809 397 
Q 2228 397 2453 1063 
L 2644 1628 
z
M 2966 2584 
L 3275 3500 
L 3788 3500 
L 3147 1603 
L 3272 919 
Q 3300 766 3409 638 
Q 3538 488 3638 488 
L 3913 488 
L 3913 0 
L 3569 0 
Q 3275 0 3013 263 
Q 2884 394 2831 669 
Q 2688 322 2394 50 
Q 2256 -78 1809 -78 
Q 1075 -78 719 397 
Q 353 888 353 1747 
Q 353 2666 750 3097 
Q 1191 3578 1809 3578 
Q 2781 3578 2966 2584 
z
" transform="scale(0.015625)"/>
     <path id="DejaVuSans-6d" d="M 3328 2828 
Q 3544 3216 3844 3400 
Q 4144 3584 4550 3584 
Q 5097 3584 5394 3201 
Q 5691 2819 5691 2113 
L 5691 0 
L 5113 0 
L 5113 2094 
Q 5113 2597 4934 2840 
Q 4756 3084 4391 3084 
Q 3944 3084 3684 2787 
Q 3425 2491 3425 1978 
L 3425 0 
L 2847 0 
L 2847 2094 
Q 2847 2600 2669 2842 
Q 2491 3084 2119 3084 
Q 1678 3084 1418 2786 
Q 1159 2488 1159 1978 
L 1159 0 
L 581 0 
L 581 3500 
L 1159 3500 
L 1159 2956 
Q 1356 3278 1631 3431 
Q 1906 3584 2284 3584 
Q 2666 3584 2933 3390 
Q 3200 3197 3328 2828 
z
" transform="scale(0.015625)"/>
     <path id="DejaVuSans-64" d="M 2906 2969 
L 2906 4863 
L 3481 4863 
L 3481 0 
L 2906 0 
L 2906 525 
Q 2725 213 2448 61 
Q 2172 -91 1784 -91 
Q 1150 -91 751 415 
Q 353 922 353 1747 
Q 353 2572 751 3078 
Q 1150 3584 1784 3584 
Q 2172 3584 2448 3432 
Q 2725 3281 2906 2969 
z
M 947 1747 
Q 947 1113 1208 752 
Q 1469 391 1925 391 
Q 2381 391 2643 752 
Q 2906 1113 2906 1747 
Q 2906 2381 2643 2742 
Q 2381 3103 1925 3103 
Q 1469 3103 1208 2742 
Q 947 2381 947 1747 
z
" transform="scale(0.015625)"/>
    </defs>
    <use xlink:href="#DejaVuSans-45"/>
    <use xlink:href="#DejaVuSans-61" transform="translate(63.183594 0)"/>
    <use xlink:href="#DejaVuSans-63" transform="translate(124.462891 0)"/>
    <use xlink:href="#DejaVuSans-68" transform="translate(179.443359 0)"/>
    <use xlink:href="#DejaVuSans-20" transform="translate(242.822266 0)"/>
    <use xlink:href="#DejaVuSans-6c" transform="translate(274.609375 0)"/>
    <use xlink:href="#DejaVuSans-69" transform="translate(302.392578 0)"/>
    <use xlink:href="#DejaVuSans-6e" transform="translate(330.175781 0)"/>
    <use xlink:href="#DejaVuSans-65" transform="translate(393.554688 0)"/>
    <use xlink:href="#DejaVuSans-20" transform="translate(455.078125 0)"/>
    <use xlink:href="#DejaVuSans-69" transform="translate(486.865234 0)"/>
    <use xlink:href="#DejaVuSans-73" transform="translate(514.648438 0)"/>
    <use xlink:href="#DejaVuSans-20" transform="translate(566.748047 0)"/>
    <use xlink:href="#DejaVuSans-61" transform="translate(598.535156 0)"/>
    <use xlink:href="#DejaVuSans-20" transform="translate(659.814453 0)"/>
    <use xlink:href="#DejaVuSans-28" transform="translate(691.601562 0)"/>
    <use xlink:href="#DejaVuSans-70" transform="translate(730.615234 0)"/>
    <use xlink:href="#DejaVuSans-6c" transform="translate(794.091797 0)"/>
    <use xlink:href="#DejaVuSans-61" transform="translate(821.875 0)"/>
    <use xlink:href="#DejaVuSans-63" transform="translate(883.154297 0)"/>
    <use xlink:href="#DejaVuSans-65" transform="translate(938.134766 0)"/>
    <use xlink:href="#DejaVuSans-2c" transform="translate(999.658203 0)"/>
    <use xlink:href="#DejaVuSans-20" transform="translate(1031.445312 0)"/>
    <use xlink:href="#DejaVuSans-77" transform="translate(1063.232422 0)"/>
    <use xlink:href="#DejaVuSans-65" transform="translate(1145.019531 0)"/>
    <use xlink:href="#DejaVuSans-65" transform="translate(1206.542969 0)"/>
    <use xlink:href="#DejaVuSans-6b" transform="translate(1268.066406 0)"/>
    <use xlink:href="#DejaVuSans-29" transform="translate(1325.976562 0)"/>
    <use xlink:href="#DejaVuSans-2e" transform="translate(1364.990234 0)"/>
    <use xlink:href="#DejaVuSans-20" transform="translate(1396.777344 0)"/>
    <use xlink:href="#DejaVuSans-52" transform="translate(1428.564453 0)"/>
    <use xlink:href="#DejaVuSans-61" transform="translate(1495.796875 0)"/>
    <use xlink:href="#DejaVuSans-69" transform="translate(1557.076172 0)"/>
    <use xlink:href="#DejaVuSans-73" transform="translate(1584.859375 0)"/>
    <use xlink:href="#DejaVuSans-69" transform="translate(1636.958984 0)"/>
    <use xlink:href="#DejaVuSans-6e" transform="translate(1664.742188 0)"/>
    <use xlink:href="#DejaVuSans-67" transform="translate(1728.121094 0)"/>
    <use xlink:href="#DejaVuSans-20" transform="translate(1791.597656 0)"/>
    <use xlink:href="#DejaVuSans-72" transform="translate(1823.384766 0)"/>
    <use xlink:href="#DejaVuSans-61" transform="translate(1864.498047 0)"/>
    <use xlink:href="#DejaVuSans-72" transform="translate(1925.777344 0)"/>
    <use xlink:href="#DejaVuSans-69" transform="translate(1966.890625 0)"/>
    <use xlink:href="#DejaVuSans-74" transform="translate(1994.673828 0)"/>
    <use xlink:href="#DejaVuSans-79" transform="translate(2033.882812 0)"/>
    <use xlink:href="#DejaVuSans-2d" transform="translate(2091.3125 0)"/>
    <use xlink:href="#DejaVuSans-77" transform="translate(2127.396484 0)"/>
    <use xlink:href="#DejaVuSans-65" transform="translate(2209.183594 0)"/>
    <use xlink:href="#DejaVuSans-69" transform="translate(2270.707031 0)"/>
    <use xlink:href="#DejaVuSans-67" transform="translate(2298.490234 0)"/>
    <use xlink:href="#DejaVuSans-68" transform="translate(2361.966797 0)"/>
    <use xlink:href="#DejaVuSans-74" transform="translate(2425.345703 0)"/>
    <use xlink:href="#DejaVuSans-69" transform="translate(2464.554688 0)"/>
    <use xlink:href="#DejaVuSans-6e" transform="translate(2492.337891 0)"/>
    <use xlink:href="#DejaVuSans-67" transform="translate(2555.716797 0)"/>
    <use xlink:href="#DejaVuSans-20" transform="translate(2619.193359 0)"/>
    <use xlink:href="#DejaVuSans-28" transform="translate(2650.980469 0)"/>
    <use xlink:href="#DejaVuSans-3b1" transform="translate(2689.994141 0)"/>
    <use xlink:href="#DejaVuSans-29" transform="translate(2755.912109 0)"/>
    <use xlink:href="#DejaVuSans-20" transform="translate(2794.925781 0)"/>
    <use xlink:href="#DejaVuSans-70" transform="translate(2826.712891 0)"/>
    <use xlink:href="#DejaVuSans-72" transform="translate(2890.189453 0)"/>
    <use xlink:href="#DejaVuSans-6f" transform="translate(2929.052734 0)"/>
    <use xlink:href="#DejaVuSans-6d" transform="translate(2990.234375 0)"/>
    <use xlink:href="#DejaVuSans-6f" transform="translate(3087.646484 0)"/>
    <use xlink:href="#DejaVuSans-74" transform="translate(3148.828125 0)"/>
    <use xlink:href="#DejaVuSans-65" transform="translate(3188.037109 0)"/>
    <use xlink:href="#DejaVuSans-73" transform="translate(3249.560547 0)"/>
    <use xlink:href="#DejaVuSans-20" transform="translate(3301.660156 0)"/>
    <use xlink:href="#DejaVuSans-63" transform="translate(3333.447266 0)"/>
    <use xlink:href="#DejaVuSans-6f" transform="translate(3388.427734 0)"/>
    <use xlink:href="#DejaVuSans-61" transform="translate(3449.609375 0)"/>
    <use xlink:href="#DejaVuSans-73" transform="translate(3510.888672 0)"/>
    <use xlink:href="#DejaVuSans-74" transform="translate(3562.988281 0)"/>
    <use xlink:href="#DejaVuSans-61" transform="translate(3602.197266 0)"/>
    <use xlink:href="#DejaVuSans-6c" transform="translate(3663.476562 0)"/>
    <use xlink:href="#DejaVuSans-2d" transform="translate(3691.259766 0)"/>
    <use xlink:href="#DejaVuSans-73" transform="translate(3727.34375 0)"/>
    <use xlink:href="#DejaVuSans-70" transform="translate(3779.443359 0)"/>
    <use xlink:href="#DejaVuSans-65" transform="translate(3842.919922 0)"/>
    <use xlink:href="#DejaVuSans-63" transform="translate(3904.443359 0)"/>
    <use xlink:href="#DejaVuSans-69" transform="translate(3959.423828 0)"/>
    <use xlink:href="#DejaVuSans-61" transform="translate(3987.207031 0)"/>
    <use xlink:href="#DejaVuSans-6c" transform="translate(4048.486328 0)"/>
    <use xlink:href="#DejaVuSans-74" transform="translate(4076.269531 0)"/>
    <use xlink:href="#DejaVuSans-79" transform="translate(4115.478516 0)"/>
    <use xlink:href="#DejaVuSans-20" transform="translate(4174.658203 0)"/>
    <use xlink:href="#DejaVuSans-61" transform="translate(4206.445312 0)"/>
    <use xlink:href="#DejaVuSans-6e" transform="translate(4267.724609 0)"/>
    <use xlink:href="#DejaVuSans-64" transform="translate(4331.103516 0)"/>
    <use xlink:href="#DejaVuSans-20" transform="translate(4394.580078 0)"/>
    <use xlink:href="#DejaVuSans-73" transform="translate(4426.367188 0)"/>
    <use xlink:href="#DejaVuSans-70" transform="translate(4478.466797 0)"/>
    <use xlink:href="#DejaVuSans-72" transform="translate(4541.943359 0)"/>
    <use xlink:href="#DejaVuSans-69" transform="translate(4583.056641 0)"/>
    <use xlink:href="#DejaVuSans-6e" transform="translate(4610.839844 0)"/>
    <use xlink:href="#DejaVuSans-67" transform="translate(4674.21875 0)"/>
    <use xlink:href="#DejaVuSans-2d" transform="translate(4737.695312 0)"/>
    <use xlink:href="#DejaVuSans-6d" transform="translate(4773.779297 0)"/>
    <use xlink:href="#DejaVuSans-69" transform="translate(4871.191406 0)"/>
    <use xlink:href="#DejaVuSans-67" transform="translate(4898.974609 0)"/>
    <use xlink:href="#DejaVuSans-72" transform="translate(4962.451172 0)"/>
    <use xlink:href="#DejaVuSans-61" transform="translate(5003.564453 0)"/>
    <use xlink:href="#DejaVuSans-74" transform="translate(5064.84375 0)"/>
    <use xlink:href="#DejaVuSans-69" transform="translate(5104.052734 0)"/>
    <use xlink:href="#DejaVuSans-6f" transform="translate(5131.835938 0)"/>
    <use xlink:href="#DejaVuSans-6e" transform="translate(5193.017578 0)"/>
    <use xlink:href="#DejaVuSans-20" transform="translate(5256.396484 0)"/>
    <use xlink:href="#DejaVuSans-77" transform="translate(5288.183594 0)"/>
    <use xlink:href="#DejaVuSans-65" transform="translate(5369.970703 0)"/>
    <use xlink:href="#DejaVuSans-65" transform="translate(5431.494141 0)"/>
    <use xlink:href="#DejaVuSans-6b" transform="translate(5493.017578 0)"/>
    <use xlink:href="#DejaVuSans-73" transform="translate(5550.927734 0)"/>
    <use xlink:href="#DejaVuSans-20" transform="translate(5603.027344 0)"/>
    <use xlink:href="#DejaVuSans-28" transform="translate(5634.814453 0)"/>
    <use xlink:href="#DejaVuSans-72" transform="translate(5673.828125 0)"/>
    <use xlink:href="#DejaVuSans-65" transform="translate(5712.691406 0)"/>
    <use xlink:href="#DejaVuSans-64" transform="translate(5774.214844 0)"/>
    <use xlink:href="#DejaVuSans-29" transform="translate(5837.691406 0)"/>
   </g>
   <!-- into the top list, displacing the busiest sites (grey). α is continuous; 0 and 1.5 are just two stops on the slider. -->
   <g style="fill: #999999" transform="translate(7.2 360) scale(0.083 -0.083)">
    <defs>
     <path id="DejaVuSans-62" d="M 3116 1747 
Q 3116 2381 2855 2742 
Q 2594 3103 2138 3103 
Q 1681 3103 1420 2742 
Q 1159 2381 1159 1747 
Q 1159 1113 1420 752 
Q 1681 391 2138 391 
Q 2594 391 2855 752 
Q 3116 1113 3116 1747 
z
M 1159 2969 
Q 1341 3281 1617 3432 
Q 1894 3584 2278 3584 
Q 2916 3584 3314 3078 
Q 3713 2572 3713 1747 
Q 3713 922 3314 415 
Q 2916 -91 2278 -91 
Q 1894 -91 1617 61 
Q 1341 213 1159 525 
L 1159 0 
L 581 0 
L 581 4863 
L 1159 4863 
L 1159 2969 
z
" transform="scale(0.015625)"/>
     <path id="DejaVuSans-3b" d="M 750 3309 
L 1409 3309 
L 1409 2516 
L 750 2516 
L 750 3309 
z
M 750 794 
L 1409 794 
L 1409 256 
L 897 -744 
L 494 -744 
L 750 256 
L 750 794 
z
" transform="scale(0.015625)"/>
     <path id="DejaVuSans-30" d="M 2034 4250 
Q 1547 4250 1301 3770 
Q 1056 3291 1056 2328 
Q 1056 1369 1301 889 
Q 1547 409 2034 409 
Q 2525 409 2770 889 
Q 3016 1369 3016 2328 
Q 3016 3291 2770 3770 
Q 2525 4250 2034 4250 
z
M 2034 4750 
Q 2819 4750 3233 4129 
Q 3647 3509 3647 2328 
Q 3647 1150 3233 529 
Q 2819 -91 2034 -91 
Q 1250 -91 836 529 
Q 422 1150 422 2328 
Q 422 3509 836 4129 
Q 1250 4750 2034 4750 
z
" transform="scale(0.015625)"/>
     <path id="DejaVuSans-35" d="M 691 4666 
L 3169 4666 
L 3169 4134 
L 1269 4134 
L 1269 2991 
Q 1406 3038 1543 3061 
Q 1681 3084 1819 3084 
Q 2600 3084 3056 2656 
Q 3513 2228 3513 1497 
Q 3513 744 3044 326 
Q 2575 -91 1722 -91 
Q 1428 -91 1123 -41 
Q 819 9 494 109 
L 494 744 
Q 775 591 1075 516 
Q 1375 441 1709 441 
Q 2250 441 2565 725 
Q 2881 1009 2881 1497 
Q 2881 1984 2565 2268 
Q 2250 2553 1709 2553 
Q 1456 2553 1204 2497 
Q 953 2441 691 2322 
L 691 4666 
z
" transform="scale(0.015625)"/>
     <path id="DejaVuSans-6a" d="M 603 3500 
L 1178 3500 
L 1178 -63 
Q 1178 -731 923 -1031 
Q 669 -1331 103 -1331 
L -116 -1331 
L -116 -844 
L 38 -844 
Q 366 -844 484 -692 
Q 603 -541 603 -63 
L 603 3500 
z
M 603 4863 
L 1178 4863 
L 1178 4134 
L 603 4134 
L 603 4863 
z
" transform="scale(0.015625)"/>
    </defs>
    <use xlink:href="#DejaVuSans-69"/>
    <use xlink:href="#DejaVuSans-6e" transform="translate(27.783203 0)"/>
    <use xlink:href="#DejaVuSans-74" transform="translate(91.162109 0)"/>
    <use xlink:href="#DejaVuSans-6f" transform="translate(130.371094 0)"/>
    <use xlink:href="#DejaVuSans-20" transform="translate(191.552734 0)"/>
    <use xlink:href="#DejaVuSans-74" transform="translate(223.339844 0)"/>
    <use xlink:href="#DejaVuSans-68" transform="translate(262.548828 0)"/>
    <use xlink:href="#DejaVuSans-65" transform="translate(325.927734 0)"/>
    <use xlink:href="#DejaVuSans-20" transform="translate(387.451172 0)"/>
    <use xlink:href="#DejaVuSans-74" transform="translate(419.238281 0)"/>
    <use xlink:href="#DejaVuSans-6f" transform="translate(458.447266 0)"/>
    <use xlink:href="#DejaVuSans-70" transform="translate(519.628906 0)"/>
    <use xlink:href="#DejaVuSans-20" transform="translate(583.105469 0)"/>
    <use xlink:href="#DejaVuSans-6c" transform="translate(614.892578 0)"/>
    <use xlink:href="#DejaVuSans-69" transform="translate(642.675781 0)"/>
    <use xlink:href="#DejaVuSans-73" transform="translate(670.458984 0)"/>
    <use xlink:href="#DejaVuSans-74" transform="translate(722.558594 0)"/>
    <use xlink:href="#DejaVuSans-2c" transform="translate(761.767578 0)"/>
    <use xlink:href="#DejaVuSans-20" transform="translate(793.554688 0)"/>
    <use xlink:href="#DejaVuSans-64" transform="translate(825.341797 0)"/>
    <use xlink:href="#DejaVuSans-69" transform="translate(888.818359 0)"/>
    <use xlink:href="#DejaVuSans-73" transform="translate(916.601562 0)"/>
    <use xlink:href="#DejaVuSans-70" transform="translate(968.701172 0)"/>
    <use xlink:href="#DejaVuSans-6c" transform="translate(1032.177734 0)"/>
    <use xlink:href="#DejaVuSans-61" transform="translate(1059.960938 0)"/>
    <use xlink:href="#DejaVuSans-63" transform="translate(1121.240234 0)"/>
    <use xlink:href="#DejaVuSans-69" transform="translate(1176.220703 0)"/>
    <use xlink:href="#DejaVuSans-6e" transform="translate(1204.003906 0)"/>
    <use xlink:href="#DejaVuSans-67" transform="translate(1267.382812 0)"/>
    <use xlink:href="#DejaVuSans-20" transform="translate(1330.859375 0)"/>
    <use xlink:href="#DejaVuSans-74" transform="translate(1362.646484 0)"/>
    <use xlink:href="#DejaVuSans-68" transform="translate(1401.855469 0)"/>
    <use xlink:href="#DejaVuSans-65" transform="translate(1465.234375 0)"/>
    <use xlink:href="#DejaVuSans-20" transform="translate(1526.757812 0)"/>
    <use xlink:href="#DejaVuSans-62" transform="translate(1558.544922 0)"/>
    <use xlink:href="#DejaVuSans-75" transform="translate(1622.021484 0)"/>
    <use xlink:href="#DejaVuSans-73" transform="translate(1685.400391 0)"/>
    <use xlink:href="#DejaVuSans-69" transform="translate(1737.5 0)"/>
    <use xlink:href="#DejaVuSans-65" transform="translate(1765.283203 0)"/>
    <use xlink:href="#DejaVuSans-73" transform="translate(1826.806641 0)"/>
    <use xlink:href="#DejaVuSans-74" transform="translate(1878.90625 0)"/>
    <use xlink:href="#DejaVuSans-20" transform="translate(1918.115234 0)"/>
    <use xlink:href="#DejaVuSans-73" transform="translate(1949.902344 0)"/>
    <use xlink:href="#DejaVuSans-69" transform="translate(2002.001953 0)"/>
    <use xlink:href="#DejaVuSans-74" transform="translate(2029.785156 0)"/>
    <use xlink:href="#DejaVuSans-65" transform="translate(2068.994141 0)"/>
    <use xlink:href="#DejaVuSans-73" transform="translate(2130.517578 0)"/>
    <use xlink:href="#DejaVuSans-20" transform="translate(2182.617188 0)"/>
    <use xlink:href="#DejaVuSans-28" transform="translate(2214.404297 0)"/>
    <use xlink:href="#DejaVuSans-67" transform="translate(2253.417969 0)"/>
    <use xlink:href="#DejaVuSans-72" transform="translate(2316.894531 0)"/>
    <use xlink:href="#DejaVuSans-65" transform="translate(2355.757812 0)"/>
    <use xlink:href="#DejaVuSans-79" transform="translate(2417.28125 0)"/>
    <use xlink:href="#DejaVuSans-29" transform="translate(2476.460938 0)"/>
    <use xlink:href="#DejaVuSans-2e" transform="translate(2515.474609 0)"/>
    <use xlink:href="#DejaVuSans-20" transform="translate(2547.261719 0)"/>
    <use xlink:href="#DejaVuSans-3b1" transform="translate(2579.048828 0)"/>
    <use xlink:href="#DejaVuSans-20" transform="translate(2644.966797 0)"/>
    <use xlink:href="#DejaVuSans-69" transform="translate(2676.753906 0)"/>
    <use xlink:href="#DejaVuSans-73" transform="translate(2704.537109 0)"/>
    <use xlink:href="#DejaVuSans-20" transform="translate(2756.636719 0)"/>
    <use xlink:href="#DejaVuSans-63" transform="translate(2788.423828 0)"/>
    <use xlink:href="#DejaVuSans-6f" transform="translate(2843.404297 0)"/>
    <use xlink:href="#DejaVuSans-6e" transform="translate(2904.585938 0)"/>
    <use xlink:href="#DejaVuSans-74" transform="translate(2967.964844 0)"/>
    <use xlink:href="#DejaVuSans-69" transform="translate(3007.173828 0)"/>
    <use xlink:href="#DejaVuSans-6e" transform="translate(3034.957031 0)"/>
    <use xlink:href="#DejaVuSans-75" transform="translate(3098.335938 0)"/>
    <use xlink:href="#DejaVuSans-6f" transform="translate(3161.714844 0)"/>
    <use xlink:href="#DejaVuSans-75" transform="translate(3222.896484 0)"/>
    <use xlink:href="#DejaVuSans-73" transform="translate(3286.275391 0)"/>
    <use xlink:href="#DejaVuSans-3b" transform="translate(3338.375 0)"/>
    <use xlink:href="#DejaVuSans-20" transform="translate(3372.066406 0)"/>
    <use xlink:href="#DejaVuSans-30" transform="translate(3403.853516 0)"/>
    <use xlink:href="#DejaVuSans-20" transform="translate(3467.476562 0)"/>
    <use xlink:href="#DejaVuSans-61" transform="translate(3499.263672 0)"/>
    <use xlink:href="#DejaVuSans-6e" transform="translate(3560.542969 0)"/>
    <use xlink:href="#DejaVuSans-64" transform="translate(3623.921875 0)"/>
    <use xlink:href="#DejaVuSans-20" transform="translate(3687.398438 0)"/>
    <use xlink:href="#DejaVuSans-31" transform="translate(3719.185547 0)"/>
    <use xlink:href="#DejaVuSans-2e" transform="translate(3782.808594 0)"/>
    <use xlink:href="#DejaVuSans-35" transform="translate(3814.595703 0)"/>
    <use xlink:href="#DejaVuSans-20" transform="translate(3878.21875 0)"/>
    <use xlink:href="#DejaVuSans-61" transform="translate(3910.005859 0)"/>
    <use xlink:href="#DejaVuSans-72" transform="translate(3971.285156 0)"/>
    <use xlink:href="#DejaVuSans-65" transform="translate(4010.148438 0)"/>
    <use xlink:href="#DejaVuSans-20" transform="translate(4071.671875 0)"/>
    <use xlink:href="#DejaVuSans-6a" transform="translate(4103.458984 0)"/>
    <use xlink:href="#DejaVuSans-75" transform="translate(4131.242188 0)"/>
    <use xlink:href="#DejaVuSans-73" transform="translate(4194.621094 0)"/>
    <use xlink:href="#DejaVuSans-74" transform="translate(4246.720703 0)"/>
    <use xlink:href="#DejaVuSans-20" transform="translate(4285.929688 0)"/>
    <use xlink:href="#DejaVuSans-74" transform="translate(4317.716797 0)"/>
    <use xlink:href="#DejaVuSans-77" transform="translate(4356.925781 0)"/>
    <use xlink:href="#DejaVuSans-6f" transform="translate(4438.712891 0)"/>
    <use xlink:href="#DejaVuSans-20" transform="translate(4499.894531 0)"/>
    <use xlink:href="#DejaVuSans-73" transform="translate(4531.681641 0)"/>
    <use xlink:href="#DejaVuSans-74" transform="translate(4583.78125 0)"/>
    <use xlink:href="#DejaVuSans-6f" transform="translate(4622.990234 0)"/>
    <use xlink:href="#DejaVuSans-70" transform="translate(4684.171875 0)"/>
    <use xlink:href="#DejaVuSans-73" transform="translate(4747.648438 0)"/>
    <use xlink:href="#DejaVuSans-20" transform="translate(4799.748047 0)"/>
    <use xlink:href="#DejaVuSans-6f" transform="translate(4831.535156 0)"/>
    <use xlink:href="#DejaVuSans-6e" transform="translate(4892.716797 0)"/>
    <use xlink:href="#DejaVuSans-20" transform="translate(4956.095703 0)"/>
    <use xlink:href="#DejaVuSans-74" transform="translate(4987.882812 0)"/>
    <use xlink:href="#DejaVuSans-68" transform="translate(5027.091797 0)"/>
    <use xlink:href="#DejaVuSans-65" transform="translate(5090.470703 0)"/>
    <use xlink:href="#DejaVuSans-20" transform="translate(5151.994141 0)"/>
    <use xlink:href="#DejaVuSans-73" transform="translate(5183.78125 0)"/>
    <use xlink:href="#DejaVuSans-6c" transform="translate(5235.880859 0)"/>
    <use xlink:href="#DejaVuSans-69" transform="translate(5263.664062 0)"/>
    <use xlink:href="#DejaVuSans-64" transform="translate(5291.447266 0)"/>
    <use xlink:href="#DejaVuSans-65" transform="translate(5354.923828 0)"/>
    <use xlink:href="#DejaVuSans-72" transform="translate(5416.447266 0)"/>
    <use xlink:href="#DejaVuSans-2e" transform="translate(5448.435547 0)"/>
   </g>
  </g>
 </g>
 <defs>
  <clipPath id="p94f0879cf4">
   <rect x="72.864" y="68.4" width="424.08" height="252"/>
  </clipPath>
 </defs>
</svg>
